<svg width="419" height="764" viewBox="0 0 419 764" fill="none" xmlns="http://www.w3.org/2000/svg">
<path d="M417.49 252.18C418.09 250.71 418.24 249.07 417.86 247.53C415.22 236.85 403.15 249.23 399.46 249.66C397.93 244.8 398.79 238.9 400.75 234.27C402.34 230.51 404.87 227.07 404.55 222.73C404.4 220.72 403.4 218.81 401.65 217.81C397.95 215.7 393.95 218.97 392.34 222.56C393.1 219.53 393.86 216.37 392.66 213.33C391.99 211.62 390.6 210.21 388.82 209.79C384.24 208.71 381.31 214.31 380.9 218.86C381.37 216.66 379.06 214.57 376.81 214.71C374.57 214.86 372.71 216.68 371.85 218.75C371.56 219.45 371.36 220.17 371.22 220.91C369.89 219.86 368.14 219.84 365.83 221.46C364.37 222.49 363.86 224.39 363.51 226.14C362.94 229.01 362.51 231.91 362.24 234.82C361.8 236.32 361.43 237.85 361.11 239.41C361.02 241.24 360.95 242.96 360.9 244.46C360.6 252.8 360.42 261.67 365.33 268.65C367.54 271.8 370.75 274.08 374.28 275.61C385.24 280.35 393.01 275.33 400.28 270.26C407.22 265.44 414.29 260.07 417.49 252.18Z" fill="#D6A99A"/>
<path d="M269.21 241.92C297.71 229.79 329.6 223.85 359.93 230.08C363.79 230.87 367.68 231.89 370.99 234.01C375.68 237.02 378.8 242 380.79 247.21C390.08 271.5 373.27 302.14 347.79 307.36C328.49 311.32 308.99 302.42 289.31 301.66C269.24 300.89 205.91 326.77 194.32 300.71C184.85 279.4 253.98 248.4 269.21 241.92Z" fill="#1A1A1A"/>
<path d="M304.62 557.22C301.63 565.79 298.65 574.36 295.66 582.94C294.31 586.82 292.94 590.83 293.13 594.83C293.47 601.79 298.36 607.13 302.69 612.19C308.28 618.71 313.36 625.7 317.87 633.08C320.24 636.95 322.53 641.33 321.82 646.05C308.22 635.36 294.61 624.67 281.01 613.98C278.82 612.26 276.49 610.3 276.03 607.44C275.73 605.53 276.33 603.54 276.92 601.64C281.25 587.68 285.58 573.72 289.91 559.75C291.37 555.04 293.41 549.67 297.91 547.87L304.62 557.22Z" fill="#1A1A1A"/>
<path d="M277.08 565.31C275.19 567.68 273.49 570.24 273.27 573.18C272.94 577.72 276.56 582.86 282.15 585.76C287.73 588.66 294.97 589.16 299.88 586.99C304.27 585.05 306.57 581.34 307.73 577.48C308.88 573.65 308.45 568.56 303.57 565.88C301.42 564.7 298.84 564.28 296.38 563.98C288.86 563.06 281.38 562.97 274.24 563.7L277.08 565.31Z" fill="#242424"/>
<path d="M207.6 446.59C218 432.57 274.27 408 290.9 402.69C300.87 399.51 312.13 398.96 321.49 403.63C331.37 408.57 337.77 418.55 341.98 428.76C354.7 459.57 351.53 494.33 348.15 527.5C346.53 543.36 343.63 561.4 330.2 569.98C323.75 574.1 315.87 575.23 308.24 575.72C300.58 576.21 292.89 576.15 285.24 575.54C279.82 575.11 274.26 574.34 269.56 571.61C261.44 566.89 257.45 557.03 257.27 547.64C257.09 538.26 260.1 529.14 263.08 520.24C259.19 531.86 208.9 551.47 198.54 546.58C189.86 542.48 185.18 504.4 184.54 495.08C182.77 469.37 192.53 466.92 207.6 446.59Z" fill="#1A1A1A"/>
<path d="M244.99 470.12C243.07 493.78 221.18 518.25 197.9 529.86C195.69 530.96 193.32 531.94 190.87 532.38C189.71 532.58 188.52 532.67 187.32 532.57C180.17 531.98 175.76 525.69 171.15 520.8C166.07 515.43 159.73 511.25 153 507.54C149.35 505.53 145.6 503.66 141.86 501.81C133.08 497.45 124.32 493.1 115.54 488.74C113.87 487.9 112.11 487 111.15 485.53C107.97 480.64 106.64 462.93 106.34 446.75C106.34 446.75 106.29 434.08 106.31 432.78C106.4 427.82 106.57 423.62 106.81 420.79C106.87 420.04 106.93 419.4 107 418.88C107.22 417.09 107.7 416.23 108.37 415.93C111.12 414.71 117.16 423.13 122.27 417.28C132.13 405.96 144.23 399.65 157.56 396.16C163.5 394.6 169.7 393.59 176.04 392.95C187.89 391.75 200.27 391.83 212.63 391.89C214.84 391.9 217.16 391.96 219.06 392.98C221.82 394.47 222.87 397.51 223.69 400.3C226.4 409.36 230.61 418.52 234.58 427.72C235.08 428.88 236.45 432.13 236.65 432.59C238.35 436.67 239.93 440.77 241.28 444.88C244.02 453.24 245.68 461.65 244.99 470.12Z" fill="#242424"/>
<path d="M241.51 353.8C241.02 367.51 239.62 407.98 239.4 414.53C239.26 418.21 239.11 421.98 238.51 425.64C238.19 427.65 237.72 429.62 237.06 431.52C236.94 431.88 236.8 432.23 236.66 432.58C236.31 433.47 235.91 434.33 235.46 435.16C234 437.86 232.05 440.2 229.88 442.38C228.31 443.98 226.61 445.48 224.92 446.95C212.25 458.02 199.1 468.55 185.53 478.5C184.24 479.45 182.95 480.4 181.65 481.33C176.36 485.14 170.48 489.01 163.98 488.62C160.03 488.4 156.33 486.56 152.91 484.53C148.55 481.93 144.47 478.97 140.67 475.69C129.95 466.46 121.43 454.75 115.06 441.82C114.85 441.4 114.64 440.96 114.44 440.52C114.35 440.35 114.27 440.17 114.18 439.98C113.29 438.13 112.46 436.25 111.67 434.35C109.82 429.92 108.2 425.39 106.81 420.79C106.24 418.9 105.71 417.03 105.24 415.16C104.75 413.29 104.3 411.41 103.9 409.54C103.6 408.19 103.33 406.84 103.06 405.5C102.84 404.29 102.61 403.08 102.42 401.85C101.91 398.88 101.5 395.91 101.15 392.92C100.63 388.51 100.25 384.11 100.01 379.69C98.7401 356.41 100.95 332.85 103.18 309.56C103.88 302.22 104.77 294.45 108.69 288.39C109.21 287.58 109.8 286.78 110.45 286.03C114.89 280.87 121.55 278.3 128.02 276.22C128.79 275.97 151.8 268.7 152.13 268.62C155.61 267.61 159.13 266.67 162.57 265.87C168.61 264.48 174.34 263.52 179.12 263.46C180.12 263.43 181.12 263.47 182.03 263.55C183.55 263.66 185.08 264.01 186.61 264.56C188.73 265.3 190.87 266.41 192.98 267.82C196.5 270.14 200.01 273.26 203.39 276.77C203.93 277.32 204.45 277.87 204.98 278.44C205.13 278.6 205.29 278.76 205.44 278.94C207.53 281.22 209.56 283.62 211.53 286.04C217.15 292.96 222.19 300.05 226.15 305C227.9 307.18 229.63 309.39 231.27 311.68C234.53 316.21 237.4 321.01 239.16 326.29C242.12 335.07 241.83 344.56 241.51 353.8Z" fill="#242424"/>
<path d="M167.77 337.47C160.8 316.83 140.03 300.63 130.05 281.11C134.77 273.32 140.14 265.63 145.95 260.54C158.72 279.95 178.59 319.94 177.45 321.33C169.37 331 175.83 327.8 167.77 337.47Z" fill="#333333"/>
<path d="M188.26 257.27C194.82 262.43 201.38 267.6 207.94 272.76C191.67 312.18 180.78 353.8 175.65 396.13C173.98 409.91 161.24 414.37 158.02 400.17C155.45 388.81 164.32 368.1 166.66 356.91C168.1 350.01 174.88 316.77 188.26 257.27Z" fill="#333333"/>
<path d="M242.95 423.35C241.93 426.01 240.32 428.78 237.89 431.71C237.59 431.65 237.32 431.59 237.05 431.51C236.69 431.42 236.35 431.3 236.06 431.17C234.51 430.52 233.75 429.57 232.7 428.72C231.86 428.03 230.84 427.42 229.07 427.08C220.27 425.43 211.43 423.77 202.44 423.41C191.29 422.95 180.15 424.5 169.12 426.04C151.3 428.52 133.88 433.77 117.13 439.56C116.23 439.87 109.41 442.28 107.75 442.88C107.71 441.02 107.54 439.13 107.24 437.25C107.02 435.74 106.7 434.24 106.3 432.76C105.1 428.24 103.19 423.91 100.63 420.25C101.68 418.36 103.25 416.68 105.22 415.14C105.91 414.6 106.64 414.08 107.43 413.57C113.92 409.38 123.49 406.15 133.51 402.32C141.33 399.34 149.35 396.84 157.54 394.85C163.69 393.34 169.94 392.12 176.24 391.19C188.99 389.29 201.95 388.59 214.85 389.12C223.51 389.47 232.93 390.84 240.04 394.89C240.93 395.38 241.78 395.93 242.59 396.51C242.7 405.23 246.8 413.49 242.95 423.35Z" fill="#333333"/>
<path d="M137.26 287.53C137.23 288.28 137.18 289.05 137.12 289.85C137.07 290.6 136.98 291.37 136.9 292.16C135.5 304.26 130.45 320.1 124.25 328.19C121.47 331.81 109.77 336.47 109.96 341.02C110.15 345.63 111.01 348.5 112.21 350.81C114.43 355.1 117.82 357.54 120.35 365.68C122.04 371.15 120.62 377.12 118.29 382.35C115.48 388.6 111.35 394.09 106.32 398.64C105.08 399.78 103.8 400.85 102.45 401.85C92.2001 409.59 79.1401 413.91 66.2201 413.76C57.0101 413.65 47.9701 411.49 39.5701 407.75C28.4101 402.79 18.3601 395.09 10.4401 385.75C6.5801 381.19 3.11011 376.14 1.64011 370.37C-1.95989 356.25 7.05011 342.12 16.8201 331.32C29.0301 317.82 43.7901 305.5 59.9701 295.7C67.8501 290.93 76.0601 286.75 84.4901 283.33C90.8801 280.73 97.3901 278.56 103.97 276.9C110.87 275.15 122.92 272.27 130.48 275.43C131.33 275.78 132.12 276.2 132.83 276.72C135.67 278.75 137.45 282.15 137.26 287.53Z" fill="#242424"/>
<path d="M147.96 384.67C148.89 383.47 149.51 382.05 149.65 380.62C150.66 370.72 137.03 379.59 133.86 379.33C134.05 374.77 136.52 369.7 139.52 365.94C141.95 362.89 145.06 360.28 146.1 356.39C146.58 354.59 146.32 352.72 145.18 351.53C142.77 349.02 138.49 351.23 136.09 354.12C137.62 351.57 139.19 348.91 139.11 346.01C139.07 344.38 138.35 342.89 137 342.21C133.55 340.47 129.47 344.91 127.77 348.87C128.82 347.01 127.54 344.75 125.64 344.5C123.75 344.24 121.68 345.53 120.35 347.22C119.9 347.79 119.53 348.39 119.19 349.02C118.41 347.86 116.97 347.54 114.59 348.58C113.08 349.24 112.09 350.83 111.28 352.32C109.95 354.76 108.74 357.25 107.64 359.78C106.83 361.03 106.07 362.32 105.34 363.64C104.71 365.25 104.15 366.75 103.66 368.07C100.92 375.4 98.1201 383.21 100.08 390.23C100.96 393.4 102.92 395.97 105.37 397.93C112.98 404.02 120.88 400.92 128.38 397.68C135.54 394.63 142.97 391.1 147.96 384.67Z" fill="#D6A99A"/>
<path d="M179.24 698.96C174.88 720.38 176.08 742.9 182.68 763.73C187.69 752.16 184.85 738.45 189.32 726.66C191.42 721.11 195.1 716.14 196.23 710.32C197.85 701.96 193.96 693.53 193.93 685.01C193.9 676.5 198.13 668 196.44 659.49C195.38 654.16 192 646.49 187.31 652.13C183.76 656.4 185.64 667.89 184.88 673.02C183.59 681.79 181.01 690.3 179.24 698.96Z" fill="#1A1A1A"/>
<path d="M201.09 682.91C200.35 684.28 198.6 684.64 197.06 684.86C194.04 685.29 191.01 685.72 187.99 686.14C184.56 686.62 180.54 686.91 178.19 684.37C176.56 682.61 176.29 680.01 176.11 677.62C175.84 674.12 175.58 670.62 175.31 667.12C175.27 666.54 175.23 665.93 175.46 665.4C175.66 664.94 176.05 664.6 176.43 664.28C179.5 661.75 183.36 660.19 187.33 659.86C193.14 659.39 200.87 656.6 203.13 662.35C204.16 664.98 202.2 680.86 201.09 682.91Z" fill="#333333"/>
<path d="M238.52 537.38C232.37 573.64 225.29 611.58 228.47 636.32C229.63 645.3 230.82 655.37 225.02 662.39C219.95 668.53 211.22 670.28 203.21 671.6C203.15 671.61 203.1 671.63 203.04 671.63C200.63 672.03 198.17 672.42 195.7 672.75C192.07 673.25 188.41 673.62 184.76 673.76C181.74 673.86 178.73 673.8 175.78 673.49C175.68 673.49 175.59 673.48 175.49 673.45C170.32 672.88 165.34 671.51 160.76 668.96C152.25 664.2 146.34 655.79 143.07 646.79C139.8 637.79 138.9 628.15 138.48 618.64C137.69 601.05 134.77 573.16 132.54 555.72C128.79 526.51 97.1602 476.55 106.32 446.73C106.32 446.69 106.33 446.67 106.35 446.63C106.75 445.36 107.22 444.11 107.77 442.91C108.31 441.75 110.02 440.9 112.63 440.3C112.67 440.29 112.72 440.29 112.75 440.26C113.2 440.17 113.69 440.07 114.19 439.99C115.1 439.84 116.09 439.7 117.15 439.59C137.49 437.49 184.11 443.57 194.66 446.82C197.88 447.81 202.5 447.46 207.61 446.62C214.94 445.4 223.28 443.16 229.89 442.39C235.38 441.74 239.7 442.1 241.3 444.87C250.69 461.41 245.14 498.42 238.52 537.38Z" fill="#242424"/>
<path d="M280.57 167.47C279.28 175.78 277.19 183.85 274.37 191.58C272.83 195.77 271.09 199.86 269.14 203.84C266.07 216.46 255.56 241.71 229.44 261.61C227.04 263.43 224.5 265.22 221.82 266.94C219 268.76 216.03 270.52 212.89 272.18C210.98 273.22 208.99 274.2 206.96 275.15C205.8 275.71 204.61 276.24 203.4 276.76C196.97 279.56 189.95 282 182.3 284C175.95 285.67 169.14 287.03 161.88 288.01C158.31 288.5 154.61 288.9 150.81 289.2C146.18 289.56 141.61 289.77 137.13 289.85C136.52 289.86 135.91 289.87 135.31 289.87C125.97 289.97 117.04 289.45 108.72 288.38C99.8801 287.28 91.7201 285.56 84.4901 283.32C81.7601 282.48 79.1501 281.57 76.6901 280.57C62.7301 274.96 53.5101 267.1 51.5001 257.84C51.3101 257.04 51.2002 256.22 51.1402 255.41C51.0802 254.67 51.0501 253.95 51.1001 253.23C51.1401 252.21 51.2601 251.19 51.4701 250.17C53.9001 238.46 51.3102 226.34 44.8902 216.21C39.4702 207.66 35.0401 198.38 31.7301 188.54C29.3101 181.35 27.5202 173.85 26.4002 166.11C26.1002 164.14 25.8601 162.15 25.6601 160.14C25.5701 159.3 25.5001 158.47 25.4401 157.62C25.1501 154.01 25.0301 150.42 25.0501 146.86C25.0401 146.01 25.0502 145.15 25.0802 144.3C25.0902 143.71 25.1701 141.73 25.1901 141.33C25.2001 140.96 25.2301 140.58 25.2501 140.21C25.2901 139.49 25.3202 138.76 25.3902 138.04C25.4502 137.13 25.5301 136.22 25.6301 135.31C25.6601 134.95 25.6901 134.6 25.7301 134.25C25.7801 133.69 25.8401 133.13 25.9201 132.56C25.9801 131.92 26.0701 131.3 26.1601 130.66C26.1701 130.52 26.1802 130.39 26.2102 130.25C26.3202 129.45 26.7301 126.74 26.8101 126.3C26.8701 125.9 26.9302 125.5 27.0202 125.1C27.1802 124.2 27.3402 123.31 27.5202 122.42C27.8702 120.65 28.2601 118.87 28.6901 117.13C29.3301 114.5 30.0501 111.9 30.8601 109.33C31.1201 108.47 31.4001 107.62 31.6801 106.77C31.9301 106.05 32.1801 105.32 32.4301 104.6C33.9801 100.26 35.7401 96.02 37.7201 91.9C38.0101 91.33 38.9301 89.47 39.1101 89.12C39.4101 88.55 40.1501 87.13 40.2201 87.01C40.5401 86.41 40.8702 85.8 41.2102 85.2C41.3802 84.88 41.5602 84.56 41.7602 84.24C42.0502 83.7 42.3601 83.17 42.6701 82.64C42.7301 82.53 42.8101 82.42 42.8701 82.3C43.2601 81.64 44.1801 80.13 44.2401 80.03C44.6601 79.36 45.0802 78.68 45.5102 78.02C46.4002 76.63 47.3202 75.26 48.2802 73.91C48.8702 73.06 49.4702 72.21 50.0902 71.38C50.5002 70.81 50.9301 70.24 51.3601 69.68C51.4801 69.52 51.6101 69.36 51.7301 69.19C52.1701 68.63 52.6001 68.05 53.0501 67.5C53.1701 67.34 53.2901 67.19 53.4101 67.04C53.8201 66.53 54.2302 66.03 54.6502 65.53C55.4902 64.53 56.3202 63.53 57.2102 62.56C57.5802 62.11 57.9801 61.67 58.3801 61.24C60.0501 59.38 61.7902 57.58 63.5702 55.83C63.6702 55.72 63.7801 55.62 63.8801 55.52C64.4501 54.96 65.0301 54.41 65.6201 53.87C65.7101 53.77 65.8102 53.68 65.9002 53.6C66.3202 53.21 66.7501 52.81 67.1901 52.43C68.1301 51.57 69.0901 50.72 70.0601 49.9C70.6301 49.4 71.2102 48.93 71.7802 48.45C73.7902 46.78 75.8601 45.17 77.9801 43.63C78.7301 43.08 79.4801 42.54 80.2401 42.02C80.3001 41.97 80.3601 41.93 80.4301 41.9C81.2501 41.33 82.0801 40.76 82.9101 40.21C83.7501 39.66 84.6001 39.11 85.4401 38.59C86.2301 38.09 87.0302 37.6 87.8202 37.13C88.7902 36.54 89.7802 35.97 90.7702 35.42C91.5902 34.96 94.8102 33.25 95.5902 32.85C96.6402 32.33 97.7002 31.8 98.7602 31.3C99.6502 30.89 100.55 30.48 101.46 30.08C102.35 29.68 103.25 29.29 104.14 28.92C104.31 28.85 104.49 28.77 104.68 28.71C105.4 28.41 107.29 27.66 107.5 27.59C108.24 27.3 108.97 27.03 109.72 26.77C109.89 26.7 110.06 26.63 110.22 26.58C111.01 26.29 111.79 26.02 112.59 25.76C112.75 25.7 112.9 25.65 113.06 25.6C113.91 25.33 115.81 24.73 115.88 24.7C116.62 24.48 117.35 24.26 118.1 24.05C119.32 23.69 120.56 23.36 121.81 23.04C122.81 22.79 123.81 22.55 124.81 22.33C125.12 22.25 125.45 22.18 125.76 22.13C126.42 21.97 127.08 21.83 127.76 21.69C127.86 21.66 127.96 21.64 128.06 21.63C129.02 21.43 130 21.26 130.97 21.08C131.98 20.89 132.99 20.73 134 20.58C134.06 20.57 134.12 20.55 134.19 20.55C134.93 20.43 135.68 20.33 136.42 20.23C136.93 20.16 139.65 19.83 140.51 19.74C141.32 19.67 142.13 19.58 142.96 19.53C144.23 19.42 145.52 19.33 146.81 19.26C182.34 17.39 215.66 30.43 240.35 53.04C244.32 56.67 248.07 60.56 251.56 64.66C252.11 65.3 252.65 65.95 253.18 66.61C253.59 67.1 253.98 67.58 254.37 68.07C257.27 71.72 259.96 75.54 262.46 79.49C264.56 82.82 266.52 86.27 268.32 89.8C268.33 89.84 268.34 89.86 268.37 89.89C274.92 102.85 279.36 117.11 281.17 132.23C281.33 133.64 281.48 135.05 281.61 136.46C281.7 137.53 281.78 138.59 281.85 139.67C281.9 140.53 281.95 141.39 281.99 142.25C282.36 150.82 281.86 159.26 280.57 167.47Z" fill="#1A1A1A"/>
<path d="M280.57 167.47C279.27 175.77 277.17 183.82 274.35 191.55C275.86 195.41 277.13 199.3 277.6 203.39C279.06 216.06 272.59 228.12 266.33 239.23C265.14 241.34 262.76 243.7 259.66 246.15C248.95 254.59 229.71 263.94 221.82 266.94C221.79 266.95 221.78 266.95 221.76 266.97C221.93 266.62 222.13 266.25 222.36 265.85C226.55 258.58 240.36 244.78 244.78 236.6C250.2 226.55 249.66 217.64 245.53 206.96C238.65 189.14 225.85 174.06 210.84 162.3C203.55 156.59 195.7 151.63 187.43 147.44C185.64 146.54 183.85 145.69 182.04 144.92C147.31 129.85 108.01 135.78 70.1402 143.33C67.1302 143.92 64.1302 144.53 61.1502 145.14C49.1302 147.61 36.0301 141.54 25.0401 146.86C25.0301 146.01 25.0402 145.15 25.0702 144.3C25.0802 143.71 25.1601 141.73 25.1801 141.33C25.1901 140.96 25.2201 140.58 25.2401 140.21C25.2801 139.49 25.3101 138.76 25.3801 138.04C25.4401 137.13 25.5201 136.22 25.6201 135.31C25.6501 134.95 25.6801 134.6 25.7201 134.25C25.7701 133.69 25.8301 133.13 25.9101 132.56C25.9701 131.92 26.0602 131.3 26.1502 130.66C26.1602 130.52 26.1702 130.39 26.2002 130.25C26.3102 129.45 26.5702 127.7 26.5902 127.62C26.6602 127.18 26.7301 126.75 26.8101 126.31C26.8701 125.91 26.9302 125.51 27.0102 125.11C27.1702 124.21 27.3302 123.32 27.5102 122.43C27.8702 120.66 28.2601 118.88 28.6801 117.14C29.3301 114.51 30.0401 111.91 30.8501 109.34C31.1101 108.48 31.3901 107.63 31.6701 106.78C31.9201 106.06 32.1701 105.33 32.4201 104.61C33.9701 100.27 35.7302 96.03 37.7102 91.91C38.0002 91.34 38.9201 89.48 39.1001 89.13C39.4001 88.56 40.1402 87.14 40.2102 87.02C40.5302 86.42 40.8602 85.81 41.2002 85.21C41.3702 84.89 41.5501 84.57 41.7501 84.25C42.0401 83.71 42.3501 83.18 42.6601 82.65C42.7201 82.54 42.8001 82.43 42.8601 82.31C43.2501 81.65 44.1701 80.14 44.2301 80.04C44.6501 79.37 45.0701 78.69 45.5001 78.03C46.3901 76.64 47.3102 75.27 48.2702 73.92C48.8602 73.07 49.4602 72.22 50.0802 71.39C50.4902 70.82 50.9201 70.25 51.3501 69.69C51.4701 69.53 51.6001 69.37 51.7201 69.2C52.1601 68.64 52.5901 68.06 53.0401 67.51C53.1601 67.35 53.2802 67.2 53.4002 67.05C53.8102 66.54 54.2202 66.04 54.6402 65.54C55.4802 64.54 56.3102 63.54 57.2002 62.57C57.5702 62.12 57.9701 61.68 58.3701 61.25C60.0401 59.39 61.7801 57.59 63.5601 55.84C63.6601 55.73 63.7701 55.63 63.8701 55.53C64.4401 54.97 65.0201 54.42 65.6101 53.88C65.7001 53.78 65.8002 53.69 65.8902 53.61C66.3102 53.22 66.7401 52.82 67.1801 52.44C68.1201 51.58 69.0801 50.73 70.0501 49.91C70.6201 49.41 71.2002 48.94 71.7702 48.46C73.7802 46.79 75.8501 45.18 77.9701 43.64C78.7201 43.09 79.4701 42.55 80.2301 42.03C80.2901 41.98 80.3501 41.94 80.4201 41.91C81.2401 41.34 82.0702 40.77 82.9002 40.22C83.7402 39.67 84.5901 39.12 85.4301 38.6C86.2201 38.1 87.0201 37.61 87.8101 37.14C88.7801 36.55 89.7702 35.98 90.7602 35.43C91.5802 34.97 94.8002 33.26 95.5802 32.86C96.6302 32.34 97.6901 31.81 98.7501 31.31C99.6401 30.9 100.54 30.49 101.45 30.09C102.34 29.69 103.24 29.3 104.13 28.93C104.3 28.86 104.48 28.78 104.67 28.72C105.39 28.42 107.28 27.67 107.49 27.6C108.23 27.31 108.96 27.04 109.71 26.78C109.88 26.71 110.05 26.64 110.21 26.59C111 26.3 111.78 26.03 112.58 25.77C112.74 25.71 112.89 25.66 113.05 25.61C113.9 25.34 115.8 24.74 115.87 24.71C116.61 24.49 117.34 24.27 118.09 24.06C119.31 23.7 120.55 23.37 121.8 23.05C122.8 22.8 125.43 22.19 125.75 22.13C126.41 21.98 127.09 21.83 127.75 21.71C127.85 21.68 127.95 21.66 128.05 21.65C129.01 21.45 129.99 21.28 130.96 21.1C131.97 20.91 132.98 20.75 133.99 20.6C134.05 20.59 134.11 20.57 134.18 20.57C134.92 20.45 135.67 20.35 136.41 20.25C136.92 20.18 139.64 19.85 140.5 19.76C141.31 19.69 142.12 19.6 142.95 19.55C144.22 19.44 145.51 19.35 146.8 19.28C182.33 17.41 215.65 30.45 240.34 53.06C244.31 56.69 248.06 60.58 251.55 64.68C252.1 65.32 252.64 65.97 253.17 66.63C253.57 67.12 253.96 67.6 254.36 68.09C257.26 71.74 259.95 75.56 262.45 79.51C264.55 82.84 266.51 86.29 268.31 89.82C268.32 89.86 268.33 89.88 268.36 89.91C274.91 102.87 279.35 117.13 281.16 132.25C281.32 133.66 281.47 135.07 281.6 136.48C281.69 137.55 281.77 138.61 281.84 139.69C281.89 140.55 281.94 141.41 281.98 142.27C282.34 150.82 281.84 159.26 280.57 167.47Z" fill="#242424"/>
<path d="M268.32 89.7701C264.26 109.6 228.64 130.08 182.03 144.91C172.78 147.86 163.09 150.58 153.14 153.03C122.73 160.52 98.7801 166.76 79.0901 169.27C56.9401 172.1 40.1801 170.23 25.6401 160.14C24.6901 159.48 23.7401 158.78 22.8101 158.04C17.4001 153.81 20.1801 147.47 24.0701 140.46C26.9701 135.25 19.8601 129.57 25.6801 125.47C26.0401 125.76 26.4001 126.03 26.7801 126.29C36.3601 133.23 51.4701 136.45 70.3801 136.55C91.7501 136.65 117.96 132.78 146.44 125.76C201.11 112.3 241.34 87.6701 251.57 64.6101C252.18 64.5601 252.83 64.6401 253.48 64.8201C255.2 65.2901 257.03 66.4901 258.79 68.0801C261.44 70.4501 263.93 73.6701 265.71 76.5601C265.71 76.5701 265.72 76.5901 265.72 76.6001C266.99 78.6601 267.89 80.5601 268.2 81.8401C268.85 84.4801 268.87 87.1101 268.32 89.7701Z" fill="#333333"/>
<path d="M351.28 85.8401C340.55 80.2601 331.94 71.11 321 65.94C304.45 58.12 283.39 61.02 269.57 73.02C264.53 77.4 259.87 83.13 253.27 84.12C250.81 68.72 254.82 51 265.7 38.94C277.2 26.19 295.7 20.8 312.65 23.52C329.6 26.24 344.87 36.54 355.19 50.26C362.03 59.36 366.97 70.02 375.37 77.71C383.73 85.36 398.52 89.75 407.58 80.87C391.21 92.13 369.28 95.2001 351.28 85.8401Z" fill="#333333"/>
<path d="M320.22 91.97C323.1 102.12 324.24 112.99 330.22 121.91C336.2 130.83 349.37 137.01 359.44 131.74C364.56 129.06 367.74 124.07 372.51 120.9C377.28 117.72 385.59 117.51 387.51 122.54C382.19 121.37 376.82 124.55 373 128.2C369.18 131.85 365.95 136.22 361.07 138.6C351.38 143.33 339.71 138.38 330.59 133.02C323.26 128.7 315.8 123.64 312.69 116.19C310.8 111.67 310.72 106.67 309.34 101.99C305.71 89.66 293.32 81.5 280.27 78.39C270.53 76.07 253.7 79.48 259.8 65.11C265.43 51.83 285.84 53.45 296.68 59.3C309.34 66.12 316.64 79.35 320.22 91.97Z" fill="#333333"/>
<path d="M181.92 215.82C181.78 217.68 181.58 219.48 181.35 221.15C180.45 227.43 178.97 233.88 174.96 238.75C169.44 245.43 160.2 247.84 151.56 248.01C141.57 248.21 131.55 245.94 122.62 241.51C122.37 241.39 122.13 241.27 121.9 241.15C120 240.18 118.14 239.1 116.36 237.93C116.15 237.79 115.94 237.64 115.72 237.51C111.77 234.86 108.05 231.84 103.61 230.14C98.9699 228.38 93.1599 228.42 89.5499 231.88C87.3899 233.97 86.3499 236.94 85.1199 239.68C83.6599 242.94 81.7599 246.08 79.4399 248.81C76.9399 251.76 73.9299 254.2 70.4099 255.76C64.1199 258.54 56.05 257.84 51.08 253.24C51.12 252.22 51.24 251.2 51.45 250.18C53.88 238.47 51.2899 226.35 44.8699 216.22C39.4499 207.67 35.02 198.39 31.71 188.55C34.87 187 38.81 187.25 42.4 187.83C53.6 189.65 64.3599 193.72 75.5499 195.65C75.6499 195.66 75.74 195.69 75.84 195.7C87.15 197.6 99.6099 196.96 108.81 190.13C113.63 186.56 117.21 181.54 121.88 177.76C133.27 168.47 157.31 164.58 169.7 174.58C180.73 183.47 182.97 201.83 181.92 215.82Z" fill="#D6A99A"/>
<path d="M238.9 68.4101C237.63 70.1601 235.57 71.1401 233.57 71.9801C206.04 83.4901 174.63 80.0301 145.53 73.4501C130.17 69.9801 113.79 67.1601 97.81 63.9601C85.99 61.6001 74.39 59.0301 63.58 55.8201C63.38 55.7701 63.19 55.7201 62.99 55.6601C76.84 37.3801 97.71 26.0101 119.38 19.1201C122.06 18.2701 124.76 17.4501 127.46 16.6901C152.8 9.42008 179.01 5.44008 205.09 1.50008C216.19 -0.18992 229.8 -0.859915 236.16 8.38008C239.49 13.2101 239.73 19.4701 239.83 25.3501C240.01 34.5601 240.44 57.9501 240.49 60.4201C240.54 63.1801 240.53 66.1601 238.9 68.4101Z" fill="#242424"/>
<path d="M119.49 213.41C120.22 222.69 125.48 229.85 131.25 229.4C137.02 228.95 141.11 221.06 140.38 211.77C139.65 202.49 134.39 195.33 128.62 195.78C122.85 196.23 118.77 204.13 119.49 213.41Z" fill="#1A1A1A"/>
<path d="M57.5302 223.21C59.1802 231.72 64.8102 237.78 70.1002 236.75C75.3902 235.72 78.3302 227.99 76.6802 219.49C75.0302 210.98 69.4002 204.92 64.1102 205.95C58.8302 206.98 55.8802 214.71 57.5302 223.21Z" fill="#1A1A1A"/>
<path opacity="0.06" d="M76.7501 366.22C76.3501 375.52 68.7501 382.69 61.7101 388.75C55.6301 393.98 40.8901 406.68 39.5601 407.75C28.4001 402.79 18.3501 395.09 10.4301 385.75C6.57009 381.19 3.1001 376.14 1.6301 370.37C-1.9699 356.25 7.0401 342.12 16.8101 331.32C29.0201 317.82 43.7801 305.5 59.9601 295.7C62.8701 297.9 65.0901 300.66 65.9401 303.89C69.4201 317.19 51.8001 325.84 47.9601 338.04C54.1601 340.65 61.3801 343.48 66.8601 347.69C72.6301 352.14 77.0601 358.95 76.7501 366.22Z" fill="#FFF8FF"/>
<path opacity="0.06" d="M127.46 16.6802C127.06 18.4802 126.49 20.2802 125.77 22.0702C120.05 36.4902 105.35 50.7102 97.8001 63.9602C97.7301 64.0802 97.6501 64.2202 97.5801 64.3502C86.7901 83.6102 78.3801 104.21 72.6701 125.54C71.7101 129.15 70.8201 132.86 70.3701 136.56C70.1001 138.82 69.9801 141.08 70.1201 143.33C70.2101 145.04 70.4401 146.74 70.8701 148.41C72.5601 155.1 76.9101 160.86 78.6901 167.52C78.8401 168.11 78.9801 168.68 79.0901 169.27C80.8301 178.01 78.1801 186.77 75.5401 195.64C74.1801 200.23 72.8201 204.85 72.0801 209.51C71.7701 211.47 71.5701 213.44 71.5201 215.43C71.3801 221.65 72.7701 227.64 74.5801 233.61C76.1301 238.67 77.9601 243.7 79.4201 248.8C80.1301 251.31 80.7401 253.83 81.1901 256.38C82.6101 264.46 81.02 273.92 76.66 280.59C62.7 274.98 53.48 267.12 51.47 257.86C51.28 257.06 51.1701 256.24 51.1101 255.43C51.0501 254.69 51.0201 253.97 51.0701 253.25C51.1101 252.23 51.2301 251.21 51.4401 250.19C53.8701 238.48 51.2801 226.36 44.8601 216.23C39.4401 207.68 35.0101 198.4 31.7001 188.56C29.2801 181.37 27.4901 173.87 26.3701 166.13C26.0701 164.16 25.8301 162.17 25.6301 160.16C24.6801 159.5 23.7301 158.8 22.8001 158.06C17.3901 153.83 20.1701 147.49 24.0601 140.48C26.9601 135.27 19.8501 129.59 25.6701 125.49C26.0301 125.78 26.3901 126.05 26.7701 126.31C26.8301 125.91 26.8901 125.51 26.9801 125.11C27.1401 124.21 27.3001 123.32 27.4801 122.43C27.8301 120.66 28.2201 118.88 28.6501 117.14C29.2901 114.51 30.0101 111.91 30.8201 109.34C31.0801 108.48 31.3601 107.63 31.6401 106.78C31.8901 106.06 32.1401 105.33 32.3901 104.61C33.9401 100.27 35.7001 96.0302 37.6801 91.9102C37.9701 91.3402 38.8901 89.4802 39.0701 89.1302C39.3701 88.5602 40.1101 87.1402 40.1801 87.0202C40.5001 86.4202 40.8301 85.8102 41.1701 85.2102C41.3401 84.8902 41.52 84.5702 41.72 84.2502C42.01 83.7102 42.3201 83.1802 42.6301 82.6502C42.6901 82.5402 42.7701 82.4302 42.8301 82.3102C43.2201 81.6502 44.1401 80.1402 44.2001 80.0402C44.6201 79.3702 45.04 78.6902 45.47 78.0302C46.36 76.6402 47.2801 75.2702 48.2401 73.9202C48.8301 73.0702 49.4301 72.2202 50.0501 71.3902C50.4601 70.8202 50.8901 70.2502 51.3201 69.6902C51.4401 69.5302 51.5701 69.3702 51.6901 69.2002C52.1301 68.6402 52.5601 68.0602 53.0101 67.5102C53.1301 67.3502 53.2501 67.2002 53.3701 67.0502C53.7801 66.5402 54.1901 66.0402 54.6101 65.5402C55.4501 64.5402 56.2801 63.5402 57.1701 62.5702C57.5401 62.1202 57.9401 61.6802 58.3401 61.2502C60.0101 59.3902 61.7501 57.5902 63.5301 55.8402C63.3301 55.7902 63.1401 55.7402 62.9401 55.6802C76.7901 37.4002 97.6601 26.0302 119.33 19.1402C122.06 18.2702 124.76 17.4502 127.46 16.6802Z" fill="#FFF8FF"/>
<path opacity="0.06" d="M180.69 658.3C180.64 659.51 180.47 660.7 180.19 661.86C179.49 664.86 178.18 667.73 176.88 670.52C176.51 671.32 175.58 673.28 175.49 673.45C170.32 672.88 165.34 671.51 160.76 668.96C152.25 664.2 146.34 655.79 143.07 646.79C139.8 637.79 138.9 628.15 138.48 618.64C137.69 601.05 134.77 573.16 132.54 555.72C128.79 526.51 97.1601 476.55 106.32 446.73C106.32 446.69 106.33 446.67 106.35 446.63C106.29 443.26 106.3 434.08 106.32 432.78C105.12 428.26 103.21 423.93 100.65 420.27C101.7 418.38 103.27 416.7 105.24 415.16C104.75 413.29 104.3 411.41 103.9 409.54C105.49 410.49 106.61 411.92 107.45 413.59C107.8 414.33 108.11 415.11 108.37 415.94C108.96 417.74 109.32 419.66 109.61 421.48C110.3 425.77 112.29 438.23 112.61 440.17C112.66 440.21 112.7 440.23 112.75 440.26C113.04 440.45 113.32 440.63 113.61 440.82C114.1 441.13 114.6 441.47 115.07 441.82C120.46 445.59 125.26 450.38 129.2 455.63C133.84 461.82 137.5 468.63 140.67 475.69C143.62 482.22 146.11 488.96 148.61 495.67C150.07 499.62 151.53 503.57 152.99 507.54C165.38 541.56 176.51 576.67 174.18 612.6C173.66 620.68 172.46 628.93 174.49 636.77C176.39 644.04 181.02 650.78 180.69 658.3Z" fill="#FFF8FF"/>
<path opacity="0.06" d="M115.19 232.79C116.69 249.44 122.55 270.66 139.23 271.85C147.87 272.47 155.59 266.88 162.44 261.58C177.76 249.71 193.96 236.58 199.31 217.95C172.43 212.07 143.15 218.12 120.81 234.18C121.48 236.89 122.15 239.59 122.82 242.3L115.19 232.79Z" fill="#FFF8FF"/>
</svg>
