<svg width="826" height="598" viewBox="0 0 826 598" fill="none" xmlns="http://www.w3.org/2000/svg">
<path d="M358.39 234.18C348.27 233.73 300.32 231.78 240.67 232.49C236.02 232.55 231.3 232.61 226.52 232.71C210.36 233.01 193.54 233.52 176.53 234.31C162.03 234.99 147.39 235.87 132.92 237.01C130.44 237.21 115.63 238.48 111.1 238.94C92.9301 240.72 75.2701 242.96 58.7401 245.76C51.5101 246.97 44.5201 248.29 37.7801 249.72L0.330078 279.61C0.330078 279.61 61.0401 271.83 111.37 266.41C129.68 264.44 195.89 258.84 200.64 258.52C215.95 257.47 231.75 256.56 247.81 255.85C263.72 255.14 279.88 254.64 296.07 254.42C302.87 254.32 309.66 254.27 316.44 254.27C331.61 254.28 345.43 253.3 359.01 252.66C358.23 246.57 358.09 240.37 358.39 234.18Z" fill="#B3B3B3"/>
<path d="M316.47 254.27C291.26 246.27 265.96 239.01 240.68 232.49C236.03 232.55 231.31 232.61 226.53 232.71C249.65 240.63 272.86 248.16 296.1 254.41C302.9 254.32 309.68 254.26 316.47 254.27Z" fill="#CCCCCC"/>
<path d="M200.66 258.52C185.85 253.31 169.25 248.89 158.81 245.31C150.64 242.52 141.9 239.79 132.93 237.01C130.45 237.21 125.03 237.66 124.79 237.68C145.14 245.51 165.9 252.82 186.53 259.53C191.2 259.19 195.91 258.84 200.66 258.52Z" fill="#CCCCCC"/>
<path d="M111.11 238.94C92.94 240.72 75.28 242.96 58.75 245.76C76.79 251.08 94.71 258.09 111.39 266.41C129.7 264.44 150.24 262.44 172.23 260.65C154.45 252.44 132.14 245.06 111.11 238.94Z" fill="#CCCCCC"/>
<path d="M362.812 271.724C374.656 264.447 376.834 246.467 367.678 231.564C358.521 216.662 341.497 210.481 329.654 217.758C317.81 225.035 315.632 243.015 324.788 257.917C333.945 272.82 350.969 279.001 362.812 271.724Z" fill="#242424"/>
<path d="M358.282 273.313C370.125 266.036 372.304 248.056 363.147 233.154C353.991 218.252 336.967 212.07 325.123 219.347C313.279 226.625 311.101 244.605 320.257 259.507C329.414 274.409 346.438 280.59 358.282 273.313Z" fill="#242424"/>
<path d="M348.89 243.85C350.51 247.96 354.55 250.75 358.8 251.92C363.06 253.11 367.57 252.92 371.98 252.64C390.26 251.47 408.43 248.81 426.48 245.65C426.83 245.58 427.19 245.53 427.55 245.46C429.03 245.2 430.65 244.86 431.59 243.68C432.46 242.59 432.5 241.08 432.51 239.69C432.53 232.37 431.31 223.38 424.46 220.76C422.28 219.92 419.89 219.95 417.53 220.15C417.13 220.18 416.73 220.22 416.33 220.26C405.81 221.3 395.37 223.08 384.94 224.86C377.97 226.05 371.01 227.23 364.05 228.43C356.55 229.7 344.79 233.45 348.89 243.85Z" fill="#1A1A1A"/>
<path d="M417.52 220.15C417.5 226 420.74 238.91 426.48 245.65C426.83 245.58 427.19 245.53 427.55 245.46C429.03 245.2 430.65 244.86 431.59 243.68C432.46 242.59 432.5 241.08 432.51 239.69C432.53 232.37 431.31 223.38 424.46 220.76C422.27 219.92 419.88 219.95 417.52 220.15Z" fill="#333333"/>
<path d="M412.48 242.61C413.6 243.44 413.27 245.18 412.74 246.47C410.86 251.03 407.73 255.2 403.43 257.6C399.13 260 393.57 260.41 389.29 257.97C386.07 256.14 383.83 252.94 382.29 249.56C377.4 238.85 379.05 225.46 386.39 216.25C389.64 212.17 394.45 208.73 399.65 209.19C405.97 209.75 410.42 215.78 412.54 221.76C414.68 227.81 415.33 234.39 414.42 240.74L412.48 242.61Z" fill="#D6A99A"/>
<path d="M520.46 237.47C495.91 216.71 466.1 201.05 434.1 197.93C430.03 197.53 425.86 197.35 421.92 198.44C416.35 199.99 411.73 203.97 408.16 208.53C391.51 229.78 398.79 265.32 422.46 278.3C440.39 288.13 498.58 281.71 518.34 286.99C538.48 292.37 557.24 341.02 576.72 318.72C592.65 300.5 533.58 248.57 520.46 237.47Z" fill="#1A1A1A"/>
<path d="M451.38 515.85C450.15 523.39 448.93 530.93 447.7 538.46C447.15 541.87 446.55 545.39 444.8 548.27C441.76 553.28 436 555.28 430.77 557.28C424.02 559.86 417.47 563 411.17 566.65C407.87 568.57 404.42 570.89 403.05 574.67C417.4 572.21 431.74 569.76 446.09 567.3C448.4 566.9 450.91 566.39 452.39 564.45C453.38 563.16 453.73 561.45 454.06 559.8C456.45 547.74 458.84 535.67 461.23 523.61C462.04 519.54 462.68 514.75 460.07 511.61L451.38 515.85Z" fill="#1A1A1A"/>
<path d="M463.84 514.7C465.68 516.46 467.4 518.39 467.92 520.82C468.72 524.57 466.29 529.27 461.97 532.32C457.65 535.38 451.68 536.63 447.34 535.39C443.46 534.28 441.11 531.45 439.7 528.37C438.3 525.31 438.07 521.02 441.83 518.23C443.49 517 445.59 516.35 447.6 515.81C453.76 514.18 459.99 513.23 466.01 513.02L463.84 514.7Z" fill="#333333"/>
<path d="M535.96 422.5C525.68 412.01 452.63 381.92 438.16 379.42C429.49 377.92 420.04 378.76 412.77 383.74C405.1 388.99 400.93 398.05 398.59 407.04C391.55 434.19 398.2 462.79 404.84 490.04C408.02 503.07 412.52 517.77 424.7 523.37C430.55 526.06 437.25 526.09 443.67 525.62C450.11 525.15 456.51 524.21 462.82 522.82C467.29 521.83 471.83 520.56 475.44 517.74C481.66 512.87 483.85 504.19 482.91 496.35C481.98 488.51 478.41 481.26 474.9 474.18C479.48 483.42 601.52 518.31 609.59 513.04C616.35 508.62 537.99 451.99 537.45 444.14C535.96 422.5 550.87 437.7 535.96 422.5Z" fill="#1A1A1A"/>
<path d="M804.96 561.73C808.27 564.81 823.08 578.63 824.82 582.8C826.56 586.97 826.16 592.39 822.68 595.26C811.49 598.08 799.64 598.25 788.37 595.75C787.92 591.92 791.83 589.01 795.51 587.88C799.19 586.75 803.35 586.37 806.16 583.73C791.01 575.01 777.7 563.11 767.35 549.03C756.28 533.97 770.08 532.13 780.31 538.8C793.37 547.32 793.55 551.12 804.96 561.73Z" fill="#1A1A1A"/>
<path d="M795.22 551.66C794.96 551.98 794.67 552.28 794.4 552.58L787.36 560.03C785.57 561.92 783.5 563.93 781.17 564.85C780.03 565.31 778.82 565.52 777.56 565.32C774.9 564.92 772.87 562.84 771.03 560.88C769.83 559.59 764.48 553.84 763 552.25C762.55 551.78 762.09 551.28 761.93 550.64C761.79 550.1 761.88 549.53 761.99 548.98C762.4 547.01 763.1 545.11 764.04 543.34C765.18 541.17 766.66 539.2 768.45 537.52C769.2 536.81 769.96 536.02 770.71 535.2C774.07 531.58 777.54 527.46 781.52 527.85C782.32 527.92 783.14 528.19 783.99 528.67C784.55 528.99 785.38 529.88 786.34 531.1C786.39 531.14 786.41 531.19 786.44 531.22C790.27 536.09 796.19 546.03 796.57 548.06C796.8 549.39 796.1 550.6 795.22 551.66Z" fill="#333333"/>
<path d="M786.45 530.75C786.41 530.87 786.38 530.99 786.34 531.11C786.34 531.12 786.34 531.15 786.33 531.16C785.39 534.33 784.11 537.38 782.52 540.27C779.66 545.5 775.82 550.2 771.26 554.05C770.04 555.1 768.76 556.09 767.43 557.01C763.95 559.42 760.14 561.38 756.13 562.77C738.73 568.78 719.06 564.14 703.23 554.74C692.26 548.24 629.45 527.51 587.76 510.89C587.75 510.89 587.74 510.89 587.72 510.88C584.64 509.66 581.66 508.45 578.84 507.27C564.79 501.41 554.35 496.3 551.16 492.85C538.13 478.76 547.13 469.45 551.76 459.22C554.88 452.37 556.03 445.07 547.3 435.62C544.85 432.96 551 427.79 551.41 424.03C551.47 423.51 551.42 423.02 551.22 422.56C548.51 416.4 587.74 424.33 589.52 417.85C590.96 412.62 591.7 406.69 592.7 401.5C593.59 396.93 594.66 392.92 596.56 390.48C597.78 388.91 599.36 387.98 601.45 387.97C604.18 387.96 607.78 389.51 612.65 393.2C616.01 395.76 619.32 398.11 622.58 400.32C624.34 401.52 626.1 402.67 627.84 403.79C630.87 405.75 633.87 407.6 636.84 409.41C637.35 409.73 637.88 410.05 638.39 410.35C644.86 414.3 651.24 418.08 657.67 422.27C659.54 423.49 661.42 424.75 663.29 426.05C668.02 429.36 672.8 432.98 677.67 437.14C691.19 448.69 726.42 463.23 742.37 471.17C757.18 478.55 774.17 484.53 782.8 498.64C788.57 508.1 789.48 520.08 786.45 530.75Z" fill="#242424"/>
<path d="M664.01 387.5C663.56 392.83 662.89 398.12 661.97 403.36C660.87 409.76 659.44 416.09 657.66 422.27C657.12 424.19 656.55 426.09 655.94 427.98C655.24 430.16 654.5 432.32 653.73 434.47C647.5 451.6 638.76 467.42 627.9 480.93C621.48 488.92 613.56 496.5 604.09 496.95C600.71 497.11 597.39 496.34 594.14 495.06C590.67 493.72 587.3 491.83 584.03 489.92C570.53 482.07 582.52 502.27 578.84 507.29C578.34 507.98 577.54 508.38 576.36 508.39C575.27 508.4 573.85 508.08 572.02 507.35C527.28 489.41 516.03 442.59 517.71 431.33C518.53 425.86 521.98 421.24 524.2 416.39C524.4 415.97 524.6 415.53 524.76 415.09C525.8 412.56 526.41 409.95 526.07 407.1C525.91 405.65 525.5 404.28 524.96 402.96C524.46 401.72 523.85 400.53 523.22 399.36C520.6 394.52 517.75 387.72 514.58 381.17C513.41 378.74 512.2 376.34 510.93 374.08C508.72 370.13 507.03 365.89 505.87 361.47C504.41 355.96 503.79 350.2 504 344.44C504.04 343.42 504.1 342.41 504.19 341.38C504.55 337.3 504.91 333.3 505.25 330.04C505.59 326.69 505.87 324.13 506.07 323.07C508.5 310.04 512.21 299.31 518.33 287C522.19 279.23 527.7 272.98 533.97 267.76C534.59 267.25 535.22 266.74 535.86 266.25C538.78 263.97 541.84 261.88 544.95 259.97C546.44 259.06 547.93 258.17 549.43 257.34C551.9 255.94 554.41 254.62 556.96 253.37C570.12 246.92 584.19 242.55 598.37 241.93C601.67 241.78 604.97 241.84 608.27 242.14C611.48 242.41 614.67 242.9 617.86 243.63C626.89 245.68 636.05 249.9 642.04 258.17C646.06 263.73 648.32 270.62 650.17 277.6C650.53 278.95 650.87 280.3 651.21 281.63C653.76 291.8 656.18 302.09 658.24 312.45C663.19 337.23 666.11 362.44 664.01 387.5Z" fill="#242424"/>
<path d="M558.38 338.75C556.02 313.9 533.65 264.62 527.27 240.24C535.38 232.75 546.04 251.39 554.66 247.2C564.49 272.17 576.86 321.94 575.04 323.19C562.28 331.93 571.12 330.02 558.38 338.75Z" fill="#333333"/>
<path d="M602.11 235.05C608.59 242.51 615.08 249.96 621.56 257.42C589.89 297.26 564.13 340.96 545.22 386.92C539.06 401.88 522.14 403.59 522.45 386.89C522.69 373.54 539.74 352.69 545.94 340.79C549.76 333.45 567.98 298.06 602.11 235.05Z" fill="#333333"/>
<path d="M667.42 423.7C666.31 424.64 664.92 425.41 663.29 426.05C661.22 426.87 658.73 427.5 655.95 427.97C653.34 428.42 650.46 428.74 647.37 428.99C641.33 429.48 634.54 429.7 627.52 430.04C602.71 431.26 576.79 429.22 551.41 424.03C545.8 422.89 540.24 421.6 534.71 420.15C533.75 419.9 532.89 419.68 532.13 419.48C527.14 418.19 526.07 417.92 524.2 416.37C523.21 415.53 521.98 414.34 519.79 412.41C519.74 412.37 519.69 412.32 519.63 412.27C520.32 409.15 518.47 405.29 516.35 401.22C512.72 394.24 508.28 386.65 514.59 381.14C515.33 380.5 516.23 379.88 517.29 379.29C520.67 380.58 521.27 382.02 522.86 383.41C523.61 384.07 524.58 384.72 526.19 385.33C531.68 387.41 537.19 389.52 542.79 391.41C545.15 392.22 547.53 392.98 549.93 393.69C551.62 394.2 553.33 394.68 555.04 395.13C555.95 395.37 556.86 395.59 557.77 395.82C563.19 397.13 568.66 398.14 574.16 399C580.27 399.95 586.42 400.71 592.52 401.46C592.58 401.47 592.64 401.47 592.71 401.49C602.88 402.74 613.09 403.39 623.21 403.67C624.76 403.71 626.31 403.75 627.84 403.77C639.38 403.96 650.8 403.71 661.97 403.33C662.59 403.3 663.21 403.29 663.83 403.27C662.53 409.8 663.69 417.32 667.42 423.7Z" fill="#333333"/>
<path d="M717.93 142.1C717.93 142.95 717.92 143.8 717.9 144.63C717.86 146.64 717.76 148.64 717.63 150.62C717.11 158.42 715.89 166.04 714.03 173.39C712.63 178.95 710.87 184.36 708.76 189.61C707.07 193.84 705.16 197.95 703.04 201.94C697.52 212.33 695.82 224.38 698.92 235.67C698.97 235.87 699.02 236.07 699.08 236.27C699.37 237.27 699.58 238.27 699.69 239.29C699.79 240 699.83 240.74 699.83 241.46C699.83 242.28 699.77 243.11 699.64 243.93C698.09 255.2 686.02 265.24 667.57 272.28C662.26 274.31 656.43 276.1 650.17 277.57C636.24 280.89 620.19 282.76 603.12 282.74C602.95 282.74 602.76 282.74 602.58 282.73C593.59 282.71 585.21 282.08 577.41 280.96C573.1 280.36 568.97 279.6 565 278.7C563.85 278.45 562.72 278.18 561.59 277.89C552.49 275.63 544.3 272.65 536.93 269.19C535.93 268.72 534.93 268.24 533.97 267.74C532.87 267.2 531.8 266.64 530.74 266.05C500.78 249.86 486.12 225.65 480.3 211.18C479.66 209.61 479.14 208.15 478.7 206.82C476.45 202.97 474.41 199.03 472.57 194.97C471.66 192.95 470.8 190.91 469.97 188.85C469.97 188.82 469.96 188.79 469.93 188.76C469.12 186.7 468.37 184.62 467.67 182.51C467.32 181.45 466.98 180.38 466.65 179.3C465.99 177.15 465.39 174.98 464.85 172.78C464.65 171.96 464.45 171.13 464.26 170.3C463.69 167.82 463.2 165.29 462.8 162.75C462.41 160.49 462.1 158.21 461.86 155.91C461.71 154.57 461.59 153.24 461.5 151.89C461.09 146.8 461 141.6 461.21 136.36C461.57 127.7 462.81 119.26 464.83 111.12C465.38 108.91 465.98 106.71 466.65 104.53C467.1 103.08 467.57 101.65 468.06 100.22C468.38 99.2699 468.73 98.3299 469.08 97.3899C469.6 95.9399 470.17 94.5199 470.75 93.1099C471.04 92.4199 471.31 91.7499 471.61 91.0899C471.91 90.4199 472.2 89.7499 472.5 89.0799C473.54 86.8199 474.63 84.5999 475.8 82.3999C476.14 81.7399 476.5 81.08 476.86 80.41C477.22 79.75 477.58 79.0999 477.96 78.4499C478.46 77.5899 478.97 76.73 479.48 75.88C480.93 73.48 482.45 71.1499 484.05 68.8599C484.54 68.1499 485.02 67.4599 485.52 66.7799C485.71 66.5199 485.89 66.2699 486.08 66.0099C489.09 61.9399 492.34 58.04 495.79 54.35C497.05 52.99 498.35 51.67 499.66 50.38C513.74 36.56 530.97 25.9499 550.11 19.7299C552.02 19.1099 553.96 18.52 555.92 17.99C559.82 16.93 563.8 16.0399 567.83 15.3399C570.85 14.8199 573.92 14.4 577.01 14.1C580.11 13.8 583.23 13.6099 586.37 13.5399C588.52 13.4899 590.66 13.4899 592.8 13.5399C593.8 13.5599 596.13 13.6599 596.3 13.6799C597.32 13.7399 598.35 13.8 599.37 13.88C600.46 13.97 601.53 14.0499 602.62 14.1699C603.69 14.2799 604.77 14.4099 605.84 14.5399C606.9 14.6599 607.96 14.8099 609.01 14.9799C610.07 15.1399 611.12 15.3199 612.16 15.4999C612.22 15.4999 612.3 15.5099 612.36 15.5399C613.27 15.6999 615.47 16.1299 615.66 16.1799C616.38 16.3299 617.1 16.4799 617.81 16.6399C618.21 16.7299 618.6 16.81 618.98 16.91C621.71 17.55 624.42 18.2699 627.08 19.0899C627.57 19.2299 628.05 19.39 628.54 19.55C629.25 19.76 629.98 19.9999 630.67 20.2499C631.46 20.5099 632.24 20.79 633.02 21.07C633.33 21.17 633.64 21.2799 633.94 21.3899C634.83 21.7099 635.7 22.0499 636.57 22.3999C636.76 22.4599 636.93 22.5399 637.11 22.6199C637.46 22.7399 637.8 22.88 638.13 23.02C638.58 23.19 639.03 23.38 639.47 23.57C640.58 24.04 641.67 24.52 642.75 25.02C643.44 25.33 644.12 25.6599 644.8 25.9799C645.64 26.3799 646.46 26.7799 647.28 27.1999C647.69 27.3999 648.1 27.61 648.5 27.82C649.24 28.19 649.96 28.5799 650.68 28.9799C651.52 29.4299 652.34 29.88 653.15 30.35C654.29 31 655.4 31.6599 656.5 32.3399C657.22 32.7799 657.94 33.2299 658.65 33.6799C658.71 33.7299 658.77 33.7699 658.82 33.7899C659.54 34.2599 660.28 34.7399 661 35.2299C661.19 35.3699 661.37 35.4899 661.56 35.6199C662.17 36.0299 662.78 36.46 663.38 36.88C665.48 38.35 667.51 39.89 669.51 41.49C670.06 41.93 670.61 42.3599 671.15 42.8099C671.46 43.0699 674.15 45.3599 674.72 45.8699C675.37 46.4399 678.65 49.5199 678.74 49.5899C679.3 50.1299 679.85 50.6799 680.39 51.2299C681 51.8399 681.61 52.4699 682.21 53.0899C682.81 53.7099 683.4 54.34 683.98 54.99C684.35 55.39 684.73 55.8 685.09 56.21C685.49 56.65 685.88 57.08 686.25 57.52C686.66 57.98 687.06 58.4399 687.46 58.9199C688.01 59.5699 688.55 60.22 689.08 60.88C689.63 61.55 690.18 62.2299 690.7 62.9199C691.24 63.6099 691.76 64.29 692.29 64.99C693.31 66.36 694.32 67.7499 695.3 69.1699C695.33 69.2099 695.35 69.23 695.36 69.27C695.85 69.97 696.32 70.67 696.78 71.38C697.25 72.1 699.11 75.0499 699.55 75.7899C700.46 77.2899 701.34 78.81 702.17 80.35C702.52 81 703.39 82.6299 703.48 82.7999C703.79 83.4099 704.59 85.0099 704.68 85.1799C705.04 85.8999 705.39 86.6399 705.73 87.3599C706.49 88.9499 707.2 90.5599 707.88 92.1799C708.57 93.7999 709.22 95.44 709.83 97.1C710.13 97.92 710.43 98.7499 710.73 99.5799C711.02 100.42 711.3 101.25 711.58 102.1C711.85 102.95 712.12 103.79 712.38 104.65C713.03 106.75 713.6 108.86 714.13 110.99C714.43 112.18 714.7 113.36 714.95 114.56C715.01 114.85 715.07 115.13 715.14 115.42C715.23 115.86 715.33 116.29 715.4 116.73C715.56 117.47 715.7 118.22 715.82 118.96C715.84 119.07 715.87 119.18 715.88 119.3C716.02 120.04 716.14 120.77 716.25 121.52C716.33 121.93 716.39 122.36 716.45 122.77C716.46 122.88 716.49 122.99 716.5 123.09C716.77 124.96 717 126.85 717.2 128.75C717.29 129.6 717.36 130.45 717.42 131.31C717.79 134.9 717.93 138.48 717.93 142.1Z" fill="#1A1A1A"/>
<path d="M717.51 131.35C706.15 126.89 693.58 133.95 681.4 132.41C669.5 130.91 657.4 129.45 645.36 128.58C615.86 126.44 586.61 127.91 560.96 141.45C559.21 142.36 557.49 143.34 555.78 144.37C547.88 149.16 540.44 154.72 533.62 160.96C519.55 173.82 507.96 189.84 502.48 208.1C500.92 213.26 500.13 217.95 500.38 222.49C500.64 227.6 502.23 232.48 505.49 237.56C510.78 245.79 526.96 259.45 530.75 266.06C520.38 263 490.25 250.83 484.23 241.85C477.14 231.25 469.77 219.73 470.25 207.01C470.25 206.95 470.25 206.89 470.26 206.82C470.42 202.77 471.38 198.85 472.58 194.98C471.67 192.96 470.81 190.92 469.98 188.86C469.98 188.83 469.97 188.8 469.94 188.77C469.14 186.71 468.39 184.63 467.68 182.52C467.33 181.46 466.99 180.39 466.66 179.31C466.01 177.16 465.41 174.99 464.86 172.79C464.05 169.49 463.36 166.15 462.81 162.75C462.44 160.49 462.12 158.21 461.87 155.91C461.17 149.53 460.96 142.99 461.23 136.35C461.75 123.77 464.13 111.63 468.07 100.22C468.39 99.27 468.74 98.33 469.09 97.39C469.63 95.95 470.19 94.53 470.78 93.12C471.34 91.76 471.92 90.41 472.52 89.08C473.56 86.82 474.65 84.6 475.82 82.4C476.52 81.06 477.24 79.75 477.98 78.45C478.48 77.59 478.99 76.73 479.5 75.88C480.95 73.48 482.47 71.15 484.07 68.86C484.56 68.15 485.04 67.46 485.54 66.78C485.73 66.52 485.91 66.27 486.1 66.01C489.11 61.94 492.36 58.04 495.81 54.35C497.07 52.99 498.37 51.67 499.68 50.38C513.76 36.56 530.99 25.95 550.13 19.73C552.04 19.11 553.98 18.52 555.94 17.99C559.85 16.92 563.82 16.03 567.85 15.34C570.87 14.82 573.94 14.4 577.03 14.1C580.13 13.79 583.25 13.6 586.39 13.53C588.55 13.48 590.7 13.48 592.82 13.54C593.82 13.56 596.15 13.66 596.32 13.68C597.34 13.74 598.37 13.8 599.39 13.88C600.48 13.97 601.55 14.05 602.64 14.17C603.71 14.28 604.79 14.41 605.86 14.54C607.98 14.8 610.09 15.11 612.18 15.5C612.24 15.5 612.32 15.51 612.38 15.54C613.29 15.7 615.49 16.13 615.68 16.18C616.4 16.33 617.12 16.48 617.83 16.64C618.23 16.73 618.62 16.81 619 16.91C621.73 17.55 624.44 18.27 627.1 19.09C627.59 19.23 628.07 19.39 628.56 19.55C629.27 19.76 630 20 630.69 20.25C631.48 20.51 632.26 20.79 633.04 21.07C633.35 21.17 633.66 21.28 633.96 21.39C634.85 21.71 635.72 22.05 636.59 22.4C636.78 22.46 636.96 22.54 637.15 22.61C637.94 22.92 638.71 23.25 639.48 23.57C640.59 24.04 641.68 24.52 642.76 25.02C643.45 25.33 644.13 25.66 644.81 25.98C645.65 26.38 646.47 26.78 647.29 27.2C647.7 27.4 648.11 27.61 648.51 27.82C649.25 28.19 649.97 28.58 650.69 28.98C651.53 29.43 652.35 29.88 653.16 30.35C654.3 31 655.41 31.66 656.51 32.34C657.23 32.78 657.95 33.23 658.66 33.68C658.72 33.73 658.78 33.77 658.83 33.79C659.55 34.26 660.29 34.74 661.01 35.23C661.2 35.37 661.38 35.49 661.57 35.62C662.18 36.03 662.79 36.46 663.39 36.88C665.49 38.35 667.52 39.89 669.52 41.49C670.07 41.93 670.62 42.36 671.16 42.81C671.47 43.07 674.16 45.36 674.73 45.87C675.38 46.44 678.66 49.52 678.75 49.59C679.31 50.13 679.86 50.68 680.4 51.23C681.01 51.84 681.62 52.47 682.22 53.09C682.82 53.71 683.41 54.34 683.99 54.99C684.36 55.39 684.74 55.8 685.1 56.21C685.5 56.65 685.89 57.08 686.26 57.52C686.67 57.98 687.07 58.44 687.47 58.92C688.02 59.57 688.56 60.22 689.09 60.88C689.64 61.55 690.19 62.23 690.71 62.92C691.25 63.61 691.77 64.29 692.3 64.99C693.32 66.36 694.33 67.75 695.31 69.17C695.34 69.21 695.36 69.23 695.37 69.27C695.86 69.97 696.33 70.67 696.79 71.38C697.26 72.1 699.12 75.05 699.56 75.79C700.47 77.29 701.35 78.81 702.18 80.35C702.53 81 703.4 82.63 703.49 82.8C703.8 83.41 704.6 85.01 704.69 85.18C705.05 85.9 705.4 86.64 705.74 87.36C706.49 88.95 707.2 90.56 707.89 92.18C708.56 93.8 709.21 95.44 709.84 97.1C710.14 97.92 710.44 98.75 710.74 99.58C711.03 100.42 711.31 101.25 711.59 102.1C711.86 102.95 712.13 103.79 712.39 104.65C712.9 106.35 713.38 108.06 713.83 109.79C713.93 110.19 714.04 110.59 714.13 111C714.43 112.17 714.7 113.36 714.97 114.56C715.03 114.85 715.09 115.13 715.16 115.42C715.25 115.86 715.35 116.29 715.42 116.73C715.58 117.47 715.72 118.22 715.84 118.96C715.86 119.07 715.89 119.18 715.9 119.3C716.04 120.04 716.16 120.77 716.27 121.52C716.35 121.93 716.41 122.36 716.47 122.77C716.48 122.88 716.51 122.99 716.52 123.09C716.79 124.96 717.03 126.85 717.22 128.75C717.36 129.64 717.43 130.5 717.51 131.35Z" fill="#242424"/>
<path d="M720.57 142.34C719.7 143.14 718.81 143.9 717.91 144.64C700.52 158.8 678.55 160.07 646.11 156.06C630.25 154.1 611.9 150.89 590.37 147.32C580.27 145.65 570.41 143.67 560.97 141.45C513.4 130.23 476.35 112.55 470.81 93.13C470.06 90.51 469.89 87.87 470.32 85.23C470.54 83.92 471.29 81.97 472.39 79.82C472.39 79.81 472.4 79.8 472.4 79.78C473.95 76.77 476.18 73.36 478.63 70.8C480.27 69.09 481.99 67.75 483.66 67.14C484.31 66.9 484.93 66.78 485.56 66.78C497.52 88.97 539.47 110.43 594.96 119.64C612.65 122.59 629.41 124.42 644.61 125.01C676.25 126.21 701.23 121.99 714.17 111.03C714.53 110.72 714.87 110.42 715.21 110.11C721.32 113.76 714.69 119.95 717.96 124.92C722.38 131.6 725.62 137.69 720.57 142.34Z" fill="#333333"/>
<path d="M387.86 95.57C398.12 89.19 406 79.42 416.5 73.43C432.39 64.37 453.58 65.64 468.27 76.54C473.63 80.52 478.7 85.87 485.36 86.35C486.63 70.82 481.28 53.48 469.51 42.3C457.08 30.48 438.24 26.53 421.56 30.54C404.88 34.54 390.47 45.98 381.24 60.44C375.12 70.03 371.02 81.03 363.24 89.33C355.5 97.59 341.1 103.09 331.4 94.94C348.57 104.89 370.64 106.27 387.86 95.57Z" fill="#333333"/>
<path d="M419.27 99.2999C417.18 109.63 416.88 120.54 411.61 129.89C406.34 139.24 393.7 146.4 383.26 141.91C377.96 139.63 374.41 134.91 369.42 132.11C364.43 129.31 356.13 129.73 354.61 134.89C359.82 133.31 365.42 136.08 369.5 139.42C373.58 142.76 377.14 146.87 382.17 148.86C392.19 152.83 403.43 147.01 412.1 140.96C419.07 136.1 426.12 130.48 428.64 122.83C430.17 118.18 429.87 113.2 430.89 108.43C433.56 95.8699 445.27 86.7899 458.04 82.6899C467.56 79.6299 484.59 81.7399 477.42 67.8899C470.79 55.0999 450.59 58.2699 440.24 64.9199C428.13 72.7099 421.87 86.4499 419.27 99.2999Z" fill="#333333"/>
<path d="M714.04 173.4C712.64 178.96 710.88 184.37 708.77 189.62C707.08 193.85 705.17 197.96 703.05 201.95C697.53 212.34 695.83 224.39 698.93 235.68C698.98 235.88 699.03 236.08 699.09 236.28C699.38 237.28 699.59 238.28 699.7 239.3C695.11 244.27 687.13 245.58 680.65 243.28C675.06 241.31 670.51 237.14 667.12 232.21C666.26 230.99 665.48 229.7 664.77 228.4C663.33 225.75 662.06 222.88 659.75 220.97C655.89 217.8 650.11 218.21 645.62 220.32C641.1 222.45 637.47 226 633.52 229.05C625.82 234.98 616.68 239.04 607.13 240.82C604.52 241.32 601.87 241.64 599.23 241.79C598.97 241.8 598.71 241.81 598.44 241.81C590.04 242.16 581.02 240.4 575.21 234.34C570.85 229.81 568.88 223.49 567.49 217.31C564.34 203.26 563.84 181.02 575.53 170.01C587.09 159.11 611.35 161.15 623.4 169.52C628.33 172.94 632.29 177.66 637.37 180.84C638.31 181.43 639.27 181.96 640.25 182.43C646.3 185.34 653.2 186.11 660.06 185.6C663.49 185.35 666.91 184.76 670.24 183.96C670.38 183.92 670.5 183.9 670.64 183.86C681.74 181.11 692.23 176.16 703.34 173.46C706.86 172.64 710.77 172.09 714.04 173.4Z" fill="#D6A99A"/>
<path d="M672.71 43.4199C672.52 43.4899 672.34 43.5699 672.14 43.6299C652.89 50.9599 630.84 56.4399 609.69 62.2899C603.65 63.9599 597.67 65.6699 591.86 67.4599C563.37 76.2399 532.35 82.0899 504.04 72.7299C501.98 72.0599 499.86 71.2299 498.45 69.5799C496.66 67.4799 496.41 64.4999 496.25 61.7399C496.11 59.2799 494.76 35.9499 494.23 26.7599C493.88 20.8899 493.63 14.6499 496.58 9.57992C502.22 -0.110077 515.83 -0.480083 527.01 0.339917C556.11 2.48992 585.34 4.64992 613.74 11.3299C623.55 13.6399 633.27 16.8399 642.37 21.1799C653.8 26.6399 664.26 33.8799 672.71 43.4199Z" fill="#242424"/>
<path d="M628.51 204.88C628.5 214.18 623.8 221.72 618.02 221.71C612.24 221.7 607.56 214.15 607.57 204.85C607.58 195.55 612.28 188.01 618.06 188.02C623.84 188.03 628.52 195.58 628.51 204.88Z" fill="#1A1A1A"/>
<path d="M690.98 209.9C689.99 218.5 684.85 224.97 679.5 224.35C674.15 223.73 670.63 216.26 671.62 207.66C672.61 199.06 677.75 192.59 683.1 193.21C688.44 193.82 691.97 201.3 690.98 209.9Z" fill="#1A1A1A"/>
<path d="M496.9 327.61C495.95 326.42 494.71 325.49 493.36 325.02C483.97 321.72 489.41 337.05 488.42 340.07C484.03 338.82 479.68 335.24 476.73 331.44C474.34 328.36 472.52 324.73 468.98 322.81C467.34 321.92 465.46 321.74 464.04 322.57C461.04 324.33 462.18 329 464.44 332.01C462.32 329.93 460.1 327.78 457.26 327.18C455.67 326.84 454.05 327.19 453.08 328.34C450.58 331.29 453.95 336.3 457.4 338.87C455.83 337.42 453.34 338.14 452.65 339.92C451.96 341.7 452.73 344.01 454.06 345.7C454.51 346.27 455.01 346.77 455.54 347.25C454.23 347.74 453.59 349.06 454.04 351.62C454.32 353.24 455.65 354.58 456.9 355.72C458.96 357.58 461.1 359.34 463.3 361C464.33 362.08 465.4 363.12 466.52 364.14C467.94 365.12 469.27 366.02 470.44 366.81C476.93 371.18 483.87 375.73 491.16 375.46C494.45 375.34 497.4 374.04 499.88 372.11C507.58 366.13 506.41 357.73 505.02 349.67C503.68 342.02 501.98 333.97 496.9 327.61Z" fill="#D6A99A"/>
<path d="M657.15 321.07C655.3 334.03 648.51 345.81 640.27 355.99C614.38 387.99 572.47 406.32 531.4 403.61C514.96 402.53 496.91 396.89 489.2 382.34C483.48 371.54 484.95 358.05 490.18 347C493.7 339.58 499.12 332.67 506.64 329.37C513.85 326.21 522.04 326.68 529.91 326.61C554.86 326.4 579.74 320.08 601.76 308.34C611.93 302.92 630.89 285.75 642.79 286.7C656.3 287.79 658.61 310.82 657.15 321.07Z" fill="#242424"/>
<path opacity="0.06" d="M720.57 142.34C719.7 143.14 718.81 143.9 717.91 144.64C717.87 146.65 717.77 148.65 717.64 150.63C717.12 158.43 715.9 166.05 714.04 173.4C712.64 178.96 710.88 184.37 708.77 189.62C695.96 189.06 682.6 183.84 670.24 183.99C666.76 184.03 663.36 184.49 660.06 185.63C658.72 186.07 657.41 186.63 656.11 187.32C653.59 188.64 651.12 190.45 648.27 190.47C644.15 190.49 641.03 186.6 640.24 182.47C640.14 181.93 640.08 181.41 640.05 180.87C639.86 176.21 641.86 171.79 643.36 167.37C644.61 163.67 645.51 159.9 646.09 156.07C647.48 147.02 647.09 137.69 645.34 128.59C645.12 127.39 644.87 126.21 644.59 125.03C643.57 120.59 642.22 116.22 640.61 111.98C633.91 94.35 622.89 78.7 611.05 64.03C610.59 63.46 610.13 62.89 609.68 62.31C607.75 59.86 605.95 57.28 605.14 54.28C603.24 47.33 607.3 39.86 613.09 35.58C621.47 29.39 629.48 25.18 637.14 22.67C638.91 22.08 640.65 21.6 642.36 21.2C653.8 26.66 664.26 33.9 672.71 43.44C672.52 43.51 672.34 43.5899 672.14 43.6499C672.44 43.8999 674.2 45.41 674.77 45.92C675.42 46.49 678.7 49.57 678.79 49.64C679.35 50.18 679.9 50.73 680.44 51.28C681.05 51.89 681.66 52.52 682.26 53.14C682.86 53.76 683.45 54.3899 684.03 55.0399C684.4 55.4399 684.78 55.8499 685.14 56.2599C685.54 56.6999 685.93 57.13 686.3 57.57C686.71 58.03 687.11 58.49 687.51 58.97C688.06 59.62 688.6 60.2699 689.13 60.9299C689.68 61.5999 690.23 62.28 690.75 62.97C691.29 63.66 691.81 64.3399 692.34 65.0399C693.36 66.4099 694.37 67.8 695.35 69.22C695.38 69.26 695.4 69.28 695.41 69.32C695.9 70.02 696.37 70.7199 696.83 71.4299C697.3 72.1499 699.16 75.1 699.6 75.84C700.51 77.34 701.39 78.8599 702.22 80.3999C702.57 81.0499 703.44 82.68 703.53 82.85C703.84 83.46 704.64 85.0599 704.73 85.2299C705.09 85.9499 705.44 86.69 705.78 87.41C706.54 89 707.25 90.6099 707.93 92.2299C708.62 93.8499 709.27 95.4899 709.88 97.1499C710.18 97.9699 710.48 98.8 710.78 99.63C711.07 100.47 711.35 101.3 711.63 102.15C711.9 103 712.17 103.84 712.43 104.7C713.08 106.8 713.65 108.91 714.18 111.04C714.53 110.74 714.87 110.44 715.2 110.13C721.31 113.78 714.68 119.97 717.95 124.94C722.38 131.6 725.62 137.69 720.57 142.34Z" fill="#FFF8FF"/>
<path opacity="0.06" d="M699.84 241.48C699.84 242.3 699.78 243.13 699.65 243.95C698.1 255.22 686.03 265.26 667.58 272.3C662.76 270.08 657.68 266.99 651.59 264.05C647.41 262.03 643.01 259.83 640.47 255.93C636.06 249.19 638.76 240.26 641.57 232.72C641.56 232.76 653.34 231.97 667.13 232.21C678.13 232.4 690.4 233.25 698.94 235.68C698.99 235.88 699.04 236.08 699.1 236.28C699.39 237.28 699.6 238.28 699.71 239.3C699.8 240.02 699.84 240.75 699.84 241.48Z" fill="#FFF8FF"/>
<path opacity="0.06" d="M786.45 530.75C786.41 530.87 786.38 530.99 786.34 531.11C786.39 531.15 786.41 531.2 786.44 531.23C786.4 531.21 786.37 531.18 786.33 531.16C784.71 530.17 783.1 528.98 781.52 527.85C777.46 524.97 773.64 522.58 770.37 525.59C735.84 500.96 700.74 477.11 665.11 454.09C661.96 452.05 658.63 449.81 657.31 446.31C656.36 443.79 656.61 440.95 655.82 438.38C655.37 436.91 654.65 435.62 653.74 434.46C652.05 432.34 649.76 430.63 647.37 428.99C645.73 427.85 644.06 426.74 642.54 425.54C637.9 421.89 634.59 414.39 638.4 410.33C638.62 410.08 638.89 409.84 639.17 409.62C638.4 409.55 628.37 408.6 624.14 408.18C623.82 406.68 623.5 405.18 623.22 403.67C623 402.55 622.8 401.42 622.6 400.3C621.19 392.26 620.27 384.13 619.85 375.97C619.8 375.15 619.76 374.31 619.73 373.47C604.16 374.47 588.86 379.43 575.67 387.77C570.15 391.27 563.92 395.49 557.78 395.82C555.82 395.93 553.88 395.65 551.97 394.82C551.23 394.5 550.55 394.13 549.93 393.7C547.47 392.04 545.98 389.63 545.26 386.82C543.32 379.34 546.88 369.04 552.43 362.52C554.15 360.5 556.54 358.09 559.43 355.42C580.43 336.01 628.66 302.82 649.67 307.39C653.04 308.13 655.55 309.56 657.42 311.51C657.71 311.8 657.98 312.11 658.24 312.43C663.18 337.21 666.11 362.42 664.01 387.48C663.56 392.81 662.89 398.1 661.97 403.34C662.59 403.31 663.21 403.3 663.83 403.28C662.52 409.78 663.68 417.31 667.41 423.69C666.3 424.63 664.91 425.4 663.28 426.04C668.01 429.35 672.79 432.97 677.66 437.13C691.18 448.68 726.41 463.22 742.36 471.16C757.17 478.54 774.16 484.52 782.79 498.63C788.57 508.1 789.48 520.08 786.45 530.75Z" fill="#FFF8FF"/>
</svg>
