<svg width="479" height="585" viewBox="0 0 479 585" fill="none" xmlns="http://www.w3.org/2000/svg">
<path d="M458.01 193.5C457.45 194.47 456.89 195.44 456.32 196.38C454.62 199.24 452.85 202.12 450.68 204.62C447.06 208.78 442.3 211.86 434.84 211.99C430.99 212.05 427.14 211.29 423.82 209.34C416.47 205.01 412.97 196.86 409.8 189.13C409.4 188.14 408.11 184.95 407.91 184.45C407.56 182.9 407.26 181.34 407.05 179.81C406.09 177.04 405.29 174.23 404.63 171.38C404.22 169.63 403.89 167.68 404.81 166.15C406.25 163.72 407.86 163.02 409.49 163.43C409.32 162.69 409.2 161.96 409.18 161.21C409.11 158.96 410.04 156.54 412.03 155.48C413.84 154.51 416.47 155.22 417.29 157.02C416 152.74 416.5 146.91 420.94 146.03C422.75 145.68 424.59 146.39 425.91 147.68C426.7 148.44 427.28 149.3 427.73 150.24C428.64 152.06 429.04 154.15 429.42 156.18C429.42 152.26 431.72 147.64 435.94 148.04C437.95 148.24 439.66 149.56 440.62 151.34C442.69 155.16 441.82 159.34 441.92 163.42C442.03 168.44 443.69 174.17 447.09 177.96C450.27 176.05 456.15 159.79 462.97 168.43C463.96 169.67 464.48 171.23 464.54 172.81C464.8 180.21 461.66 187.07 458.01 193.5Z" fill="#D6A99A"/>
<path d="M476.97 241.51C475.15 245.64 472.06 249.08 468.87 252.28C443.78 277.45 409.48 291.97 374.52 298.41C370.66 299.12 363.93 300.28 355.64 301.46C347.03 302.67 336.74 303.89 326.23 304.62C324.78 304.71 319.61 304.99 318.48 305.04C292.74 306.13 267.92 303.44 265.6 289.56C263.45 276.74 274.31 266.59 289.36 258.16C291.66 256.87 294.05 255.64 296.51 254.43C298.51 253.44 300.56 252.5 302.63 251.55C323.33 242.21 346.7 235.12 355.93 228.49C374.29 215.29 387.33 194.43 408.3 185.99C408.36 185.97 408.44 185.94 408.5 185.92C420.46 181.18 433.86 181.97 445.74 186.76C450.08 188.5 454.22 190.78 458.01 193.51C467.83 200.6 475.34 210.76 478 222.67C479.38 228.91 479.56 235.65 476.97 241.51Z" fill="#242424"/>
<path d="M137.33 380.97C105.92 397.62 70.02 407.52 34.72 403.36C30.23 402.83 25.6801 402.05 21.6801 399.94C16.0201 396.96 11.9699 391.56 9.18995 385.8C-3.80005 358.92 12.44 322.24 41.07 313.78C62.75 307.38 85.93 315.65 108.51 314.6C131.54 313.53 201.45 277.76 217.25 306.43C230.17 329.88 154.12 372.07 137.33 380.97Z" fill="#1A1A1A"/>
<path d="M60.7801 331.22C60.7201 329.63 60.18 328.08 59.2 326.83C52.39 318.19 46.5 334.45 43.32 336.36C39.92 332.57 38.2701 326.84 38.1501 321.81C38.0501 317.73 38.93 313.55 36.85 309.73C35.89 307.96 34.1801 306.63 32.1801 306.44C27.9401 306.04 25.6401 310.67 25.6601 314.61C25.1001 311.54 24.4901 308.35 22.1501 306.07C20.8301 304.79 18.99 304.08 17.19 304.43C12.57 305.34 12.21 311.64 13.72 315.96C13.24 313.76 10.2701 312.81 8.29008 313.87C6.31008 314.93 5.36998 317.35 5.43998 319.6C5.45998 320.35 5.58005 321.09 5.76005 321.82C4.12005 321.41 2.51999 322.12 1.07999 324.55C0.169992 326.09 0.490061 328.03 0.900061 329.78C1.56006 332.63 2.36998 335.44 3.31998 338.21C3.53998 339.75 3.83009 341.3 4.18009 342.86C4.85009 344.57 5.49998 346.16 6.06998 347.55C9.23998 355.27 12.73 363.43 20.09 367.76C23.41 369.71 27.27 370.47 31.11 370.41C43.05 370.21 48.06 362.43 52.59 354.8C56.89 347.54 61.1101 339.73 60.7801 331.22Z" fill="#D6A99A"/>
<path d="M53.26 553.23C50.36 555.93 37.3599 568.06 35.8299 571.71C34.2999 575.36 34.6499 580.12 37.7099 582.64C47.5299 585.12 57.9299 585.27 67.8199 583.07C68.2199 579.71 64.79 577.16 61.56 576.17C58.33 575.18 54.6799 574.84 52.2199 572.53C65.5099 564.88 77.19 554.44 86.27 542.08C95.98 528.87 83.87 527.25 74.9 533.11C63.42 540.58 63.27 543.91 53.26 553.23Z" fill="#1A1A1A"/>
<path d="M60.63 541.24C60.36 542.74 61.48 544.09 62.53 545.2C64.59 547.38 66.65 549.56 68.7 551.74C71.03 554.21 73.9401 556.89 77.3001 556.38C79.6301 556.03 81.42 554.2 83.03 552.47C85.38 549.95 87.73 547.43 90.08 544.91C90.47 544.49 90.87 544.05 91.02 543.49C91.14 543.02 91.06 542.51 90.96 542.03C90.15 538.21 88.1501 534.65 85.3101 531.97C81.1401 528.05 76.9201 521.18 71.6701 524.21C69.2601 525.6 61.04 538.99 60.63 541.24Z" fill="#333333"/>
<path d="M108.18 473.76C95.1901 480.23 80.28 485.48 72.71 497.86C67.64 506.16 66.83 516.68 69.5 526.03C73.18 538.92 83.43 549.75 96.11 554.12C111.38 559.39 128.63 555.33 142.52 547.08C156.41 538.84 292.94 496.52 303.9 484.66C322.99 464 260.23 463.22 279.32 442.56C281.76 439.92 274.44 434.4 275.89 431.1C278.26 425.7 243.84 432.66 242.28 426.98C238.26 412.33 240.35 391.39 221.98 405.35C201.92 420.6 184.23 427.43 164.94 443.9C153.09 454.03 122.17 466.79 108.18 473.76Z" fill="#1A1A1A"/>
<path d="M330.99 360.55C330.95 369.95 330.39 379.31 329.12 388.62C329.05 389.19 328.97 389.76 328.87 390.32C328.81 390.83 328.73 391.34 328.66 391.86C328.5 392.95 328.31 394.03 328.14 395.12C323.56 421.53 313.15 446.49 298.29 467.04C294.74 471.93 290.95 476.58 286.92 480.94C280.09 488.33 271.81 495.23 262.51 495.02C255.62 494.86 249.28 490.81 243.32 486.77C227.3 475.9 211.68 464.22 196.52 451.79C190.19 446.61 183.31 439.43 182.1 431.15C181.79 429.11 181.84 427.01 182.31 424.85C183.15 421.08 185.26 417.82 187.3 414.59C189.88 410.54 192.38 406.54 192.16 401.66C192.04 398.91 191 396.33 189.89 393.89C189.73 393.53 189.56 393.15 189.4 392.78C186.47 386.04 183.38 376.34 179.57 368.27C178.02 364.99 176.82 361.53 175.99 357.96C174.28 350.78 174.02 343.19 175.19 335.77C176.46 327.74 177.76 320 178.29 317.97C180.34 310.07 182.81 303.1 186.07 296.12C186.13 295.97 186.21 295.82 186.28 295.67C187.35 293.36 188.53 291.05 189.8 288.7C190.72 286.98 191.71 285.23 192.76 283.46C194.58 280.34 196.69 277.5 199 274.92C202.91 270.56 207.4 266.9 212.18 263.76C216.39 260.99 220.81 258.62 225.24 256.51C237.55 250.67 250.67 246.42 263.87 245.14C272.43 244.28 281.04 244.69 289.45 246.71C290.71 247.01 291.97 247.36 293.23 247.73C293.74 247.88 294.23 248.04 294.72 248.19C296.39 248.75 298.05 249.38 299.69 250.11C299.75 250.13 299.83 250.17 299.9 250.21C300.82 250.62 301.74 251.07 302.63 251.56C307.86 254.34 312.58 258.24 315.94 263.62C320.2 270.45 321.86 278.96 323.33 287.24C324.35 293.01 325.34 298.81 326.24 304.63C326.36 305.49 326.49 306.34 326.62 307.2C329.27 324.88 331.09 342.76 330.99 360.55Z" fill="#242424"/>
<path d="M231.55 337.68C220.2 319.56 196.68 308.84 182.7 292.47C185.43 283.95 188.81 275.39 193.19 269.21C209.8 284.83 237.88 318.48 237.1 320.06C231.61 331.13 237.04 326.61 231.55 337.68Z" fill="#333333"/>
<path d="M242.63 250.88C249.23 255.73 255.83 260.59 262.43 265.44C247.74 304.62 238.4 345.8 234.73 387.49C233.54 401.06 221.18 405.84 217.57 392.02C214.68 380.96 222.72 360.36 224.65 349.31C225.84 342.49 231.42 309.66 242.63 250.88Z" fill="#333333"/>
<path d="M342.3 385.72C338.67 389.37 333.65 392.47 328.13 395.11C323.72 397.23 318.99 399.04 314.41 400.59C311.89 401.44 309.37 402.26 306.82 403.04C284.93 409.81 262.29 414.13 240.06 415.84C234.72 416.25 229.41 416.5 224.13 416.61C217.41 416.75 210.91 416.98 205.07 416.92C197.79 416.86 191.56 416.33 187.29 414.57C186.28 414.16 185.38 413.67 184.59 413.1C187.82 406.61 188.45 399.15 186.72 392.86C187.61 392.83 188.49 392.8 189.38 392.76C198.58 392.42 207.96 391.99 217.4 391.26C223.07 390.84 228.75 390.3 234.44 389.64C241.79 388.77 249.15 387.66 256.48 386.23C268.68 383.86 280.96 381.47 292.78 377.48C297.62 375.84 302.34 373.96 307 371.95C311.51 370.01 315.95 367.96 320.38 365.91C325.15 363.71 323.93 361.58 328.7 359.38C329.51 359.75 330.27 360.15 330.98 360.55C342.03 366.69 340.62 374.76 341.58 382.2C341.67 382.84 341.77 383.47 341.89 384.1C342.02 384.64 342.14 385.18 342.3 385.72Z" fill="#333333"/>
<path d="M403.77 513.44C405.2 522.23 406.63 531.03 408.06 539.82C408.71 543.8 409.4 547.9 411.44 551.26C414.98 557.1 421.7 559.43 427.81 561.77C435.68 564.78 443.33 568.44 450.67 572.7C454.52 574.94 458.54 577.64 460.14 582.05C443.41 579.19 426.67 576.32 409.94 573.45C407.25 572.99 404.32 572.39 402.59 570.13C401.44 568.63 401.02 566.63 400.64 564.71C397.85 550.64 395.06 536.57 392.27 522.49C391.33 517.74 390.58 512.15 393.62 508.5L403.77 513.44Z" fill="#1A1A1A"/>
<path d="M389.23 512.1C387.08 514.15 385.07 516.4 384.47 519.24C383.54 523.61 386.37 529.09 391.41 532.66C396.45 536.23 403.42 537.69 408.48 536.24C413 534.95 415.74 531.64 417.39 528.05C419.03 524.48 419.29 519.47 414.9 516.22C412.97 514.78 410.52 514.02 408.17 513.4C400.99 511.5 393.72 510.39 386.69 510.15L389.23 512.1Z" fill="#333333"/>
<path d="M459.16 478.71C458.78 480.25 458.41 481.79 458.04 483.33C454.33 498.52 449.09 515.68 434.87 522.21C429.73 524.57 424.02 525.18 418.31 525.09C416.45 525.07 414.59 524.97 412.74 524.83C410.32 524.66 407.91 524.42 405.5 524.12C401.02 523.6 396.57 522.86 392.15 521.94C391.56 521.82 390.99 521.69 390.4 521.57C388.37 521.12 386.32 520.62 384.33 519.98C381.22 518.98 378.25 517.65 375.69 515.64C368.42 509.97 365.88 499.83 366.96 490.7C368.06 481.55 372.22 473.1 376.3 464.84C372.43 472.66 319.23 488.25 286.74 493.88C274.42 496 265.08 496.7 262.49 495.02C258.12 492.17 270.9 475.32 283.3 459.26C293.3 446.31 303.06 433.88 303.35 429.8C305.08 404.57 287.71 422.3 305.08 404.57C305.54 404.1 306.12 403.58 306.8 403.05C310.94 399.74 318.93 395.25 328.85 390.33C332.91 388.32 337.3 386.24 341.88 384.11C363.92 373.97 390.4 363.32 406.74 357.85C412.2 356.03 416.52 354.78 419.16 354.32C429.27 352.57 440.31 353.55 448.77 359.35C457.71 365.48 462.58 376.04 465.3 386.54C473.14 416.65 466.5 448.33 459.16 478.71Z" fill="#242424"/>
<path d="M332.39 152.7C332.36 153.45 332.33 154.2 332.29 154.95C332.25 155.75 332.2 156.54 332.14 157.32C332.08 158.08 331.8 161.13 331.72 161.88C331.71 162.09 331.7 162.25 331.66 162.42V162.51C331.51 163.78 331.35 165.04 331.16 166.29C331.15 166.35 331.14 166.4 331.14 166.45C331.03 167.2 330.53 170.17 330.39 170.92C330.12 172.42 329.82 173.89 329.48 175.36C329.34 175.98 328.38 179.87 328.36 179.98C328 181.35 327.61 182.71 327.2 184.07C325.95 188.28 324.48 192.4 322.79 196.4C320.76 207.55 313.51 228.82 294.72 248.16C293.92 249 293.08 249.82 292.22 250.66C288.56 254.19 284.49 257.65 279.97 260.93C274.01 265.3 267.29 269.37 259.68 272.98C252.8 276.25 245.22 279.15 236.86 281.53C229.16 283.74 220.79 285.51 211.72 286.76C211.26 286.82 210.78 286.88 210.32 286.95C203.3 287.86 196.44 288.44 189.81 288.67C187.83 288.73 185.86 288.78 183.93 288.78C146.46 289.02 117.31 278.52 112.63 261.74C112.41 260.95 112.24 260.15 112.13 259.36C112.03 258.65 111.97 257.94 111.98 257.23C111.94 256.23 112.02 255.23 112.17 254.22C113.88 242.6 110.65 230.88 103.78 221.32C97.99 213.25 93.0999 204.41 89.3199 194.98C86.5199 188.06 84.3501 180.81 82.8101 173.3C82.4101 171.38 82.06 169.44 81.75 167.48C81.63 166.67 81.5 165.86 81.39 165.03C80.9 161.51 80.58 158 80.39 154.52C80.33 153.37 80.28 152.22 80.25 151.09C80.21 149.97 80.2 148.84 80.2 147.73C80.2 147.73 80.21 145.73 80.24 144.78C80.25 143.89 80.29 143.02 80.33 142.15C80.33 141.98 80.34 141.8 80.35 141.63C80.39 140.73 80.45 139.82 80.51 138.92C80.56 138.18 80.83 135.09 80.92 134.29C80.96 133.89 81.0101 133.49 81.0601 133.09C81.1601 132.25 81.26 131.42 81.38 130.58C81.5 129.66 81.64 128.72 81.79 127.8C81.91 126.98 82.06 126.16 82.21 125.34C82.22 125.28 82.24 125.22 82.25 125.14C82.35 124.53 82.47 123.93 82.6 123.32C82.66 122.97 82.74 122.62 82.8 122.26C82.91 121.76 83.57 118.8 83.62 118.61C83.78 117.91 84.26 116.03 84.33 115.78C84.48 115.18 84.64 114.59 84.8 114.01C84.91 113.61 85.02 113.21 85.15 112.81C85.35 112.09 85.57 111.37 85.8 110.65C86.08 109.74 86.36 108.84 86.67 107.93C86.87 107.34 87.07 106.74 87.28 106.16C87.42 105.72 87.58 105.29 87.74 104.86C88.01 104.1 89.28 100.83 89.63 99.97C90 99.08 90.38 98.21 90.75 97.35C91.42 95.83 92.11 94.32 92.83 92.83C92.99 92.51 94.04 90.41 94.42 89.7C94.86 88.86 95.29 88.04 95.76 87.22C96.21 86.38 96.67 85.57 97.15 84.76C97.55 84.07 98.64 82.25 98.77 82.01C99.21 81.31 101.05 78.44 101.55 77.69C104.1 73.89 106.84 70.24 109.79 66.74C110.33 66.09 110.86 65.45 111.43 64.83C111.46 64.79 111.48 64.77 111.51 64.74C111.97 64.2 112.45 63.68 112.93 63.15C113.38 62.63 113.85 62.13 114.33 61.63C114.78 61.14 115.24 60.66 115.72 60.17C115.79 60.08 115.88 60 115.97 59.92C116.46 59.41 116.96 58.91 117.46 58.41C117.66 58.2 117.87 58 118.08 57.79C118.47 57.42 119.92 56.03 120.23 55.74C120.79 55.22 121.34 54.69 121.92 54.19C122.62 53.55 123.32 52.93 124.04 52.32C124.75 51.71 125.48 51.1 126.2 50.5C126.95 49.88 127.71 49.26 128.47 48.66C129.19 48.1 129.92 47.54 130.65 46.99C133.52 44.82 136.49 42.78 139.55 40.89C139.95 40.63 140.35 40.38 140.76 40.14C141.43 39.72 142.12 39.32 142.81 38.92C143.51 38.51 144.2 38.11 144.91 37.72C144.96 37.68 145.02 37.66 145.07 37.63C145.88 37.18 146.69 36.73 147.52 36.31C148.09 36 148.68 35.7 149.27 35.41C149.67 35.2 150.07 35 150.47 34.8C152.07 34.01 153.68 33.25 155.31 32.54C155.98 32.24 156.66 31.94 157.34 31.67C157.7 31.51 158.05 31.36 158.41 31.22C159.16 30.91 159.91 30.61 160.67 30.32C161.57 29.96 162.48 29.62 163.4 29.3C164.31 28.96 165.24 28.64 166.16 28.34C166.96 28.07 167.76 27.8 168.57 27.55C169.07 27.4 170.73 26.9 171.05 26.8C171.64 26.64 172.22 26.46 172.81 26.31C173.15 26.21 173.47 26.12 173.81 26.04C174.27 25.92 174.75 25.79 175.21 25.68C175.97 25.48 176.73 25.31 177.49 25.13C177.52 25.12 177.54 25.1 177.55 25.1C178.32 24.93 179.1 24.75 179.87 24.59C180.17 24.52 180.48 24.45 180.79 24.4C181.65 24.21 182.51 24.04 183.39 23.89C184.35 23.7 185.31 23.54 186.29 23.39C187.31 23.22 188.34 23.07 189.37 22.93C190.37 22.79 191.37 22.67 192.38 22.56C213.37 20.21 233.87 23.26 252.43 30.63C264.57 35.45 275.88 42.1 285.94 50.31C289.04 52.83 292.02 55.49 294.87 58.3C295.52 58.92 296.16 59.57 296.78 60.21C297.05 60.5 297.33 60.77 297.59 61.06C298.18 61.66 298.75 62.27 299.31 62.88C302.16 65.98 304.84 69.2 307.36 72.56C307.95 73.36 308.53 74.16 309.12 74.97C309.77 75.88 310.42 76.79 311.04 77.73C312.58 80.01 314.05 82.35 315.43 84.75C322.63 97.08 327.81 110.83 330.45 125.57C332.13 134.7 332.74 143.79 332.39 152.7Z" fill="#1A1A1A"/>
<path d="M332.39 152.7C332.36 153.45 332.33 154.2 332.29 154.95C332.25 155.75 332.2 156.54 332.14 157.32C332.08 158.08 331.8 161.13 331.72 161.88C331.7 162.07 331.68 162.22 331.66 162.37C331.67 162.38 331.66 162.4 331.66 162.42C331.51 163.72 331.35 165 331.16 166.29C331.15 166.35 331.14 166.4 331.14 166.45C331.03 167.2 330.53 170.17 330.39 170.92C330.12 172.41 329.8 173.89 329.48 175.36C329.34 175.98 328.38 179.87 328.36 179.98C328 181.35 327.61 182.71 327.2 184.07C327.66 185.08 328.11 186.09 328.54 187.1C329.65 189.81 330.56 192.57 331.06 195.48C333.22 207.8 327.56 219.99 322.06 231.24C319.49 236.48 309.95 243.64 300.26 249.74C300.07 249.85 299.89 249.96 299.7 250.09C296.52 252.09 293.32 253.96 290.37 255.61C286.17 257.94 282.48 259.83 279.98 260.95C281.34 257.6 285.29 252.27 289.46 246.68C291.93 243.37 294.48 239.98 296.61 236.84C298.37 234.27 299.84 231.88 300.79 229.86C305.52 219.71 304.49 211.01 299.83 200.78C299.42 199.87 298.98 198.96 298.53 198.07C290.64 182.23 277.86 169.11 263.29 159.01C255.82 153.84 247.86 149.42 239.52 145.8C237.72 145.01 235.91 144.29 234.09 143.63C231.09 142.53 228.07 141.6 225.04 140.8C224.03 140.53 223.02 140.28 222.01 140.05C187.68 132.07 150.8 141.44 115.68 150.77C104.03 153.87 90.85 148.67 80.4 154.52C80.34 153.37 80.29 152.22 80.26 151.09C80.22 149.97 80.21 148.84 80.21 147.73C80.21 147.73 80.22 145.73 80.25 144.78C80.26 143.89 80.3 143.02 80.34 142.15C80.34 141.98 80.35 141.8 80.36 141.63C80.4 140.73 80.46 139.82 80.52 138.92C80.57 138.18 80.8401 135.09 80.9301 134.29C80.9701 133.89 81.0199 133.49 81.0699 133.09C81.1699 132.25 81.27 131.42 81.39 130.58C81.51 129.66 81.65 128.72 81.8 127.8C81.92 126.98 82.07 126.16 82.22 125.34C82.23 125.28 82.25 125.22 82.26 125.14C82.36 124.53 82.48 123.93 82.61 123.32C82.67 122.97 82.7501 122.62 82.8101 122.26C82.9201 121.76 83.58 118.8 83.63 118.61C83.79 117.91 84.27 116.03 84.34 115.78C84.49 115.18 84.6501 114.59 84.8101 114.01C84.9201 113.61 85.03 113.21 85.16 112.81C85.36 112.09 85.5801 111.37 85.8101 110.65C86.0901 109.74 86.3701 108.84 86.6801 107.93C86.8801 107.34 87.08 106.74 87.29 106.16C87.43 105.72 87.59 105.29 87.75 104.86C88.02 104.1 89.29 100.83 89.64 99.97C90.01 99.08 90.39 98.21 90.76 97.35C91.43 95.83 92.12 94.32 92.84 92.83C93 92.51 94.0501 90.41 94.4301 89.7C94.8701 88.86 95.3 88.04 95.77 87.22C96.22 86.38 96.68 85.57 97.16 84.76C97.56 84.07 98.65 82.25 98.78 82.01C99.22 81.31 101.06 78.44 101.56 77.69C104.11 73.89 106.85 70.24 109.8 66.74C110.34 66.09 110.87 65.45 111.44 64.83C111.47 64.79 111.49 64.77 111.52 64.74C111.98 64.2 112.46 63.68 112.94 63.15C113.39 62.63 113.86 62.13 114.34 61.63C114.79 61.14 115.25 60.66 115.73 60.17C115.8 60.08 115.89 60 115.98 59.92C116.47 59.41 116.97 58.91 117.47 58.41C117.67 58.2 117.88 58 118.09 57.79C118.48 57.42 119.93 56.03 120.24 55.74C120.8 55.22 121.35 54.69 121.93 54.19C122.63 53.55 123.33 52.93 124.05 52.32C124.76 51.71 125.49 51.1 126.21 50.5C126.96 49.88 127.72 49.26 128.48 48.66C129.2 48.1 129.93 47.54 130.66 46.99C133.53 44.82 136.5 42.78 139.56 40.89C139.96 40.63 140.36 40.38 140.77 40.14C141.44 39.72 142.13 39.32 142.82 38.92C143.52 38.51 144.21 38.11 144.92 37.72C144.97 37.68 145.03 37.66 145.08 37.63C145.89 37.18 146.7 36.73 147.53 36.31C148.1 36 148.69 35.7 149.28 35.41C149.68 35.2 150.08 35 150.48 34.8C152.08 34.01 153.69 33.25 155.32 32.54C155.99 32.24 156.67 31.94 157.35 31.67C157.71 31.51 158.06 31.36 158.42 31.22C159.17 30.91 159.92 30.61 160.68 30.32C161.58 29.96 162.49 29.62 163.41 29.3C164.32 28.96 165.25 28.64 166.17 28.34C166.97 28.07 167.77 27.8 168.58 27.55C169.08 27.4 170.74 26.9 171.06 26.8C171.65 26.64 172.23 26.46 172.82 26.31C173.16 26.21 173.48 26.12 173.82 26.04C174.28 25.92 174.76 25.79 175.22 25.68C175.98 25.48 176.74 25.31 177.5 25.13C177.53 25.12 177.55 25.1 177.56 25.1C178.33 24.93 179.11 24.75 179.88 24.59C180.18 24.52 180.49 24.45 180.8 24.4C181.66 24.21 182.52 24.04 183.4 23.89C184.36 23.7 185.32 23.54 186.3 23.39C187.32 23.22 188.35 23.07 189.38 22.93C190.38 22.79 191.38 22.67 192.39 22.56C213.38 20.21 233.88 23.26 252.44 30.63C264.58 35.45 275.89 42.1 285.95 50.31C289.05 52.83 292.03 55.49 294.88 58.3C295.53 58.92 296.17 59.57 296.79 60.21C297.06 60.5 297.34 60.77 297.6 61.06C298.19 61.66 298.76 62.27 299.32 62.9C302.15 65.98 304.84 69.2 307.37 72.56C307.96 73.36 308.54 74.16 309.13 74.97C309.79 75.91 310.44 76.84 311.08 77.8C312.62 80.06 314.06 82.37 315.45 84.74C322.64 97.09 327.82 110.82 330.46 125.56C332.11 134.7 332.73 143.8 332.39 152.7Z" fill="#242424"/>
<path d="M315.46 84.7C315.4 85.17 315.31 85.62 315.21 86.09C311.08 105.23 278.34 126.54 235.05 143.27C234.73 143.39 234.4 143.52 234.08 143.64C225.18 147.06 215.85 150.27 206.24 153.24C143.83 172.53 109.73 184.6 81.74 167.48C80.77 166.91 79.8 166.27 78.84 165.61C73.31 161.76 75.66 155.4 79.08 148.31C81.61 143.04 74.3401 137.9 79.7901 133.54C80.1501 133.8 80.5301 134.05 80.9101 134.29C101.72 147.57 146.27 142.95 198.1 126.94C201.71 125.83 205.25 124.66 208.72 123.46C255.95 107.03 289.48 82.6101 297.6 61.0201C298.21 60.9301 298.85 60.9801 299.5 61.1201C301.21 61.4901 303.07 62.5701 304.88 64.0201C304.98 64.0901 305.08 64.1801 305.17 64.2601C307.79 66.4101 310.29 69.29 312.14 71.93C312.14 71.94 312.15 71.95 312.17 71.98C313.52 73.93 314.5 75.7301 314.89 76.9601C315.67 79.4801 315.85 82.06 315.46 84.7Z" fill="#333333"/>
<path d="M444.8 72.4601C430.27 80.9101 412.23 83.1501 396.51 76.1101C385.67 71.2701 376.71 62.7901 365.71 58.3401C359.24 55.7301 352.21 54.7401 345.27 55.2401C334.31 56.0401 323.58 60.5301 315.72 68.2101C314.51 69.3801 313.34 70.66 312.14 71.91C312.13 71.92 312.12 71.9301 312.1 71.9501C311.26 72.8401 310.41 73.7101 309.55 74.5301C309.41 74.6501 309.28 74.79 309.14 74.92C306.57 77.32 303.78 79.3101 300.38 80.0301C299.17 74.5401 298.81 68.68 299.33 62.85C299.37 62.26 299.43 61.6901 299.5 61.1101C299.94 57.3001 300.77 53.5301 302.01 49.8901C303.8 44.5301 306.44 39.4701 309.98 35.0601C320.52 21.9101 338.35 15.5701 355.1 17.2701C371.87 18.9601 387.41 28.1801 398.3 41.0301C405.53 49.5601 410.97 59.7201 419.65 66.7701C426.31 72.1901 436.61 75.4801 444.8 72.4601Z" fill="#333333"/>
<path d="M451.37 68.03C449.46 70.13 447.23 71.56 444.8 72.46C447.09 71.14 449.28 69.65 451.37 68.03Z" fill="#333333"/>
<path d="M366.43 83.89C369.83 93.67 371.57 104.25 377.93 112.65C384.29 121.05 397.55 126.35 407.12 120.61C411.98 117.69 414.81 112.63 419.3 109.24C423.79 105.85 431.92 105.17 434.09 109.99C428.81 109.15 423.73 112.57 420.2 116.37C416.67 120.17 413.75 124.63 409.11 127.24C399.88 132.42 388.17 128.25 378.93 123.51C371.5 119.7 363.9 115.16 360.43 108.05C358.32 103.73 357.95 98.8399 356.34 94.3299C352.08 82.4599 339.48 75.1699 326.51 72.8699C316.84 71.1499 300.54 75.45 305.69 61.03C310.45 47.7 330.54 48.1199 341.49 53.2299C354.29 59.1799 362.2 71.72 366.43 83.89Z" fill="#333333"/>
<path d="M103.77 221.33C110.64 230.88 113.87 242.61 112.16 254.23C112.02 255.24 111.94 256.24 111.97 257.24C117.1 261.47 125.04 261.69 131.04 258.61C137.52 255.28 141.94 248.83 144.53 242.02C145.58 239.26 146.43 236.29 148.44 234.12C151.77 230.53 157.45 230.16 162.11 231.62C166.79 233.1 170.79 236.07 175.04 238.52C185.59 244.58 197.98 247.35 210.11 246.39C218.57 245.73 227.48 242.84 232.5 235.97C236.15 230.97 237.23 224.56 237.76 218.37C238.96 204.28 236.51 182.57 223.68 173.39C210.98 164.3 187.65 169.49 177.03 179.24C172.67 183.22 169.45 188.33 164.92 192.1C156.3 199.32 144.13 200.65 132.94 199.44C121.77 198.23 110.91 194.8 99.73 193.65C96.19 193.29 92.3201 193.27 89.3101 194.97C93.1001 204.43 97.97 213.26 103.77 221.33Z" fill="#D6A99A"/>
<path d="M285.42 65.4501C284.27 67.2401 282.31 68.3201 280.4 69.2501C257.44 80.4501 230.95 80.6901 205.39 77.3901C201.64 76.9001 197.91 76.34 194.22 75.73C167.7 71.35 138.26 69.0501 112.93 63.1501C112.73 63.1001 112.54 63.0601 112.34 63.0101C124.86 44.3201 144.66 31.9901 165.51 24.0001C192.26 13.7401 220.43 7.76007 248.47 1.83007C259.24 -0.43993 272.54 -1.87996 279.31 6.80004C279.46 7.00004 279.61 7.20008 279.73 7.40008C282.89 11.8701 283.45 17.71 283.86 23.22C284.56 32.23 286.32 55.12 286.51 57.54C286.73 60.23 286.88 63.1601 285.42 65.4501Z" fill="#242424"/>
<path d="M176.72 214.32C177.96 223.37 183.53 230.09 189.16 229.31C194.79 228.53 198.34 220.57 197.1 211.52C195.86 202.47 190.29 195.75 184.66 196.53C179.03 197.3 175.48 205.27 176.72 214.32Z" fill="#1A1A1A"/>
<path d="M116.58 227.46C118.68 235.7 124.54 241.32 129.66 240.01C134.78 238.7 137.23 230.96 135.12 222.72C133.02 214.48 127.16 208.86 122.04 210.17C116.92 211.48 114.47 219.22 116.58 227.46Z" fill="#1A1A1A"/>
<path opacity="0.06" d="M289.77 178.22C289.95 178.39 290.12 178.56 290.29 178.73C291.23 179.64 291.76 180.65 292 181.66C294.98 186.69 297.17 192.3 298.52 198.08C299.37 201.78 299.89 205.55 300.04 209.28C300.43 218.62 299 227.82 296.59 236.85C295.62 240.51 294.49 244.13 293.24 247.72C292.9 248.71 292.55 249.69 292.2 250.67C291.75 251.89 291.29 253.1 290.83 254.31C294.63 251.96 298.41 249.58 302.16 247.15C315.14 229.39 324.06 208.71 328.51 187.11C330.2 178.99 331.24 170.77 331.64 162.5V162.41C331.64 162.38 331.65 162.37 331.64 162.36C332.74 139.38 328.84 116.22 319.49 95.1602C318.13 92.1002 316.68 89.0901 315.2 86.0801C313.83 83.3001 312.43 80.5401 311.08 77.7501C311.07 77.7201 311.06 77.7001 311.06 77.6701C310.55 76.6201 310.04 75.5701 309.55 74.5201C308.98 73.3001 308.4 72.0601 307.86 70.8201C306.9 68.6501 305.99 66.4501 305.16 64.2301C305.08 64.0301 305.01 63.8201 304.93 63.6201C304.67 62.9101 304.42 62.2001 304.18 61.4901C303.32 58.9301 302.66 54.7901 302 49.8801C300.76 53.5301 299.93 57.3001 299.49 61.1001C298.84 60.9601 298.2 60.9101 297.6 61.0001C297.33 60.7101 297.05 60.4401 296.78 60.1501C296.16 59.5101 295.52 58.8601 294.87 58.2401C292.02 55.4301 289.04 52.7701 285.94 50.2501C285.25 41.2201 284.55 32.2001 283.85 23.1801C283.44 17.6701 282.88 11.8301 279.72 7.36011C271.71 10.7201 263.8 20.2901 258.93 24.8001C257.57 26.0601 255.31 28.0501 252.43 30.5701C240.63 40.9201 218.45 60.4301 205.38 77.3601C197.36 87.7301 192.76 97.1401 196.05 102.87C199.98 109.72 204.14 116.75 208.71 123.43C212.75 129.36 217.12 135.02 221.97 140.03C222.04 140.13 222.15 140.22 222.23 140.32C223.15 140.46 224.08 140.61 225 140.78C228.38 141.39 231.73 142.22 235.03 143.24C249.2 147.58 262.46 155.36 274.29 164.6C280.54 167.73 285.73 172.49 289.77 178.22Z" fill="#FFF8FF"/>
<path opacity="0.06" d="M187.19 242.35C185.26 242.95 183.07 243.74 182.31 245.61C181.95 246.49 181.98 247.49 182.12 248.43C183.08 255.12 189 260.24 195.43 262.3C201.87 264.36 208.79 263.96 215.54 263.54C224.71 262.97 233.88 262.39 243.05 261.82C247.24 261.56 251.62 261.23 255.17 259C258.51 256.89 260.68 253.33 262.19 249.68C269.43 232.05 270.18 206.79 248.14 211.47C228.14 215.71 207.94 235.87 187.19 242.35Z" fill="#FFF8FF"/>
<path opacity="0.06" d="M476.97 241.51C475.15 245.64 472.06 249.08 468.87 252.28C443.78 277.45 409.48 291.97 374.52 298.41C370.66 299.12 363.93 300.28 355.64 301.46C366.31 290.82 380.46 283.64 393.77 276.15C408.43 267.9 422.82 258.62 433.81 245.87C443.72 234.38 450.63 219.68 450.68 204.62C450.68 202.98 450.6 201.34 450.44 199.7C449.92 194.42 448.14 190.25 445.73 186.74C436.27 172.88 417.1 169.5 427.7 150.22C428.61 152.04 429.01 154.13 429.39 156.16C429.39 152.24 431.69 147.62 435.91 148.02C437.92 148.22 439.63 149.54 440.59 151.32C442.66 155.14 441.79 159.32 441.89 163.4C442 168.42 443.66 174.15 447.06 177.94C450.24 176.03 456.12 159.77 462.94 168.41C463.93 169.65 464.45 171.21 464.51 172.79C464.8 180.18 461.65 187.05 458.01 193.48C467.83 200.57 475.34 210.73 478 222.64C479.38 228.91 479.56 235.65 476.97 241.51Z" fill="#FFF8FF"/>
<path opacity="0.06" d="M341.59 382.2C337.54 384.75 333.39 386.99 329.12 388.62C323.26 390.85 317.18 391.94 310.84 391.09C309.44 390.9 307.96 390.58 306.98 389.55C305.56 388.09 305.67 385.78 305.86 383.76C306.25 379.83 310.33 338.03 311.98 321.06C312.97 310.95 315.34 306.29 318.48 305.04C319.53 304.63 320.68 304.59 321.89 304.88C323.39 305.23 324.97 306.04 326.61 307.19C329.27 324.88 331.09 342.76 330.99 360.55C342.04 366.69 340.63 374.75 341.59 382.2Z" fill="#FFF8FF"/>
<path opacity="0.06" d="M459.16 478.71C443.29 460.07 432.66 436.96 429.1 412.74C426.13 392.44 425.47 367.37 407.19 358.04C407.05 357.97 406.9 357.9 406.77 357.83C412.23 356.01 416.55 354.76 419.19 354.3C429.3 352.55 440.34 353.53 448.8 359.33C457.74 365.46 462.61 376.02 465.33 386.52C473.14 416.65 466.5 448.33 459.16 478.71Z" fill="#FFF8FF"/>
<path opacity="0.06" d="M69.49 330.03C69.82 345.53 69.49 361.04 68.52 376.51C78.95 382.62 92.52 376.57 101.09 368.06C109.22 359.99 136.95 338.38 128.46 328.46C123.33 322.46 69.57 334 69.49 330.03Z" fill="#FFF8FF"/>
</svg>
