<svg width="629" height="673" viewBox="0 0 629 673" fill="none" xmlns="http://www.w3.org/2000/svg">
<path d="M561.27 316.98C570.86 312.42 580.44 307.86 590.03 303.3C594.37 301.24 598.83 299.08 602.02 295.48C607.56 289.23 608.07 280.16 608.78 271.84C609.7 261.12 611.43 250.47 613.94 240C615.26 234.51 617.06 228.66 621.58 225.28C623.67 246.95 625.77 268.63 627.86 290.3C628.2 293.79 628.45 297.62 626.43 300.48C625.08 302.39 622.93 303.53 620.86 304.61C605.68 312.53 590.49 320.45 575.31 328.37C570.19 331.04 564.04 333.74 558.89 331.13L561.27 316.98Z" fill="#1A1A1A"/>
<path d="M316.4 302.52C343.48 316.19 367.36 335.32 391.02 354.31C382.43 352.29 355.08 345.86 350 344.67C325.15 338.83 300.28 332.99 275.69 326.1C258.76 321.36 214.39 315.3 208.37 296.12C192.98 247.03 303.36 295.94 316.4 302.52Z" fill="#1A1A1A"/>
<path d="M184.16 321.34C187.49 323.72 192.1 322.68 195.92 321.2C215.49 313.62 231.07 296.45 236.72 276.24C238.11 271.29 238.92 265.97 237.52 261.02C236.12 256.07 232.07 251.59 226.95 251.03C223.25 250.63 219.65 252.24 216.34 253.95C202.61 261.05 159.02 303.39 184.16 321.34Z" fill="#333333"/>
<path d="M213.48 285.15C209.34 290.39 202.27 292.67 195.59 292.5C188.9 292.36 182.44 290.12 176.19 287.78C150.22 278.1 125.07 266.3 100.31 253.84C99.83 253.59 99.33 253.35 98.85 253.1C96.82 252.07 94.62 250.87 93.78 248.75C92.99 246.78 93.59 244.59 94.19 242.57C97.35 231.96 103.06 219.46 114.12 218.67C117.65 218.41 121.1 219.5 124.42 220.82C124.98 221.04 125.55 221.27 126.12 221.5C140.9 227.6 155.25 234.75 169.58 241.88C179.15 246.65 188.72 251.4 198.28 256.17C208.58 261.3 223.97 271.87 213.48 285.15Z" fill="#1A1A1A"/>
<path d="M124.43 220.82C121.9 229.3 111.57 246.58 100.31 253.84C99.83 253.59 99.33 253.35 98.85 253.1C96.82 252.07 94.62 250.87 93.78 248.75C92.99 246.78 93.59 244.59 94.19 242.57C97.35 231.96 103.06 219.46 114.12 218.67C117.66 218.41 121.11 219.5 124.43 220.82Z" fill="#333333"/>
<path d="M596.61 321.49C597.33 320.16 596.68 318.54 596.04 317.18C594.77 314.5 593.5 311.81 592.24 309.13C590.8 306.09 588.89 302.67 585.57 302.12C583.27 301.74 581.02 302.91 578.98 304.04C575.99 305.69 573.01 307.35 570.02 309C569.52 309.27 569.01 309.57 568.7 310.04C568.44 310.45 568.36 310.95 568.31 311.43C567.9 315.28 568.69 319.24 570.54 322.64C573.26 327.61 575.12 335.37 581 334.14C583.69 333.57 595.53 323.49 596.61 321.49Z" fill="#333333"/>
<path d="M592.73 351.89C590.13 360.33 581.32 364.75 573.4 368.61C529.57 389.98 446.19 458.36 408.71 464.58C407.55 464.78 406.44 464.9 405.36 464.98C395.87 465.59 410.6 449.9 401.48 442.35C397.05 438.68 391.83 424.88 387.71 409.7C387.54 409.05 387.36 408.4 387.2 407.75C383.18 392.51 380.33 376.24 380.51 367.64C380.56 365.12 380.87 363.26 381.48 362.27C383.68 358.75 386.2 355.99 389 353.84C389.24 353.65 389.49 353.47 389.74 353.29C390.36 352.83 391.01 352.4 391.68 352.02C394.6 350.23 397.76 348.99 401.11 348.11C402.16 347.84 403.22 347.59 404.29 347.39C407.55 346.75 410.94 346.4 414.44 346.19C429.28 345.29 445.78 346.85 459.97 339.91C463.98 337.95 468.38 335.23 472.95 332.11C478.09 328.63 483.45 324.63 488.72 320.7C493.4 317.2 498.02 313.73 502.37 310.69C502.86 310.33 503.34 309.99 503.83 309.67C506.34 307.93 508.74 306.35 511 305.01C518.95 300.28 527.26 295.86 536.31 293.7C542.6 292.21 549.34 291.9 555.69 293.31C558.49 293.92 561.21 294.88 563.77 296.22C568.39 298.63 572.2 302.01 575.46 306C576.3 307 577.08 308.05 577.84 309.12C580.87 313.4 583.41 318.17 585.71 322.99C586.68 325.04 587.61 327.09 588.51 329.12C588.54 329.17 588.56 329.23 588.59 329.28C591.77 336.47 595.01 344.49 592.73 351.89Z" fill="#242424"/>
<path d="M512.94 341.55C512.57 342.8 512.12 344.02 511.63 345.22C507.6 355.08 500.11 363 491.01 368.34C477.85 376.09 461.3 378.5 446.9 373.76C443.63 372.69 440.48 371.25 437.5 369.42C428.06 363.61 421.05 355.16 414.44 346.19C407.7 337.01 401.41 327.28 393.45 319.22C391.33 317.07 388.22 314.73 384.45 312.19C384.01 311.89 383.56 311.6 383.1 311.3C381.29 310.11 379.35 308.89 377.31 307.62C352.82 292.53 313.66 272.23 314.41 250.13C314.47 248.29 314.81 246.42 315.46 244.56C317.17 239.64 321.69 236.78 327.96 235.38C332.62 234.37 338.22 234.14 344.38 234.52C346.65 234.64 348.99 234.86 351.37 235.13C378.51 238.31 412.56 250.15 423.26 254.07C450.28 263.96 475.94 279.04 495.5 299.91C497.78 302.33 499.97 304.84 502.08 307.43C502.67 308.17 503.27 308.9 503.84 309.65C505.16 311.34 506.44 313.06 507.67 314.81C510.25 318.47 512.69 322.34 513.79 326.67C515.01 331.55 514.44 336.71 512.94 341.55Z" fill="#242424"/>
<path d="M333.12 593.5C332.83 602.62 332.55 611.75 332.26 620.87C332.13 625 331.97 629.26 330.24 633.01C327.23 639.53 320.26 643.06 313.95 646.49C305.82 650.91 298.03 655.95 290.65 661.53C286.78 664.46 282.8 667.9 281.7 672.63C299.5 666.8 317.29 660.98 335.09 655.15C337.95 654.21 341.06 653.09 342.61 650.51C343.65 648.79 343.81 646.7 343.95 644.7C344.95 630.01 345.96 615.32 346.96 600.63C347.3 595.67 347.31 589.9 343.47 586.74L333.12 593.5Z" fill="#1A1A1A"/>
<path d="M328.95 617.73C329.97 618.84 331.71 618.76 333.21 618.59C336.16 618.26 339.11 617.93 342.06 617.61C345.4 617.24 349.26 616.54 350.86 613.58C351.97 611.53 351.59 609.02 351.19 606.72C350.6 603.36 350 600 349.41 596.64C349.31 596.08 349.2 595.5 348.85 595.05C348.55 594.67 348.1 594.44 347.66 594.23C344.16 592.59 340.15 592.05 336.34 592.7C330.76 593.66 322.81 592.9 322.07 598.86C321.73 601.59 327.41 616.06 328.95 617.73Z" fill="#333333"/>
<path d="M303.94 539.91C301.31 554.04 296.58 568.96 301.86 582.32C305.4 591.28 313.24 598.18 322.23 601.65C334.62 606.42 349.29 604.77 360.3 597.35C373.57 588.42 380.64 572.36 382.4 556.46C384.16 540.56 422.5 429.4 419.66 413.66C414.7 386.25 396.03 435.11 391.07 407.7C390.44 404.19 362.29 419.51 360.55 416.4C357.7 411.31 352.32 408.16 346.89 406C332.91 400.45 296.58 395.26 296.68 418.1C296.78 443.05 304.58 468.65 306.11 493.72C307.03 509.14 306.77 524.7 303.94 539.91Z" fill="#1A1A1A"/>
<path d="M224.39 315.77C215.7 320.2 206.2 308.4 196.6 310.09C194.09 310.53 191.84 311.88 189.79 313.39C179.77 320.76 173.27 332.71 172.53 345.13C171.79 357.55 176.83 370.19 185.91 378.69C194.32 386.57 205.51 390.68 216.47 394.25C223.61 396.58 230.94 398.79 238.45 398.7C254.71 398.5 269.33 387.23 277.43 373.13C285.53 359.03 288.11 342.46 289.28 326.23C290.12 314.48 290.28 302.47 287.05 291.14C282.65 275.68 269.46 252.9 251.7 260.64C235.2 267.83 224.82 299.76 224.39 315.77Z" fill="#1A1A1A"/>
<path d="M203.73 319.67C204.79 308.2 190.39 299.72 179.54 303.6C168.69 307.49 162.62 319.63 162.2 331.15C161.94 338.15 163.92 346.01 169.92 349.62C179.31 355.28 190.97 347.2 198.03 338.81C202.43 333.58 206.42 325.6 201.9 320.48C201.99 322.04 202.08 323.61 202.17 325.17L203.73 319.67Z" fill="#D6A99A"/>
<path d="M209.36 317.02C211.14 319.9 212.69 323.31 211.81 326.58C210.93 329.85 206.44 332.08 204 329.73C204.04 335.45 203.05 342.66 197.57 344.3C195.85 344.82 193.93 344.63 192.32 345.44C190.83 346.18 189.84 347.65 188.48 348.62C185.3 350.88 180.64 349.82 177.75 347.21C174.85 344.6 173.34 340.81 172.1 337.12C170.99 333.81 170 330.42 169.81 326.93C168.32 300.19 197.34 297.52 209.36 317.02Z" fill="#D6A99A"/>
<path d="M441.14 395.22C441.28 396.8 441.89 398.33 442.93 399.53C450.15 407.83 455.25 391.31 458.33 389.25C461.91 392.88 463.83 398.52 464.19 403.53C464.48 407.6 463.81 411.82 466.07 415.54C467.11 417.26 468.89 418.51 470.9 418.6C475.15 418.8 477.23 414.06 477.02 410.13C477.73 413.17 478.49 416.33 480.94 418.49C482.32 419.7 484.19 420.33 485.98 419.89C490.55 418.76 490.61 412.45 488.89 408.2C489.47 410.37 492.49 411.18 494.42 410.03C496.35 408.88 497.17 406.41 496.99 404.17C496.93 403.42 496.78 402.69 496.56 401.96C498.22 402.29 499.79 401.51 501.1 399.01C501.94 397.43 501.52 395.5 501.03 393.78C500.23 390.97 499.29 388.19 498.2 385.48C497.91 383.95 497.54 382.41 497.11 380.88C496.36 379.2 495.63 377.65 494.99 376.29C491.45 368.73 487.57 360.75 480.02 356.78C476.61 354.99 472.72 354.42 468.88 354.67C456.97 355.44 452.33 363.46 448.17 371.29C444.24 378.74 440.39 386.74 441.14 395.22Z" fill="#D6A99A"/>
<path d="M432.54 447.5C431.32 450.9 428.47 453.44 425.55 455.55C420.42 459.25 414.81 462 408.91 463.93C407.74 464.32 406.56 464.67 405.38 464.98C387.98 469.61 368.45 467.41 351.45 460.81C331.54 453.07 314.3 440.11 297.77 426.41C297.48 426.19 297.21 425.96 296.95 425.74C296.35 425.24 290.03 419.93 287.49 417.77C285.09 415.74 282.52 413.39 282.2 410.27C281.98 408.12 282.87 406.05 283.76 404.09C288.38 393.99 293.01 383.85 298.44 374.56C301.31 369.65 304.41 364.98 307.85 360.69C307.96 360.54 308.07 360.39 308.2 360.25C314.84 352.04 322.77 345.18 332.81 340.6C336.77 338.79 341.05 337.34 345.71 336.29C347.24 335.94 348.72 335.68 350.15 335.48C350.72 335.39 351.3 335.33 351.87 335.28C357.93 334.66 363.34 335.37 369.47 337.23C370.41 337.5 371.36 337.82 372.33 338.15C376.39 339.55 383.07 341.53 390.11 343.96C392.07 344.65 394.08 345.36 396.05 346.09C397.77 346.74 399.47 347.41 401.12 348.1C402.12 348.51 403.09 348.94 404.04 349.36C410.13 352.11 415.2 355.15 417.41 358.36C418.47 359.9 418.65 361.87 418.77 363.73C419.47 373.51 420.17 383.27 420.87 393.04C421.72 404.85 422.63 416.96 427.59 427.72C430.49 434.09 434.89 440.9 432.54 447.5Z" fill="#242424"/>
<path d="M388.5 407.4C388.25 408.16 387.99 408.94 387.71 409.7C385.53 415.81 382.68 421.69 379.12 427.2C377.02 430.47 374.6 433.65 371.27 435.56C365.78 438.71 359 437.89 352.74 436.87C335.07 433.95 317.55 430.22 300.22 425.68C299.65 425.53 296.86 424.77 296.86 424.77C296.29 424.61 295.71 424.43 295.14 424.25C291.88 423.24 288.74 421.95 285.95 419.99C280.33 416.03 276.87 409.77 273.59 403.75C273 402.68 252 363.89 245.47 351.83C241.18 343.94 236.82 335.81 235.59 326.89C235.07 323.18 235.1 319.45 235.47 315.72C235.89 311.36 236.76 307.02 237.69 302.75C238.99 296.73 240.31 288.38 242.2 279.93C242.46 278.78 242.72 277.63 243.01 276.48C244.1 271.99 245.38 267.55 246.94 263.51C247.03 263.3 247.1 263.09 247.19 262.89C248.16 260.43 249.25 258.12 250.45 256.05C252.56 252.37 255.1 249.4 258.12 247.6C258.89 247.13 259.74 246.68 260.63 246.26C264.81 244.24 270.21 242.59 276.07 241.19C276.53 241.08 276.99 240.98 277.46 240.87C284.56 239.25 292.2 237.99 299.01 236.95C303.33 236.3 307.31 235.74 310.6 235.24C316.37 234.37 322.42 233.77 327.95 235.4C328.7 235.61 329.42 235.87 330.13 236.17C332.2 237.04 334.08 238.23 335.77 239.65C336.02 239.85 336.27 240.07 336.52 240.3C340.58 243.91 343.71 248.79 346.63 253.5C347.12 254.27 347.6 255.05 348.08 255.83C358.57 272.65 369.02 289.69 377.29 307.63C378.05 309.28 378.8 310.94 379.52 312.61C381.33 316.77 383 320.97 384.53 325.24C385.9 329.07 387.15 332.96 388.26 336.89C388.92 339.22 389.52 341.58 390.07 343.97C390.39 345.43 390.71 346.9 390.99 348.39C391.24 349.59 391.45 350.81 391.65 352.02C392.26 355.57 392.72 359.12 393.04 362.71C394.41 377.88 393.15 393.23 388.5 407.4Z" fill="#242424"/>
<path d="M294.46 320.08C281.63 303.24 257.47 294.79 242.21 279.91C244.14 271.27 246.69 262.52 250.46 256.03C268.25 269.93 298.97 300.57 298.35 302.2C293.92 313.62 298.87 308.68 294.46 320.08Z" fill="#333333"/>
<path d="M276.12 228.13C283.77 230.85 291.41 233.56 299.06 236.28C296.34 277.62 299.24 319.33 307.68 359.9C310.43 373.1 300.08 381.17 292.7 369.1C286.8 359.44 288.54 337.61 287.21 326.59C286.39 319.77 282.3 287.06 276.12 228.13Z" fill="#333333"/>
<path d="M396.03 346.1C394.36 346.86 383.85 351.74 382.6 352.34C374.6 356.16 366.63 360.26 358.9 364.79C353.04 368.21 347.33 371.89 341.85 375.91C333.11 382.3 324.31 388.76 316.84 396.63C315.19 398.37 313.62 400.15 312.11 401.99C308.06 406.87 304.41 412.05 300.76 417.22C298.41 420.57 299.95 422.25 298.48 425.22C298.28 425.59 298.06 425.98 297.76 426.41C297.49 426.39 297.22 426.35 296.97 426.3C280.38 424.14 277.94 412.73 270.63 405.09C270.89 403.57 271.32 402.04 271.85 400.53C274.37 393.51 279.6 386.81 284.96 381.15C288.07 377.88 291.28 374.72 294.6 371.69C298.84 367.77 303.24 364.06 307.8 360.54C307.92 360.44 308.05 360.34 308.19 360.25C317.34 353.21 327.08 346.97 337.23 341.65C341.46 339.43 345.77 337.37 350.14 335.48C350.3 335.41 350.45 335.33 350.61 335.27C351.07 335.07 358.05 332.01 360.94 330.78C370.17 326.86 378.33 323.94 384.56 325.24C384.93 325.31 385.31 325.4 385.67 325.51C386.87 332.96 390.81 340.5 396.03 346.1Z" fill="#333333"/>
<path d="M382.54 198.69C375.69 210.51 362.23 223.23 344.37 234.52C341.61 236.26 338.74 237.97 335.78 239.64C329.56 243.14 322.92 246.44 315.93 249.48C315.42 249.7 314.92 249.92 314.41 250.13C308.85 252.49 303.44 254.49 298.18 256.15C291.76 258.19 285.57 259.72 279.62 260.83C275.97 261.5 272.42 262.03 268.95 262.39C265.53 262.76 262.22 262.99 258.99 263.08C255.12 263.2 251.39 263.14 247.78 262.92C247.59 262.91 245.67 262.77 244.91 262.71C242.46 262.5 240.07 262.22 237.74 261.87C228.86 260.56 220.84 258.31 213.68 255.55C194.6 248.16 181.72 237.07 175.51 230.09C172.01 227.54 168.66 224.82 165.43 221.92C157.5 214.78 150.41 206.54 144.43 197.31C139.76 190.14 135.77 182.37 132.54 174.04C127.2 160.21 124.51 145.91 124.26 131.77C124.19 127.92 124.3 124.08 124.58 120.25C124.97 115.11 125.67 110 126.68 104.97C126.84 104.16 127.02 103.35 127.19 102.55C128.09 98.49 129.18 94.5 130.47 90.55C130.69 89.86 131.39 87.8 131.52 87.47C131.88 86.43 132.27 85.4 132.66 84.37C134.51 79.6 136.64 74.93 139.05 70.41C140.06 68.47 141.15 66.56 142.27 64.69C142.66 64.07 143.04 63.43 143.43 62.8C144.2 61.56 145 60.34 145.81 59.13C146.63 57.91 147.47 56.71 148.33 55.52C149.2 54.33 150.08 53.16 150.98 52C151.44 51.41 151.9 50.84 152.38 50.26C155.15 46.83 158.12 43.53 161.28 40.41C171.26 30.47 183.07 22.11 196.45 15.89C199.65 14.4 202.88 13.07 206.14 11.87C208.3 11.07 210.47 10.33 212.66 9.66998C215.94 8.65998 219.24 7.80997 222.54 7.08997C231.35 5.16997 240.23 4.22998 249.03 4.22998C249.78 4.22998 250.53 4.23998 251.28 4.25998C252.03 4.26998 252.79 4.27998 253.54 4.31998C254.29 4.34998 257.21 4.48998 257.92 4.53998C259.37 4.64998 260.83 4.77998 262.28 4.93998C262.37 4.94998 262.47 4.94998 262.57 4.96998C263.29 5.05998 266.22 5.41998 266.96 5.52998C267.7 5.63998 270.39 6.07998 271 6.18998C271.86 6.33998 272.72 6.49998 273.57 6.67998C275.03 6.96998 276.49 7.28998 277.94 7.63998C278.56 7.78998 280.3 8.22998 280.54 8.28998C281.68 8.57998 282.81 8.88998 283.94 9.22998C284.16 9.28998 285.91 9.81998 286.57 10.03C287.27 10.24 287.97 10.48 288.67 10.7C290.78 11.41 292.89 12.17 294.96 13C295.65 13.27 296.33 13.55 297.02 13.84C299.08 14.69 301.11 15.6 303.13 16.57C303.62 16.79 304.1 17.03 304.58 17.27C305.84 17.89 307.1 18.54 308.35 19.22C308.86 19.49 309.36 19.77 309.87 20.06C310.38 20.33 310.89 20.63 311.39 20.92C312.41 21.49 313.43 22.09 314.42 22.72C314.92 23.03 315.42 23.34 315.92 23.66C317.42 24.6 318.89 25.57 320.34 26.58C320.83 26.92 323.26 28.66 323.34 28.73C323.78 29.04 324.21 29.37 324.64 29.7C325.59 30.41 326.51 31.14 327.44 31.88C327.8 32.17 329.62 33.67 330.17 34.14C330.62 34.53 331.07 34.91 331.52 35.3C332.36 36.04 333.18 36.79 334 37.53C334.49 37.99 334.97 38.44 335.46 38.9C336.32 39.72 337.17 40.56 338.01 41.41C339.7 43.11 341.33 44.86 342.9 46.67C343.3 47.12 343.69 47.58 344.07 48.03C344.87 48.94 345.63 49.87 346.38 50.81C346.75 51.28 348 52.86 348.24 53.17C348.54 53.54 348.83 53.93 349.1 54.32C349.64 55.04 350.17 55.77 350.71 56.5C351.2 57.2 351.7 57.9 352.17 58.61C353.54 60.61 354.85 62.67 356.11 64.76C356.43 65.28 356.75 65.82 357.05 66.36C357.35 66.87 357.65 67.38 357.94 67.91C358.33 68.6 358.71 69.28 359.09 69.98C360.74 73.06 362.26 76.2 363.66 79.43C363.98 80.18 364.31 80.94 364.61 81.69C365.36 83.5 366.06 85.32 366.71 87.16C369.27 94.31 371.15 101.58 372.34 108.86C373.99 118.8 374.4 128.77 373.64 138.59C372.74 150.2 376.02 161.79 383.45 170.74C384.09 171.53 384.66 172.33 385.15 173.2C385.52 173.8 385.85 174.44 386.12 175.09C386.44 175.83 386.71 176.58 386.92 177.36C388.69 183.65 387.03 190.97 382.54 198.69Z" fill="#1A1A1A"/>
<path d="M359.12 70.0302C347.27 70.4502 338.78 81.6302 327.33 84.9902C316.43 88.2002 305.39 91.4902 294.6 95.2602C267.12 104.85 241.24 117.56 223.45 139.82C222.25 141.32 221.09 142.87 219.97 144.45C214.78 151.79 210.31 159.63 206.64 167.85C199.1 184.78 194.99 203.56 197.19 221.98C198.5 233.03 202.1 240.92 211.32 247.07C213.68 248.64 217.09 250.28 220.87 251.9C225.95 254.1 231.71 256.28 236.49 258.34C240.09 259.88 243.12 261.35 244.9 262.68C243.14 262.9 240.77 263.1 238 263.27C229.92 263.76 218.49 263.87 209.01 262.9C207.56 262.75 206.16 262.58 204.83 262.38C200.2 261.68 196.34 260.66 194.03 259.17C187.4 254.93 180.53 250.38 175.25 244.69C172.2 241.41 169.68 237.75 168.03 233.53C166.56 229.81 165.87 225.9 165.43 221.92C157.5 214.75 150.42 206.53 144.43 197.31C139.77 190.13 135.78 182.35 132.56 174.03C127.22 160.21 124.53 145.93 124.28 131.79C124.21 127.93 124.32 124.07 124.6 120.24C124.99 115.1 125.69 110 126.7 104.97C126.85 104.16 127.02 103.35 127.21 102.55C128.1 98.4902 129.19 94.4802 130.48 90.5402C130.7 89.8502 130.94 89.1502 131.18 88.4702C131.29 88.1302 131.42 87.8002 131.54 87.4702C131.9 86.4302 132.28 85.4002 132.66 84.3602C134.51 79.5902 136.64 74.9202 139.05 70.4002C140.07 68.4602 141.15 66.5702 142.27 64.6802C142.66 64.0602 143.04 63.4202 143.43 62.7902C144.2 61.5502 145 60.3302 145.81 59.1202C146.63 57.9002 147.47 56.7002 148.33 55.5102C149.2 54.3202 150.08 53.1502 150.98 51.9902C151.44 51.4002 151.9 50.8302 152.38 50.2502C155.15 46.8202 158.12 43.5302 161.28 40.4002C171.26 30.4602 183.07 22.1002 196.45 15.8802C199.65 14.3902 202.88 13.0602 206.14 11.8602C208.3 11.0702 210.47 10.3402 212.66 9.66022C215.94 8.66022 219.24 7.80022 222.54 7.08022C231.35 5.16022 240.23 4.22021 249.03 4.22021C249.78 4.22021 250.53 4.23021 251.28 4.25021C252.03 4.26021 252.79 4.27021 253.54 4.31021C254.29 4.34021 257.21 4.48021 257.92 4.53021C259.37 4.64021 260.83 4.77021 262.28 4.93021C262.37 4.94021 262.47 4.94021 262.57 4.96021C263.29 5.05021 266.22 5.41021 266.96 5.52021C267.7 5.63021 270.39 6.07021 271 6.18021C271.86 6.33021 272.72 6.49021 273.57 6.67021C275.03 6.96021 276.49 7.28021 277.94 7.63021C278.56 7.78021 280.3 8.22021 280.54 8.28021C281.68 8.57021 282.81 8.88021 283.94 9.22021C284.16 9.28021 285.91 9.81021 286.57 10.0202C287.27 10.2302 287.97 10.4702 288.67 10.6902C290.78 11.4002 292.89 12.1602 294.96 12.9902C295.65 13.2602 296.33 13.5402 297.02 13.8302C299.08 14.6802 301.11 15.5902 303.13 16.5602C303.62 16.7802 304.1 17.0202 304.58 17.2602C305.84 17.8802 307.1 18.5302 308.35 19.2102C308.86 19.4802 309.36 19.7602 309.87 20.0502C310.38 20.3202 310.89 20.6202 311.39 20.9102C312.41 21.5002 313.43 22.1002 314.42 22.7102C314.92 23.0202 315.42 23.3302 315.92 23.6502C317.42 24.5902 318.89 25.5602 320.34 26.5702C320.83 26.9102 323.26 28.6502 323.34 28.7202C323.78 29.0302 324.21 29.3602 324.64 29.6902C325.59 30.4002 326.51 31.1302 327.44 31.8702C327.8 32.1602 329.62 33.6602 330.17 34.1302C330.62 34.5202 331.07 34.9002 331.52 35.2902C332.36 36.0302 333.18 36.7802 334 37.5202C334.49 37.9802 334.97 38.4302 335.46 38.8902C336.32 39.7102 337.17 40.5502 338.01 41.4002C339.68 43.1002 341.32 44.8602 342.9 46.6602C343.3 47.1102 343.69 47.5702 344.07 48.0202C344.86 48.9402 345.62 49.8702 346.38 50.8002C346.75 51.2702 347.13 51.7502 347.5 52.2202C347.75 52.5302 348 52.8602 348.24 53.1802C348.54 53.5502 348.81 53.9302 349.1 54.3002C349.64 55.0202 350.17 55.7502 350.71 56.4802C351.2 57.1802 351.7 57.8802 352.17 58.5902C353.54 60.5902 354.85 62.6502 356.11 64.7402C356.43 65.2602 356.75 65.8002 357.05 66.3402C357.35 66.8502 357.65 67.3602 357.94 67.8902C358.33 68.5802 358.71 69.2602 359.09 69.9602C359.1 70.0102 359.1 70.0202 359.12 70.0302Z" fill="#242424"/>
<path d="M366.11 78.6202C365.64 79.6702 365.15 80.7002 364.62 81.7002C357.34 95.8302 345.22 104.8 327.38 112.1C308.78 119.74 283.96 125.6 251.93 133.64C242.27 136.06 232.72 138.13 223.44 139.82C176.68 148.3 136.78 146.94 124.27 131.79C122.58 129.73 121.4 127.45 120.76 124.91C120.45 123.66 120.36 121.61 120.5 119.27C120.71 115.96 121.39 112.05 122.59 108.82C123.38 106.66 124.4 104.79 125.66 103.6C126.13 103.14 126.65 102.78 127.2 102.54C146.51 117.67 192.25 120.53 245.29 107.2C261.87 103.04 277.24 98.2702 290.82 93.0202C319.92 81.7502 340.88 68.1602 348.25 53.2102C348.46 52.7902 348.65 52.3702 348.82 51.9702C355.67 52.8602 352.15 60.9602 357.01 64.1102C363.56 68.3502 368.82 72.5302 366.11 78.6202Z" fill="#333333"/>
<path d="M51.2599 166.15C57.9399 156.48 61.16 144.7 68.2 135.28C78.85 121.03 98.25 113.93 115.58 117.95C121.9 119.41 128.51 122.21 134.63 120.06C129.73 105.72 118.22 92.34 103.39 86.93C87.72 81.22 69.3799 85.01 56.0599 95.06C42.7499 105.11 34.3299 120.91 31.7199 137.38C29.9899 148.31 30.6 159.71 26.89 170.13C23.2 180.51 12.4899 191 0.679932 187.5C19.8499 189.72 40.0599 182.38 51.2599 166.15Z" fill="#333333"/>
<path d="M80.7199 157.28C82.8699 167.31 86.84 177.15 85.77 187.54C84.7 197.92 76.2099 209.22 65.1599 209.27C59.5499 209.3 54.55 206.47 49.01 205.91C43.47 205.35 36.23 208.95 36.88 214.14C40.91 210.71 46.9799 211 51.9199 212.39C56.8599 213.78 61.63 216.06 66.89 215.89C77.36 215.54 85.13 205.98 90.51 197.22C94.84 190.18 98.94 182.43 98.21 174.63C97.77 169.89 95.57 165.56 94.62 160.92C92.12 148.69 99.04 136.04 108.83 127.43C116.13 121 132.13 116.27 120.36 106.71C109.48 97.88 92.69 108.55 86.06 118.5C78.29 130.13 78.0399 144.81 80.7199 157.28Z" fill="#333333"/>
<path d="M385.16 173.21C383.54 177.87 379.43 181.44 374.66 183.12C373.06 183.68 371.4 184.03 369.73 184.16C362.54 184.67 355.47 181.49 349.79 177.06C347.49 175.27 345.27 173.23 342.5 172.4C342.47 172.39 342.45 172.39 342.42 172.38C338.49 171.27 334.32 172.94 331.2 175.66C330.61 176.17 330.06 176.72 329.56 177.3C326.36 180.96 324.5 185.53 322.17 189.78C316.35 200.32 307.29 209.04 296.54 214.46C289.04 218.24 280.01 220.39 272.23 217.16C266.57 214.81 262.37 209.94 258.73 204.96C250.47 193.66 241.39 174.02 247.53 159.67C253.6 145.45 276.01 137.85 290.02 140.64C295.75 141.76 301.11 144.44 306.89 145.3C317.2 146.89 327.51 142.47 336.04 136.32C336.6 135.92 337.16 135.51 337.71 135.08C346.55 128.31 353.98 119.82 362.84 113.11C365.65 110.99 368.92 108.98 372.34 108.88C373.99 118.82 374.4 128.79 373.64 138.61C372.74 150.22 376.02 161.81 383.45 170.76C384.1 171.54 384.67 172.33 385.16 173.21Z" fill="#D6A99A"/>
<path d="M285.02 9.01009C284.88 9.15009 284.75 9.28009 284.6 9.42009C270.19 23.5301 252.53 37.0501 235.86 50.5701C231.22 54.3301 226.66 58.0901 222.26 61.8601C200.26 80.7501 174.88 98.0201 146 100.67C143.9 100.86 141.69 100.96 139.8 100.03C137.38 98.8401 136 96.2801 134.79 93.8901C133.7 91.7601 123.43 71.4701 119.38 63.4801C116.81 58.3901 114.15 52.9201 114.81 47.2501C116.07 36.4101 128.07 30.8001 138.36 27.1901C165.14 17.8101 192.04 8.39009 219.96 3.32009C235.68 0.460092 252.11 -0.199909 267.64 3.21009C273.6 4.50009 279.41 6.40009 285.02 9.01009Z" fill="#242424"/>
<path d="M308.31 170.16C311.91 178.46 310.65 187 305.49 189.24C300.33 191.48 293.23 186.56 289.63 178.26C286.03 169.96 287.29 161.42 292.45 159.18C297.61 156.95 304.71 161.86 308.31 170.16Z" fill="#1A1A1A"/>
<path d="M365.97 150.37C368.42 158.43 366.35 166.19 361.35 167.72C356.34 169.25 350.3 163.95 347.84 155.9C345.39 147.84 347.46 140.08 352.46 138.55C357.46 137.02 363.51 142.32 365.97 150.37Z" fill="#1A1A1A"/>
<path opacity="0.06" d="M382.54 198.69C377.8 195.47 376.21 189.38 374.66 183.12C373.06 176.73 371.49 170.15 366.61 166.33C366.04 165.88 365.41 165.48 364.77 165.14C361.11 163.18 356.61 163.04 352.55 164.35C350.88 164.89 349.27 165.69 347.84 166.71C345.69 168.25 343.91 170.18 342.5 172.39C340.28 175.79 338.88 179.79 338.26 183.81C334.84 181.92 332.58 179.05 331.21 175.64C328.25 168.32 329.37 158.51 331.88 150.52C333.32 145.94 334.96 141.11 336.05 136.3C337.75 128.82 338.1 121.38 334.2 115.01C331.92 114.06 329.64 113.1 327.38 112.09C316.14 107.13 305.18 101.5 294.6 95.2502C293.34 94.5102 292.08 93.7602 290.83 93.0002C272.4 81.7902 255.14 68.7202 239.38 54.0002C238.21 52.9002 237.02 51.7502 235.86 50.5502C229.98 44.4502 224.92 37.1502 225.85 28.9502C227.35 15.4802 243.14 9.37018 256.31 6.12018C258.36 5.86018 260.36 5.46018 262.29 4.93018C264.11 4.44018 265.9 3.86018 267.65 3.18018C273.61 4.48018 279.42 6.38017 285.03 8.99017C284.89 9.13017 284.76 9.26018 284.61 9.40018C285.27 9.60018 287.99 10.4602 288.69 10.6902C290.8 11.4002 292.91 12.1602 294.98 12.9902C295.67 13.2602 296.35 13.5402 297.04 13.8302C299.1 14.6802 301.13 15.5902 303.15 16.5602C303.64 16.7802 304.12 17.0202 304.6 17.2602C305.86 17.8802 307.12 18.5302 308.37 19.2102C308.88 19.4802 309.38 19.7602 309.89 20.0502C310.4 20.3202 310.91 20.6202 311.41 20.9102C312.43 21.4802 313.45 22.0802 314.44 22.7102C314.94 23.0202 315.44 23.3302 315.94 23.6502C317.44 24.5902 318.91 25.5602 320.36 26.5702C320.85 26.9102 323.28 28.6502 323.36 28.7202C323.8 29.0302 324.23 29.3602 324.66 29.6902C325.61 30.4002 326.53 31.1302 327.46 31.8702C327.82 32.1602 329.64 33.6602 330.19 34.1302C330.64 34.5202 331.09 34.9002 331.54 35.2902C332.38 36.0302 333.2 36.7802 334.02 37.5202C334.51 37.9802 334.99 38.4302 335.48 38.8902C336.34 39.7102 337.19 40.5502 338.03 41.4002C339.72 43.1002 341.35 44.8502 342.92 46.6602C343.32 47.1102 343.71 47.5702 344.09 48.0202C344.89 48.9302 345.65 49.8602 346.4 50.8002C346.77 51.2702 348.02 52.8502 348.26 53.1602C348.47 52.7602 348.66 52.3502 348.83 51.9502C355.68 52.8402 352.16 60.9402 357.02 64.0902C363.56 68.3302 368.82 72.5202 366.11 78.6102C365.64 79.6602 365.15 80.6902 364.62 81.6902C365.37 83.5002 366.07 85.3202 366.72 87.1602C369.28 94.3102 371.16 101.58 372.35 108.86C374 118.8 374.41 128.77 373.65 138.59C372.75 150.2 376.03 161.79 383.46 170.74C384.1 171.53 384.67 172.33 385.16 173.2C385.53 173.8 385.86 174.44 386.13 175.09C386.45 175.83 386.72 176.58 386.93 177.36C388.69 183.65 387.03 190.97 382.54 198.69Z" fill="#FFF8FF"/>
<path opacity="0.06" d="M502.22 318.79C500.98 331.79 494.88 344.36 484.89 352.75C481.39 345.61 477.41 338.68 472.95 332.1C467.17 323.52 460.57 315.52 453.15 308.32C438.58 294.16 421.15 283.35 403.87 272.66C396.23 267.93 388.46 263.15 379.84 260.59C369.74 257.59 358.48 257.62 348.1 255.82C340.81 254.57 333.99 252.41 328.3 247.69C330.11 244.36 333.11 242.03 336.53 240.29C339.16 238.95 342.07 237.96 344.88 237.12C346.83 236.53 349.01 235.86 351.36 235.13C378.5 238.31 412.55 250.15 423.25 254.07C450.27 263.96 475.93 279.04 495.49 299.91C497.77 302.33 499.96 304.84 502.07 307.43C502.21 308.5 502.31 309.58 502.37 310.66C502.53 313.4 502.48 316.11 502.22 318.79Z" fill="#FFF8FF"/>
<path opacity="0.06" d="M541.62 313.55C540.37 319.69 547.3 325.35 544.78 331.65C543.87 333.93 541.81 335.55 539.85 337.03C535.27 340.5 530.45 344.07 524.79 345.03C520.58 345.74 515.81 344.48 512.94 341.55C511.93 340.53 511.17 339.3 510.73 337.88C509.73 334.62 510.65 331.09 510.17 327.72C509.56 323.45 506.22 320.27 502.22 318.79C497.64 317.1 492.17 317.67 488.9 321.37C488.84 321.15 488.78 320.91 488.73 320.68C486.89 313.14 490.19 306.02 495.5 299.91C497.78 302.33 499.97 304.84 502.08 307.43C502.67 308.17 503.27 308.9 503.84 309.65C506.35 307.91 508.75 306.33 511.01 304.99C518.96 300.26 527.27 295.84 536.32 293.68C542.61 292.19 549.35 291.88 555.7 293.29C553.57 295.8 551.61 298.06 550.57 299.79C547.37 305.15 542.96 306.93 541.62 313.55Z" fill="#FFF8FF"/>
<path opacity="0.06" d="M383.1 311.3C383.09 310.66 383.09 310.04 383.09 309.4C383.5 310.36 383.95 311.29 384.45 312.18C384.01 311.89 383.56 311.6 383.1 311.3Z" fill="#FFF8FF"/>
<path opacity="0.06" d="M404.29 347.38C404.25 348.04 404.17 348.7 404.03 349.36C403.97 349.68 403.89 350.01 403.81 350.33C402.34 355.89 398.18 359.83 393.07 362.69C389.21 364.86 384.82 366.42 380.62 367.6C380.58 367.61 380.56 367.61 380.52 367.62C375.06 369.14 369.1 370.42 363.89 368.22C362.01 367.43 360.34 366.22 358.91 364.77C357.39 363.25 356.1 361.45 355.04 359.58C352.51 355.1 351.12 350.02 350.9 344.87C350.75 341.65 351.06 338.39 351.86 335.27C351.9 335.06 351.95 334.86 352.01 334.66C352.45 333.01 353.02 331.4 353.73 329.84C354.22 328.77 354.77 327.72 355.38 326.69C360.05 318.89 368.05 313.09 376.98 311.25L379.55 312.59C381.36 316.75 383.03 320.95 384.56 325.22C384.93 325.29 385.31 325.38 385.67 325.49C386.88 332.94 390.83 340.48 396.04 346.08C397.76 346.73 399.46 347.4 401.11 348.09C402.15 347.83 403.21 347.58 404.29 347.38Z" fill="#FFF8FF"/>
</svg>
