<svg width="808" height="753" viewBox="0 0 808 753" fill="none" xmlns="http://www.w3.org/2000/svg">
<path d="M552.65 323.92C554.23 323.74 555.74 323.09 556.91 322.02C565.02 314.59 548.37 309.92 546.23 306.89C549.76 303.22 555.35 301.15 560.36 300.66C564.42 300.26 568.65 300.83 572.32 298.47C574.01 297.38 575.21 295.58 575.25 293.57C575.34 289.31 570.55 287.36 566.62 287.67C569.64 286.88 572.78 286.04 574.88 283.54C576.06 282.13 576.64 280.24 576.15 278.47C574.9 273.93 568.59 274.04 564.39 275.86C566.55 275.22 567.28 272.19 566.08 270.29C564.88 268.39 562.39 267.64 560.16 267.87C559.41 267.95 558.68 268.12 557.97 268.35C558.26 266.68 557.43 265.14 554.91 263.88C553.31 263.09 551.39 263.55 549.68 264.08C546.89 264.95 544.14 265.97 541.45 267.12C539.93 267.45 538.4 267.86 536.88 268.32C535.22 269.11 533.69 269.88 532.34 270.55C524.87 274.28 517 278.37 513.22 286.02C511.52 289.47 511.05 293.38 511.39 297.21C512.47 309.1 520.6 313.53 528.54 317.48C536.09 321.25 544.19 324.88 552.65 323.92Z" fill="#D6A99A"/>
<path d="M538.66 321.94C533.04 332.4 524.19 341.02 513.02 345.24C492.01 353.17 468.44 346.68 446.14 349.37C434.83 350.73 412.64 361.47 391.02 368.55C369.2 375.7 347.94 379.12 339.02 365.44C330.92 352.99 349.88 332.72 370.99 315.49C385.48 303.67 400.98 293.27 409.42 287.84C410.69 287.03 411.8 286.32 412.73 285.74C442.63 266.94 477.46 254.5 512.74 256.04C516.92 256.23 521.18 256.61 525.07 258.12C525.35 258.23 525.62 258.34 525.89 258.47C530.52 260.48 534.25 264.09 537.18 268.23C537.94 269.3 538.65 270.41 539.3 271.55C548.17 286.88 546.96 306.43 538.66 321.94Z" fill="#242424"/>
<path d="M89.81 350.23C88.23 350.05 86.72 349.4 85.55 348.33C77.44 340.9 94.09 336.23 96.23 333.2C92.7 329.53 87.11 327.46 82.1 326.97C78.04 326.57 73.81 327.14 70.14 324.78C68.45 323.69 67.2499 321.89 67.2099 319.88C67.1199 315.62 71.91 313.67 75.84 313.98C72.82 313.19 69.6799 312.35 67.5799 309.85C66.3999 308.44 65.82 306.55 66.31 304.78C67.56 300.24 73.8699 300.35 78.0699 302.17C75.9099 301.53 75.18 298.5 76.38 296.6C77.58 294.7 80.07 293.95 82.3 294.18C83.05 294.26 83.78 294.43 84.49 294.66C84.2 292.99 85.03 291.45 87.55 290.19C89.15 289.4 91.07 289.86 92.77 290.39C95.56 291.26 98.31 292.28 101 293.43C102.52 293.76 104.05 294.17 105.57 294.63C107.23 295.42 108.76 296.19 110.11 296.86C117.58 300.59 125.45 304.68 129.23 312.33C130.93 315.78 131.4 319.69 131.06 323.52C129.98 335.41 121.85 339.84 113.91 343.79C106.36 347.56 98.26 351.19 89.81 350.23Z" fill="#D6A99A"/>
<path d="M205.92 324.04C182.19 309.65 154.67 300.32 126.97 301.98C123.45 302.19 119.87 302.6 116.66 304.06C112.12 306.13 108.72 310.15 106.29 314.51C94.96 334.87 105.96 364.18 127.89 372.06C144.5 378.03 162.93 372.62 180.48 374.46C198.38 376.33 251.25 407.35 264.84 385.72C275.97 368.04 218.6 331.73 205.92 324.04Z" fill="#1A1A1A"/>
<path d="M228.07 604.01C230.84 611.44 233.6 618.87 236.37 626.3C237.62 629.66 238.89 633.14 238.8 636.64C238.63 642.72 234.46 647.48 230.77 651.98C226.01 657.78 221.7 663.98 217.9 670.51C215.9 673.94 213.99 677.8 214.69 681.91C226.37 672.32 238.06 662.74 249.74 653.15C251.62 651.61 253.62 649.85 253.97 647.34C254.2 645.67 253.64 643.94 253.09 642.29C249.05 630.18 245.01 618.06 240.97 605.95C239.61 601.86 237.73 597.21 233.76 595.72L228.07 604.01Z" fill="#1A1A1A"/>
<path d="M238.73 596.58C241.3 597.22 243.84 598.08 245.56 600C248.21 602.97 248.43 608.46 246.11 613.44C243.78 618.42 239.04 622.62 234.49 623.73C230.42 624.72 226.85 623.37 223.99 621.32C221.15 619.28 218.74 615.52 220.7 611.07C221.56 609.11 223.12 607.44 224.66 605.93C229.38 601.29 234.51 597.24 239.84 593.95L238.73 596.58Z" fill="#333333"/>
<path d="M256.43 476.33C241.76 472.15 160.39 482.52 146.05 487.7C137.45 490.8 129.36 496.42 125.36 504.64C121.14 513.32 122.03 523.63 124.54 532.95C132.13 561.06 152.83 583.46 172.82 604.63C182.38 614.75 193.99 625.71 207.87 624.5C214.53 623.92 220.59 620.51 226.14 616.79C231.71 613.05 237 608.92 241.98 604.42C245.5 601.24 248.95 597.75 250.75 593.35C253.86 585.76 251.37 576.8 246.5 570.21C241.63 563.61 234.69 558.9 227.89 554.32C236.77 560.3 360.33 546.97 364.91 538.06C368.74 530.6 273.42 501.88 268.9 495.08C256.43 476.33 277.69 482.39 256.43 476.33Z" fill="#1A1A1A"/>
<path d="M389.97 434.13C389.12 440.78 387.99 447.4 386.49 453.94C386.2 455.2 385.89 456.46 385.58 457.72C384.58 461.7 383.94 465.47 383.54 469.07C382.17 481.19 383.54 491.33 383.4 500.54C383.24 511.34 380.99 520.89 369.82 530.92C368.25 532.33 366.22 534.03 363.93 535.8C360.96 538.1 357.53 540.53 354.02 542.7C347.43 546.77 340.54 549.9 335.82 549.35C332.21 548.94 321.84 549.81 312.06 550.05H312C303.37 550.26 295.22 549.96 292.62 547.83C277.79 535.61 268.32 533.59 254.45 519.89C247.25 512.77 238.79 490.49 237.77 476.88C237.73 476.41 237.73 475.94 237.78 475.49C238 472.69 239.56 470.3 241.48 468C244.88 463.92 249.4 460.12 249.65 454.85C249.76 452.5 249.2 450.23 248.49 448.06C248.38 447.69 248.25 447.32 248.13 446.96C245.71 439.99 243.47 429.46 240.28 420.67C237.06 411.79 236.34 401.92 238.03 392.37C238.28 390.95 238.58 389.52 238.94 388.13C240.94 380.3 242.92 372.77 243.63 370.81C244.5 368.4 245.4 366.09 246.35 363.84C247.47 361.18 248.66 358.62 249.95 356.1C251.01 354.02 252.13 351.96 253.32 349.91C255.62 345.98 258.18 342.07 261.11 338C261.56 337.38 262.02 336.76 262.5 336.16C264.23 333.98 266.11 331.97 268.09 330.13C275.12 323.6 283.57 319.12 292.15 315.71C293.35 315.22 294.53 314.77 295.73 314.34C300.06 312.75 304.46 311.36 308.91 310.22C320.1 307.32 331.56 305.96 342.74 306.92C349.01 307.47 355.19 308.76 361.18 310.91C362.05 311.21 362.92 311.55 363.78 311.9C364.18 312.06 364.59 312.24 364.99 312.41C365.91 312.8 366.83 313.22 367.74 313.68C368.84 314.23 369.92 314.82 370.99 315.47C373.96 317.22 376.75 319.33 379.18 321.86C379.8 322.5 380.4 323.17 380.96 323.87C382.41 325.63 383.69 327.58 384.77 329.71C388.35 336.85 389.21 345.43 389.91 353.74C390.32 358.65 391.2 371.33 391.27 372.73C392.46 393.24 392.56 413.9 389.97 434.13Z" fill="#242424"/>
<path d="M294.51 395.23C284.95 376.27 262.67 363.5 250.35 346.02C253.84 337.85 257.96 329.69 262.87 323.98C277.86 340.96 302.54 376.82 301.63 378.31C295.16 388.76 300.95 384.79 294.51 395.23Z" fill="#333333"/>
<path d="M293.3 301.17C300.34 305.25 307.38 309.33 314.43 313.42C304.15 353.69 299.36 395.37 300.23 436.92C300.51 450.45 288.83 456.5 283.77 443.24C279.72 432.63 285.44 411.42 286.16 400.3C286.6 393.44 288.57 360.42 293.3 301.17Z" fill="#333333"/>
<path d="M386.48 453.94C384.8 456.62 383.42 459 384.11 462.53C377.49 468.34 373.4 466.14 363.47 468.52C357.55 469.93 351.58 471.15 345.58 472.17C322.88 476.02 299.8 477 277.71 475.04C262.14 473.65 247.72 473.08 241.48 468.01C241.29 467.86 241.11 467.7 240.93 467.54C244.45 461.46 245.61 454.17 244.48 447.79C245.82 447.89 247.15 447.99 248.49 448.08C261.45 448.99 274.76 449.68 288.17 449.53C290.55 449.51 292.95 449.46 295.34 449.37C300.33 449.2 305.33 448.9 310.32 448.43C321.92 447.34 333.6 446.25 344.99 443.52C346.63 443.13 348.24 442.71 349.85 442.26C357.29 440.2 364.53 437.57 371.72 434.94C376.31 433.27 385.3 435.71 389.97 434.13C390.02 434.12 390.07 434.09 390.12 434.08C392.36 444.97 389.05 449.83 386.48 453.94Z" fill="#333333"/>
<path d="M391.42 604.5C388.12 612.13 384.82 619.76 381.52 627.39C380.03 630.84 378.5 634.41 378.42 638.08C378.26 644.46 382.37 649.67 385.99 654.58C390.66 660.91 394.83 667.63 398.45 674.68C400.35 678.38 402.15 682.53 401.19 686.79C389.48 676.12 377.77 665.45 366.07 654.77C364.19 653.05 362.19 651.1 361.96 648.46C361.81 646.7 362.49 644.92 363.16 643.22C368.05 630.76 372.94 618.3 377.83 605.84C379.48 601.64 381.7 596.87 385.93 595.52L391.42 604.5Z" fill="#1A1A1A"/>
<path d="M380.67 596.13C377.95 596.66 375.24 597.42 373.34 599.34C370.41 602.31 369.87 608.04 372.04 613.37C374.2 618.71 378.94 623.36 383.65 624.77C387.86 626.03 391.67 624.81 394.77 622.82C397.85 620.84 400.58 617.04 398.77 612.27C397.97 610.17 396.43 608.34 394.9 606.67C390.21 601.56 385.06 597.04 379.66 593.3L380.67 596.13Z" fill="#333333"/>
<path d="M506.57 522.12C506.18 526.74 505.08 531.37 503.66 535.75C494.18 564.76 471.3 587.07 449.21 608.15C438.65 618.23 425.89 629.06 411.44 627.04C406.21 626.3 401.4 623.91 396.96 620.97C395.52 620.02 394.11 619.01 392.73 617.97C390.92 616.61 389.15 615.21 387.4 613.76C384.15 611.09 381.02 608.28 378.01 605.32C377.61 604.95 377.21 604.55 376.82 604.16C375.45 602.79 374.11 601.38 372.87 599.87C370.91 597.51 369.25 594.96 368.24 592.09C365.39 583.99 368.49 574.74 373.95 568.09C379.42 561.46 386.93 556.9 394.3 552.47C386.14 557.38 321.59 557.5 299.69 551.57C295.81 550.51 293.26 549.27 292.61 547.82C290.77 543.73 305.64 530.08 321.31 516.78C330.09 509.33 339.1 502 345.59 496.5C350.22 492.59 353.57 489.61 354.6 488.21C368.66 469.27 346.08 474.45 368.66 469.27C371.54 468.61 376.79 468.6 383.52 469.05C413.16 471.04 471.59 482.13 483.6 487.19C492.43 490.91 500.6 497.23 504.34 506.04C506.5 511.13 507.03 516.62 506.57 522.12Z" fill="#242424"/>
<path d="M385.86 50.1701C384.36 61.8701 386.91 73.8501 384.97 85.4801C382.03 103.09 368.01 118.34 350.71 122.73C344.4 124.34 337.23 124.88 332.76 129.62C343.73 140.15 360.15 146.78 375.86 144.77C392.46 142.65 407.06 130.83 414.3 115.74C421.54 100.65 421.78 82.7001 416.52 66.8101C413.04 56.2701 407.24 46.3901 405.75 35.3901C404.27 24.4401 408.98 10.1601 421.12 7.84009C403.02 14.7001 388.37 30.5501 385.86 50.1701Z" fill="#333333"/>
<path d="M363.69 71.64C370.98 80.5 376.99 92.03 377.02 104.36C377.02 105.78 376.95 107.22 376.78 108.67C375.87 116.84 370.86 127.51 363.37 132.48C362.16 133.29 360.89 133.95 359.55 134.42C358.26 134.88 356.93 135.17 355.54 135.24C354.27 135.33 352.97 135.24 351.63 134.97C346.92 134 344.91 132.17 344.48 129.85C344.14 128.09 344.7 126.04 345.68 123.87C345.89 123.4 346.13 122.91 346.38 122.43C346.57 122.04 346.77 121.67 346.98 121.28C348.79 117.93 351.11 114.4 352.37 111.19C357.13 99 357.48 84.55 349.62 74.8C346.64 71.09 342.68 68.25 340.11 64.23C335.88 57.6 335.96 48.81 336.58 40.55C337.35 30.26 339.88 18.16 349.05 13.03C353.66 10.45 358.96 10.28 364.01 9.26003C369.05 8.22003 374.58 5.69003 376.61 0.780029C379.57 5.10003 374.77 11.64 369.58 13.7C364.39 15.75 358.63 15.52 353.64 18.13C343.81 23.26 341.44 37.24 345.28 46.99C349.09 56.74 357.16 63.69 363.69 71.64Z" fill="#333333"/>
<path d="M393.56 229.48C393.48 230.57 393.4 231.65 393.29 232.73C393.05 235.16 392.74 237.57 392.37 239.98C391.68 244.27 390.78 248.52 389.66 252.7C389.25 262.05 386.2 278.74 376.08 296.47C373.06 301.76 369.4 307.13 365.01 312.43C362.34 315.64 359.4 318.82 356.16 321.93C344.14 333.5 327.98 344.15 306.35 352.02C301.92 353.63 297.29 355.12 292.4 356.48C291.29 356.79 288.75 357.45 288.6 357.49C280.55 359.59 272.64 361.15 265.03 362.21C262.3 362.6 259.61 362.91 256.96 363.17C253.33 363.52 249.79 363.74 246.36 363.86C218.48 364.8 197.15 358.12 191.51 345.05C191.19 344.31 190.91 343.56 190.7 342.79C190.51 342.1 190.35 341.4 190.27 340.7C190.11 339.71 190.04 338.72 190.06 337.7V337.19C190.06 336.63 190.05 336.05 190.02 335.49C190.01 335 189.97 334.5 189.93 334C189.92 333.85 189.92 333.71 189.89 333.58C189.85 333.09 189.8 332.61 189.74 332.11C189.73 332.04 189.73 331.96 189.71 331.89C189.65 331.44 189.59 330.99 189.51 330.53L189.47 330.31C189.41 329.9 189.33 329.47 189.25 329.06C189.22 328.91 189.2 328.77 189.16 328.64C189.06 328.14 188.95 327.64 188.82 327.15C188.71 326.65 188.57 326.15 188.43 325.66C188.41 325.56 188.38 325.46 188.34 325.36C188.2 324.87 188.05 324.39 187.89 323.91C186.88 320.8 185.51 317.8 183.83 314.97C183.71 314.75 183.57 314.52 183.42 314.3C182.93 313.49 182.41 312.69 181.86 311.9C181.5 311.4 181.14 310.91 180.76 310.41C180.42 309.96 180.09 309.52 179.72 309.1C179.43 308.74 179.13 308.39 178.83 308.04C178.73 307.93 178.63 307.8 178.53 307.69C178.14 307.27 177.77 306.85 177.38 306.44C170.6 299.27 164.62 291.22 159.64 282.43C155.97 276.01 152.86 269.16 150.33 261.95C149.69 260.11 149.09 258.27 148.53 256.38C148.28 255.59 148.06 254.81 147.83 254.01C146.88 250.61 146.09 247.21 145.45 243.8C145.08 241.83 144.74 239.85 144.46 237.88C144.4 237.42 144.32 236.96 144.27 236.49C144.21 236.05 144.16 235.62 144.11 235.19C143.85 233.03 143.65 230.88 143.51 228.74C143.47 228.2 143.44 227.67 143.41 227.14C143.37 226.47 143.29 224.23 143.27 223.79C143.26 223.39 143.27 222.99 143.26 222.6C143.25 221.85 143.24 221.1 143.24 220.37C143.24 218.62 143.29 216.87 143.36 215.15C143.36 214.95 143.36 214.76 143.38 214.56C143.38 214.47 143.39 214.4 143.39 214.32C143.41 213.91 143.43 213.5 143.45 213.08C143.48 212.47 143.51 211.87 143.56 211.26C143.6 210.8 143.62 210.34 143.67 209.86C143.73 209.04 143.81 208.22 143.89 207.4C144.54 201.21 145.65 195.09 147.2 189.12C147.55 187.75 147.94 186.4 148.34 185.04C152.09 172.36 157.83 160.33 165.29 149.47C170.4 142.03 176.31 135.13 182.94 128.92C183.9 128.02 184.88 127.13 185.86 126.27C188.74 123.72 191.75 121.33 194.87 119.05C196.27 118.04 197.69 117.04 199.14 116.08C210.71 108.39 223.8 102.5 238.09 98.9001C254.87 94.6901 271.81 94.1301 288.03 96.7501C304.19 99.3501 319.63 105.08 333.47 113.47C333.61 113.56 333.74 113.63 333.88 113.72C338.2 116.37 342.36 119.26 346.33 122.4C346.4 122.45 346.48 122.51 346.55 122.59C346.62 122.64 346.7 122.7 346.77 122.77C346.99 122.94 347.18 123.09 347.38 123.26C347.45 123.32 347.53 123.37 347.59 123.43C347.86 123.65 348.13 123.87 348.39 124.08C352.29 127.29 355.99 130.73 359.49 134.4C360.19 135.14 360.89 135.9 361.59 136.66C363.13 138.36 364.62 140.11 366.07 141.9C366.56 142.49 367.03 143.07 367.51 143.67C367.87 144.16 369.12 145.8 369.4 146.17C371.68 149.25 373.84 152.46 375.84 155.78C377.86 159.13 379.73 162.56 381.43 166.1C381.98 167.22 382.5 168.37 383 169.52C383.44 170.48 383.85 171.46 384.26 172.43C384.56 173.15 384.85 173.88 385.13 174.6C386.07 176.98 386.93 179.41 387.73 181.87C392.91 197.79 394.7 213.9 393.56 229.48Z" fill="#1A1A1A"/>
<path d="M393.59 287.08C391.88 292.21 384.45 299.76 376.41 306.67C373.53 309.14 370.55 311.54 367.75 313.7C363.09 317.28 358.87 320.24 356.15 321.93C356.81 319.31 358.8 315.35 361.19 310.93C365.32 303.31 370.67 294.35 372.46 288.58C373.11 286.51 373.55 284.52 373.78 282.59C374.78 274.62 372.43 267.68 367.64 260.08C363.78 253.95 359.15 248.38 353.94 243.36C345.77 235.49 336.22 229 326.1 223.83C318.06 219.73 309.62 216.44 300.94 213.99C299.06 213.47 297.18 212.99 295.3 212.58C290.61 211.54 285.9 210.87 281.2 210.52C273.32 209.9 265.43 210.16 257.57 211.11C231.18 214.23 204.93 224.88 179.68 235.39C168.64 240 154.96 236.64 145.46 243.79C145.09 241.82 144.75 239.84 144.47 237.87C144.41 237.41 144.33 236.95 144.28 236.48C144.22 236.04 144.17 235.61 144.12 235.18C143.86 233.02 143.66 230.87 143.52 228.73C143.48 228.19 143.45 227.66 143.42 227.13C143.38 226.46 143.27 223 143.27 222.6C143.26 221.85 143.25 221.1 143.25 220.37C143.25 218.62 143.29 216.89 143.37 215.15C143.37 214.95 143.37 214.76 143.39 214.56C143.4 214.07 143.43 213.57 143.47 213.09C143.5 212.48 143.53 211.88 143.58 211.27C143.62 210.81 143.64 210.35 143.69 209.87C143.75 209.05 143.83 208.23 143.91 207.41C144.56 201.22 145.67 195.1 147.22 189.13C147.57 187.76 147.96 186.41 148.36 185.05C152.11 172.37 157.85 160.34 165.31 149.48C170.42 142.04 176.33 135.14 182.96 128.93C183.92 128.03 184.9 127.14 185.88 126.28C188.76 123.73 191.77 121.34 194.89 119.06C196.29 118.04 197.71 117.05 199.16 116.09C210.73 108.4 223.82 102.51 238.11 98.9101C254.89 94.7001 271.83 94.1401 288.05 96.7601C304.21 99.3601 319.65 105.09 333.49 113.48C333.63 113.57 333.76 113.65 333.9 113.74C338.22 116.37 342.38 119.27 346.35 122.4C346.42 122.47 346.5 122.52 346.57 122.59C346.64 122.64 346.72 122.7 346.79 122.77C347.01 122.94 347.2 123.09 347.4 123.26C347.47 123.32 347.55 123.37 347.61 123.43C347.88 123.65 348.15 123.87 348.41 124.08C352.31 127.29 356.01 130.73 359.51 134.4C360.21 135.14 360.91 135.9 361.61 136.66C363.15 138.36 364.64 140.11 366.09 141.9C366.58 142.49 367.05 143.09 367.53 143.69C367.89 144.16 368.25 144.63 368.6 145.1C368.87 145.45 369.14 145.81 369.41 146.17C371.69 149.27 373.84 152.46 375.85 155.78C377.86 159.11 379.72 162.55 381.42 166.08C381.97 167.22 382.51 168.36 383.02 169.53C383.46 170.49 383.87 171.47 384.28 172.44C384.58 173.16 384.87 173.89 385.15 174.61C386.07 176.99 386.94 179.42 387.73 181.88C392.85 197.79 394.63 213.88 393.51 229.46C393.43 230.55 393.35 231.63 393.24 232.71C392.99 235.14 392.68 237.55 392.3 239.95C394.47 243.36 396.41 246.83 397.62 250.67C401.44 262.52 397.49 275.28 393.59 287.08Z" fill="#242424"/>
<path d="M145.44 254.91C176.18 270.61 208.29 254 269.19 225.75C330.08 197.52 376.94 159.84 365.97 136.16C363.96 131.84 352.88 121.1 346.84 122.78C341.36 146.75 307.48 177.84 257.69 200.93C207.9 224.04 163.98 234.48 142.1 223.21C137.31 228.23 145.16 232.32 143.37 237.85C140.94 245.28 139.47 251.86 145.44 254.91Z" fill="#333333"/>
<path d="M177.4 306.43C185.43 314.92 190.19 326.03 190.05 337.69C190.04 338.7 190.1 339.7 190.26 340.69C195.87 344.17 203.72 343.33 209.21 339.49C215.14 335.35 218.64 328.41 220.28 321.36C220.95 318.5 221.39 315.47 223.07 313.07C225.87 309.09 231.41 307.97 236.2 308.79C241 309.62 245.34 312.02 249.84 313.86C261.03 318.41 273.6 319.49 285.41 316.93C293.64 315.15 302.03 311.12 306.06 303.69C308.99 298.29 309.2 291.83 308.89 285.66C308.19 271.63 302.89 250.58 289.03 243.27C275.32 236.02 253.04 244.23 243.89 255.25C240.13 259.75 237.64 265.21 233.69 269.53C226.17 277.78 214.37 280.72 203.19 281.02C192.03 281.32 180.89 279.39 169.73 279.75C166.2 279.86 162.38 280.36 159.65 282.44C164.65 291.22 170.62 299.26 177.4 306.43Z" fill="#D6A99A"/>
<path d="M335.94 127.14C335.84 127.69 335.67 128.24 335.42 128.76C335.07 129.52 334.58 130.18 334.01 130.78C333.14 131.7 332.05 132.47 330.99 133.18C311.78 146 288.48 150.26 265.15 151.03C259.08 151.24 253.03 151.22 247.03 151.04C220.34 150.25 191.05 151.93 165.33 149.48C165.13 149.47 164.94 149.46 164.74 149.43C174.57 129.35 192.41 114.59 211.87 103.94C236.84 90.27 263.77 80.63 290.57 71.06C296.21 69.05 302.64 67.16 308.59 67.15C313.48 67.14 318.05 68.39 321.59 71.84C325.68 75.84 327.07 81.78 328.27 87.38C330.16 96.16 334.95 118.45 335.46 120.81C335.9 122.89 336.33 125.09 335.94 127.14Z" fill="#242424"/>
<path d="M262.519 302.939C267.957 301.428 270.396 293.111 267.965 284.363C265.534 275.615 259.155 269.748 253.717 271.259C248.279 272.77 245.841 281.086 248.271 289.835C250.702 298.583 257.081 304.45 262.519 302.939Z" fill="#1A1A1A"/>
<path d="M190.83 310.76C194 318.59 200.52 323.34 205.38 321.37C210.25 319.4 211.62 311.45 208.45 303.62C205.28 295.79 198.76 291.04 193.9 293.01C189.03 294.99 187.66 302.93 190.83 310.76Z" fill="#1A1A1A"/>
<path opacity="0.06" d="M506.57 522.12C497.34 536.15 482.8 546.75 466.21 549.66C464.59 549.93 462.9 550.15 461.34 549.64C454.56 547.42 457.98 537.47 459.22 530.44C460.98 520.44 454.73 510.29 446.11 504.88C437.51 499.47 427.01 498.01 416.86 497.73C406.34 497.43 395.77 498.25 385.41 500.18C384.75 500.3 384.09 500.43 383.4 500.55C370.13 503.01 354.25 505.44 345.61 496.53C344.82 495.72 344.1 494.82 343.45 493.82C344.11 487.12 344.77 479.8 345.58 472.17C346.62 462.51 347.91 452.33 349.84 442.26C354.42 418.21 362.57 394.73 379.15 380.1C383.79 375.99 387.74 373.7 391.27 372.76C392.46 393.25 392.56 413.91 389.96 434.13C390.01 434.12 390.06 434.09 390.11 434.08C392.36 444.98 389.05 449.84 386.48 453.94C386.19 455.2 385.88 456.46 385.57 457.72C384.57 461.7 383.93 465.47 383.53 469.07C413.17 471.06 471.6 482.15 483.61 487.21C492.44 490.93 500.61 497.25 504.35 506.06C506.5 511.13 507.03 516.62 506.57 522.12Z" fill="#FFF8FF"/>
<path opacity="0.06" d="M525.07 258.12C521.04 267.5 515.89 276.32 512.96 279.04C501.8 289.39 484.94 289.38 470.1 292.72C439.19 299.69 412.51 323.27 380.96 323.88C380.51 323.89 380.05 323.89 379.6 323.89C379.26 323.23 379.14 322.55 379.18 321.87C379.24 319.54 381.09 317.16 382.84 315.35C391.7 306.16 400.57 297 409.42 287.82C410.69 287.01 411.8 286.3 412.73 285.72C442.63 266.92 477.46 254.48 512.74 256.02C516.92 256.22 521.18 256.61 525.07 258.12Z" fill="#FFF8FF"/>
<path opacity="0.06" d="M393.59 287.08C391.88 292.21 384.45 299.76 376.41 306.67C376.5 303.27 376.38 299.87 376.07 296.47C375.66 291.79 374.9 287.14 373.79 282.59C370.32 268.22 363.5 254.64 353.95 243.36C351.42 240.35 348.68 237.5 345.76 234.86C332.24 222.56 314.99 214.55 296.94 211.69C291.73 210.85 286.47 210.47 281.21 210.53C276.82 210.57 272.43 210.92 268.09 211.6C264.63 212.15 260.9 212.85 257.79 211.24C257.72 211.2 257.64 211.17 257.58 211.12C254.66 209.52 253.37 206.49 253 203.08C252.66 200.03 253.05 196.69 253.66 193.74C256.64 179.3 260.48 165.04 265.15 151.04C271.22 132.86 278.67 115.13 287.42 98.08C287.64 97.66 287.86 97.22 288.08 96.78C293.37 86.58 300.69 73.82 308.59 67.15C313.48 67.14 318.05 68.39 321.59 71.84C325.68 75.84 327.07 81.78 328.27 87.38C330.16 96.16 332.05 104.95 333.94 113.74C338.26 116.39 342.42 119.28 346.39 122.42C346.58 122.05 346.78 121.67 346.99 121.28C347.21 121.73 347.44 122.18 347.68 122.63C347.8 122.87 347.93 123.12 348.07 123.35C348.19 123.6 348.33 123.85 348.47 124.09C350.58 127.95 352.98 131.64 355.56 135.24C357.86 138.41 360.29 141.51 362.83 144.57C364.13 146.14 376.68 160.43 381.48 166.11C382.05 167.26 382.58 168.41 383.08 169.56C383.52 170.52 383.93 171.5 384.34 172.47C384.64 173.19 384.93 173.92 385.21 174.64C386.15 177.02 387.01 179.45 387.81 181.91C392.93 197.8 394.71 213.91 393.58 229.49C393.5 230.58 393.42 231.66 393.31 232.74C393.07 235.17 392.76 237.58 392.39 239.99C394.55 243.39 396.48 246.86 397.7 250.7C401.44 262.52 397.49 275.28 393.59 287.08Z" fill="#FFF8FF"/>
<path opacity="0.06" d="M270.64 317.89C268.83 318.9 266.91 319.95 264.84 319.87C263.88 319.83 262.91 319.55 261.96 319.71C259.27 320.15 258.36 323.61 258.63 326.32C259.54 335.53 267.31 343.07 276.16 345.75C285.01 348.43 294.66 346.97 303.38 343.9C317.01 339.1 363.67 299.93 338.02 283.49C327.11 276.5 280.71 312.24 270.64 317.89Z" fill="#FFF8FF"/>
<path d="M807.17 569.03C806 577.04 799.74 584.55 790.77 589.46C784.43 586.27 775.18 584.92 764.94 586.2C762.43 586.51 759.88 587.38 757.42 588.41C755.08 589.41 752.81 590.56 750.7 591.55C754.86 592.98 758.09 594.9 760.09 597.21L762.21 596.22L762.09 600.82C762.26 601.46 762.36 602.11 762.37 602.77C762.38 603.61 762.29 604.45 762.06 605.29C762.02 605.42 761.98 605.55 761.94 605.68C758.94 615.21 740.62 624.52 718.32 627.31C709.79 628.36 701.79 628.35 694.95 627.42L694.79 620.86L703.74 617.35C704.19 616.19 704.48 615.01 704.55 613.81C704.58 613.47 704.6 613.12 704.59 612.78C704.56 611.78 704.32 610.84 703.89 609.94C702.53 607.11 699.33 604.76 695.3 602.93C692.07 601.45 688.33 600.29 684.6 599.47C678.6 604.3 670.52 607.82 661.57 608.94C658.02 609.39 654.6 609.41 651.35 609.1C643.68 608.33 637.1 605.52 632.7 601.31C629.09 597.86 626.93 593.47 626.81 588.5L626.49 579.54L629.19 578.72C631.61 573.97 635.77 569.68 641.07 566.3C642.72 567.39 644.66 568.34 646.83 569.11C648.91 569.84 651.19 570.42 653.66 570.82C658.35 571.58 663.68 571.67 669.32 570.95C671.05 570.74 672.84 570.28 674.61 569.66C679 568.15 683.36 565.75 686.97 563.9C685.83 563.61 684.74 563.29 683.72 562.93C682.12 562.4 680.64 561.78 679.34 561.09C677.54 560.18 676.03 559.13 674.84 557.97C672.93 556.12 671.87 553.98 671.8 551.62V543.17C671.79 543.16 671.8 543.15 671.82 543.13C672.08 543.01 674.69 542.26 677.36 541.53C682.42 537.02 690.59 532.98 700.45 530.2C705.24 528.82 710.44 527.74 715.86 527.08C716.5 527 717.11 526.93 717.75 526.85C719.64 526.66 721.49 526.5 723.31 526.41C724.92 526.31 726.5 526.26 728.04 526.26L728.34 523.88L742.65 521L742.81 527.56C736.39 531.08 731.81 535.67 730.25 540.46C729.82 541.76 729.6 543.07 729.64 544.38C729.67 545.86 730.37 547.25 731.49 548.53C734.66 552.19 741.35 555.07 747.23 556.96C753.35 551.07 762.43 546.71 772.59 545.44C775.71 545.05 778.75 544.97 781.63 545.19C792.57 545.98 801.44 550.85 805.28 558.06C805.7 558.85 806.06 559.68 806.36 560.52L807.21 559.34L807.36 565.83C807.35 565.85 807.36 565.87 807.37 565.9C807.36 565.94 807.37 565.96 807.36 566L807.42 568.65L807.17 569.03Z" fill="#999999"/>
<path d="M790.61 582.89C784.27 579.72 775.02 578.35 764.78 579.63C759.86 580.24 754.85 582.95 750.54 584.97C753.25 585.92 755.58 587.05 757.42 588.39C760.42 590.55 762.15 593.18 762.21 596.21L762.18 597.03C761.42 607.23 742.09 617.74 718.16 620.73C709.62 621.8 701.63 621.77 694.79 620.84C696.54 619.63 698.08 618.35 699.39 616.99C701.56 614.77 703.12 612.37 703.88 609.91C704.27 608.7 704.46 607.44 704.42 606.19C704.36 603.57 702.76 601.28 700.24 599.35C696.39 596.36 690.38 594.2 684.43 592.89C678.43 597.72 670.35 601.24 661.4 602.34C660.75 602.41 660.09 602.49 659.45 602.54C650.72 603.28 642.78 601.53 636.92 598.03C632.35 595.32 629.04 591.54 627.56 587.04C627.23 586.14 627.01 585.25 626.87 584.31C626.73 583.54 626.65 582.73 626.63 581.9C626.61 581.08 626.64 580.25 626.73 579.41C627.56 571.88 632.96 564.73 640.88 559.71C644.1 561.84 648.37 563.39 653.34 564.19C656.47 564.71 659.88 564.93 663.47 564.81C665.31 564.75 667.21 564.59 669.14 564.36C672.48 563.94 676 562.6 679.33 561.05C682 559.84 684.56 558.46 686.8 557.3C684.21 556.64 681.88 555.84 679.87 554.86C676.87 553.43 674.58 551.69 673.19 549.64C672.49 548.67 672.02 547.61 671.78 546.5C671.68 546.02 671.64 545.54 671.62 545.05C671.6 544.41 671.65 543.77 671.78 543.14C671.77 543.13 671.78 543.12 671.8 543.1C673.8 533.5 691.54 523.96 713.64 520.76C714.31 520.67 715 520.58 715.69 520.5C716.33 520.42 716.95 520.36 717.57 520.29C722.71 519.73 727.62 519.58 732.17 519.82C735.66 519.95 738.94 520.31 741.94 520.87C742.18 520.89 742.4 520.94 742.63 520.98C734.49 525.47 729.31 531.64 729.46 537.8C729.48 538.73 729.75 539.6 730.23 540.44C731.17 542.14 732.9 543.69 735.07 545.07C738.48 547.28 742.96 549.08 747.04 550.39C753.18 544.51 762.23 540.16 772.4 538.87C777.78 538.21 782.88 538.47 787.45 539.51C798.16 541.93 805.87 548.61 807.02 557.46C807.11 558.07 807.17 558.7 807.18 559.33C807.43 568.49 800.74 577.36 790.61 582.89Z" fill="#B3B3B3"/>
<path d="M807.06 557.46C806.45 557.66 805.86 557.86 805.29 558.05C801.31 559.38 797.99 560.44 795.99 561.26C764.5 574.26 734.72 594.94 704.57 613.78C702.86 614.86 701.13 615.93 699.42 616.99C701.59 614.77 703.15 612.37 703.91 609.91C704.3 608.7 704.49 607.44 704.45 606.19C704.39 603.57 702.79 601.28 700.27 599.35C707.45 594.23 714.7 589.27 722.01 584.55C740.72 572.46 760.13 562.07 778.22 548.07C779.37 547.18 780.52 546.22 781.65 545.18C783.62 543.44 785.56 541.51 787.5 539.51C798.19 541.94 805.91 548.61 807.06 557.46Z" fill="#CCCCCC"/>
<path d="M663.49 564.82C660.21 566.79 636.2 581.46 627.58 587.05C627.31 587.21 627.05 587.39 626.79 587.57L626.67 584.5C626.73 584.44 626.81 584.37 626.88 584.32C633.5 579.17 651.17 565.81 653.36 564.2C656.49 564.72 659.9 564.94 663.49 564.82Z" fill="#CCCCCC"/>
<path d="M732.2 519.81C729.27 522.06 726.32 524.25 723.32 526.39C709.22 536.61 694.62 545.86 679.89 554.86C676.89 553.43 674.6 551.69 673.21 549.64C678.52 545.79 709.18 523.84 713.66 520.76C714.33 520.67 715.02 520.58 715.71 520.5C716.35 520.42 716.97 520.36 717.59 520.29C722.74 519.73 727.65 519.58 732.2 519.81Z" fill="#CCCCCC"/>
<path d="M730.26 540.44C731.2 542.14 732.93 543.69 735.1 545.07C733.91 546.23 732.71 547.38 731.5 548.51C725.24 554.36 718.75 559.8 712.09 564.93C709.38 567.07 706.69 569.1 703.94 571.11C692.95 579.2 681.69 586.61 670.52 594C668.19 595.54 664.23 598.71 659.47 602.55C650.74 603.29 642.8 601.54 636.94 598.04C649.45 588.45 741.79 520.98 741.97 520.87C742.21 520.89 742.43 520.94 742.66 520.98C734.52 525.47 729.34 531.64 729.49 537.8C729.51 538.73 729.78 539.6 730.26 540.44Z" fill="#CCCCCC"/>
<path d="M727.38 569.32C727.47 572.94 722.26 576.53 715.75 577.34C709.24 578.15 703.88 575.88 703.8 572.27C703.71 568.65 708.92 565.06 715.44 564.25C721.95 563.43 727.29 565.7 727.38 569.32Z" fill="#242424"/>
<path d="M727.29 570.16C725.19 568.5 721.39 567.69 717.08 568.23C711.09 568.98 706.18 572.09 705.53 575.39C704.46 574.57 703.83 573.5 703.8 572.27C703.7 568.65 708.91 565.06 715.44 564.25C721.95 563.43 727.31 565.71 727.39 569.32C727.38 569.59 727.36 569.88 727.29 570.16Z" fill="#999999"/>
<path d="M638.95 697.58C638.09 704.71 631.03 711.5 620.52 716.06C612.63 713.38 601.35 712.39 589.05 713.76C586.03 714.1 583.02 714.92 580.1 715.89C577.34 716.83 574.67 717.9 572.19 718.82C577.33 719.99 581.37 721.62 583.94 723.63L586.44 722.71L586.61 726.79C586.86 727.35 587.02 727.93 587.09 728.51C587.16 729.26 587.11 730 586.89 730.75C586.86 730.87 586.81 730.98 586.77 731.1C583.8 739.61 562.28 748.28 535.49 751.26C525.24 752.39 515.56 752.56 507.23 751.89L506.58 746.08L517.16 742.76C517.63 741.72 517.9 740.67 517.9 739.6C517.92 739.3 517.92 738.99 517.88 738.69C517.77 737.81 517.42 736.98 516.83 736.19C514.99 733.71 510.96 731.7 505.96 730.17C501.95 728.93 497.35 727.98 492.78 727.34C485.85 731.76 476.33 735.06 465.57 736.25C461.31 736.73 457.17 736.83 453.22 736.62C443.88 736.11 435.73 733.77 430.12 730.13C425.51 727.15 422.6 723.31 422.11 718.91L421.1 710.98L424.3 710.19C426.9 705.92 431.63 702.03 437.82 698.91C439.89 699.84 442.31 700.64 444.99 701.27C447.55 701.87 450.36 702.33 453.37 702.63C459.1 703.2 465.55 703.15 472.32 702.39C474.4 702.16 476.53 701.71 478.64 701.13C483.85 699.69 488.96 697.47 493.2 695.74C491.8 695.51 490.46 695.25 489.2 694.96C487.22 694.53 485.39 694.01 483.77 693.43C481.53 692.67 479.63 691.77 478.11 690.76C475.67 689.16 474.23 687.29 473.98 685.2L473.43 677.71C473.41 677.71 473.42 677.69 473.44 677.68C473.74 677.57 476.86 676.84 480.04 676.14C485.85 672.03 495.45 668.26 507.19 665.58C512.89 664.25 519.1 663.18 525.62 662.47C526.39 662.39 527.12 662.31 527.89 662.22C530.16 662.01 532.39 661.83 534.59 661.71C536.53 661.59 538.44 661.51 540.3 661.47L540.5 659.35L557.61 656.47L558.26 662.28C550.74 665.55 545.52 669.72 543.96 674C543.53 675.16 543.35 676.33 543.49 677.49C543.63 678.8 544.57 680.02 546.02 681.13C550.1 684.3 558.4 686.7 565.64 688.25C572.64 682.89 583.32 678.82 595.52 677.47C599.27 677.06 602.94 676.91 606.44 677.04C619.73 677.49 630.79 681.6 635.94 687.91C636.5 688.6 637 689.32 637.42 690.06L638.37 688.99L639 694.74C639 694.76 639.01 694.78 639.02 694.8C639.01 694.83 639.02 694.86 639.01 694.89L639.27 697.23L638.95 697.58Z" fill="#999999"/>
<path d="M619.87 710.25C611.98 707.58 600.7 706.58 588.4 707.95C582.5 708.6 576.61 711.11 571.54 713.01C574.89 713.79 577.78 714.74 580.1 715.89C583.88 717.74 586.15 720.03 586.44 722.71L586.46 723.44C586.25 732.5 563.58 742.25 534.84 745.44C524.58 746.58 514.91 746.74 506.58 746.07C508.61 744.96 510.38 743.79 511.89 742.56C514.36 740.54 516.08 738.38 516.83 736.18C517.22 735.1 517.36 733.98 517.23 732.87C516.98 730.55 514.88 728.56 511.7 726.9C506.84 724.34 499.42 722.56 492.13 721.54C485.2 725.96 475.68 729.26 464.92 730.44C464.13 730.52 463.35 730.6 462.57 730.66C452.05 731.51 442.33 730.14 435 727.17C429.29 724.87 425.02 721.59 422.92 717.64C422.46 716.85 422.13 716.07 421.9 715.24C421.68 714.56 421.53 713.84 421.45 713.11C421.37 712.38 421.35 711.65 421.4 710.9C421.88 704.2 427.92 697.75 437.16 693.11C441.2 694.92 446.47 696.21 452.54 696.8C456.36 697.19 460.5 697.31 464.84 697.12C467.06 697.02 469.35 696.84 471.67 696.59C475.68 696.15 479.84 694.87 483.77 693.42C486.91 692.29 489.92 691 492.55 689.92C489.37 689.39 486.49 688.73 483.99 687.91C480.26 686.71 477.37 685.22 475.55 683.44C474.64 682.59 474 681.66 473.63 680.69C473.48 680.27 473.39 679.84 473.33 679.41C473.26 678.85 473.3 678.28 473.41 677.71C473.39 677.71 473.4 677.69 473.42 677.68C475.17 669.12 495.99 660.26 522.5 656.93C523.31 656.84 526.47 656.49 527.22 656.42C533.4 655.81 539.33 655.56 544.85 655.67C549.08 655.71 553.08 655.95 556.74 656.38C557.03 656.39 557.3 656.44 557.59 656.46C548.05 660.62 542.21 666.21 542.81 671.67C542.9 672.49 543.29 673.26 543.93 673.99C545.18 675.48 547.39 676.81 550.11 677.99C554.39 679.87 559.94 681.36 564.96 682.43C571.98 677.08 582.63 673.02 594.84 671.65C601.3 670.94 607.49 671.06 613.09 671.88C626.21 673.78 636 679.52 638 687.35C638.15 687.88 638.26 688.44 638.32 689C639.23 697.1 631.74 705.11 619.87 710.25Z" fill="#B3B3B3"/>
<path d="M638.02 687.33C637.29 687.52 636.6 687.71 635.91 687.89C631.19 689.16 627.25 690.17 624.88 690.95C587.68 703.19 553.08 722.19 517.9 739.58C515.9 740.58 513.89 741.57 511.88 742.54C514.35 740.52 516.07 738.36 516.82 736.16C517.21 735.08 517.35 733.96 517.22 732.85C516.97 730.53 514.87 728.54 511.69 726.88C520.03 722.18 528.45 717.62 536.97 713.27C558.78 702.13 581.54 692.48 602.46 679.66C603.79 678.85 605.11 677.97 606.4 677.02C608.66 675.43 610.87 673.68 613.09 671.86C626.23 673.77 636.02 679.51 638.02 687.33Z" fill="#CCCCCC"/>
<path d="M464.84 697.12C461.01 698.94 422.31 717.95 422 718.11L421.65 715.4C421.72 715.35 421.81 715.28 421.9 715.24C429.55 710.52 450.01 698.28 452.55 696.81C456.36 697.18 460.5 697.3 464.84 697.12Z" fill="#CCCCCC"/>
<path d="M544.86 655.66C541.47 657.72 538.05 659.73 534.57 661.69C518.21 671.07 501.19 679.6 483.99 687.91C480.26 686.71 477.37 685.22 475.55 683.44C481.71 679.91 517.29 659.75 522.5 656.92C523.31 656.83 526.47 656.48 527.22 656.41C533.41 655.81 539.34 655.56 544.86 655.66Z" fill="#CCCCCC"/>
<path d="M543.94 673.99C545.19 675.48 547.4 676.81 550.12 677.99C548.76 679.04 547.38 680.09 546 681.12C538.82 686.45 531.35 691.41 523.65 696.11C520.52 698.06 517.4 699.93 514.22 701.77C501.48 709.19 488.37 716.02 475.36 722.81C472.64 724.23 468.08 727.13 462.57 730.64C452.05 731.49 442.33 730.12 435 727.15C449.48 718.37 556.54 656.47 556.75 656.37C557.04 656.38 557.31 656.43 557.6 656.45C548.06 660.61 542.22 666.2 542.82 671.66C542.91 672.49 543.3 673.26 543.94 673.99Z" fill="#CCCCCC"/>
<path d="M542.44 699.65C542.8 702.85 536.74 706.15 528.92 707.02C521.09 707.89 514.46 706 514.11 702.79C513.75 699.59 519.81 696.28 527.63 695.41C535.46 694.55 542.09 696.45 542.44 699.65Z" fill="#242424"/>
<path d="M542.39 700.4C539.74 698.97 535.08 698.34 529.91 698.92C522.71 699.72 516.99 702.59 516.43 705.53C515.08 704.83 514.24 703.89 514.12 702.81C513.75 699.6 519.81 696.31 527.64 695.43C535.46 694.55 542.1 696.45 542.45 699.66C542.46 699.89 542.46 700.15 542.39 700.4Z" fill="#999999"/>
<path d="M247.52 710.71C245.64 716.98 236.83 722.08 224.41 724.7C215.86 721.2 203.27 718.74 189.24 718.25C185.8 718.13 182.29 718.45 178.89 718.91C175.66 719.37 172.52 719.95 169.6 720.44C175.24 722.2 179.59 724.23 182.23 726.38L185.16 725.9L184.84 729.58C185.05 730.12 185.16 730.66 185.16 731.19C185.15 731.87 184.99 732.53 184.65 733.17C184.6 733.27 184.53 733.36 184.47 733.46C180.04 740.67 154.7 745.44 124.13 744.38C112.44 743.96 101.51 742.77 92.21 741.01V735.71L104.56 734.21C105.22 733.34 105.65 732.44 105.79 731.48C105.85 731.21 105.88 730.93 105.88 730.66C105.87 729.85 105.58 729.06 105.02 728.27C103.26 725.8 98.97 723.43 93.53 721.36C89.17 719.69 84.1 718.2 79.04 716.99C70.67 719.98 59.52 721.61 47.25 721.19C42.39 721.03 37.71 720.54 33.28 719.8C22.82 718.04 13.9299 714.81 8.06995 710.77C3.24995 707.46 0.459971 703.62 0.469971 699.6L0.339966 692.35L4.05005 692.09C7.52005 688.63 13.35 685.8 20.71 683.87C22.92 684.99 25.55 686.04 28.49 686.98C31.3 687.88 34.41 688.68 37.77 689.36C44.16 690.66 51.43 691.53 59.16 691.78C61.53 691.87 63.9899 691.76 66.4399 691.53C72.4899 690.97 78.53 689.68 83.53 688.73C81.98 688.33 80.5 687.91 79.12 687.47C76.95 686.81 74.9499 686.09 73.1899 685.34C70.7599 684.34 68.73 683.27 67.15 682.16C64.61 680.39 63.21 678.51 63.2 676.61L63.52 669.82C63.5 669.81 63.51 669.8 63.54 669.79C63.9 669.73 67.5 669.52 71.17 669.33C78.23 666.46 89.53 664.42 103.1 663.65C109.69 663.25 116.83 663.16 124.26 663.43C125.14 663.46 125.97 663.49 126.85 663.53C129.44 663.66 131.97 663.81 134.46 664C136.66 664.16 138.82 664.36 140.93 664.58L141.42 662.71L161.06 662.51V667.81C152.17 669.69 145.75 672.7 143.46 676.32C142.83 677.3 142.48 678.32 142.48 679.38C142.48 680.58 143.37 681.79 144.87 682.99C149.07 686.4 158.11 689.7 166.08 692.1C174.65 688.28 187.19 686.11 201.12 686.6C205.4 686.75 209.55 687.13 213.48 687.74C228.4 689.99 240.35 695.22 245.34 701.59C245.88 702.29 246.35 703 246.73 703.73L247.92 702.91V708.15C247.91 708.16 247.91 708.19 247.92 708.21C247.9 708.24 247.91 708.26 247.9 708.29V710.43L247.52 710.71Z" fill="#999999"/>
<path d="M224.43 719.4C215.87 715.91 203.29 713.44 189.26 712.95C182.52 712.71 175.58 714.14 169.62 715.14C173.29 716.3 176.44 717.56 178.9 718.91C182.92 721.09 185.19 723.46 185.18 725.9L185.11 726.56C183.72 734.65 156.94 740.23 124.16 739.09C112.46 738.69 101.53 737.48 92.23 735.72C94.66 735.01 96.81 734.2 98.66 733.31C101.7 731.85 103.92 730.15 105.04 728.29C105.61 727.37 105.92 726.39 105.91 725.38C105.92 723.27 103.81 721.19 100.43 719.26C95.2801 716.29 87.1401 713.66 79.0601 711.73C70.6901 714.72 59.54 716.35 47.27 715.91C46.38 715.87 45.48 715.83 44.59 715.78C32.63 715.08 21.85 712.5 13.96 708.82C7.80996 705.96 3.42006 702.43 1.56006 698.6C1.14006 697.83 0.869961 697.08 0.709961 696.31C0.549961 695.67 0.469971 695.01 0.469971 694.34C0.479971 693.68 0.539951 693.02 0.699951 692.36C2.08995 686.43 9.70996 681.48 20.71 678.62C25.04 680.81 30.8099 682.69 37.5699 684.06C41.8299 684.94 46.48 685.62 51.38 686.06C53.9 686.28 56.5 686.44 59.14 686.54C63.72 686.7 68.57 686.14 73.17 685.39C76.85 684.81 80.4 684.08 83.51 683.48C79.99 682.56 76.83 681.57 74.12 680.49C70.07 678.9 67.0101 677.16 65.1801 675.31C64.2601 674.42 63.66 673.5 63.37 672.58C63.26 672.18 63.21 671.78 63.2 671.39C63.19 670.87 63.31 670.37 63.5 669.88C63.48 669.87 63.49 669.86 63.52 669.85C66.58 662.43 91.15 657.39 121.45 658.09C122.37 658.12 125.98 658.25 126.83 658.29C133.87 658.6 140.59 659.21 146.79 660.07C151.56 660.69 156.03 661.46 160.1 662.36C160.42 662.41 160.72 662.49 161.04 662.55C149.76 664.95 142.48 669.15 142.47 674.12C142.46 674.87 142.81 675.61 143.44 676.36C144.66 677.87 146.98 679.37 149.9 680.8C154.48 683.08 160.55 685.19 166.07 686.85C174.66 683.03 187.18 680.88 201.11 681.35C208.48 681.62 215.44 682.58 221.65 684.09C236.19 687.62 246.5 694.13 247.76 701.41C247.86 701.91 247.91 702.43 247.9 702.93C247.9 710.32 238.46 716.45 224.43 719.4Z" fill="#B3B3B3"/>
<path d="M247.78 701.4C246.94 701.47 246.13 701.55 245.34 701.61C239.86 702.09 235.29 702.45 232.52 702.81C189.05 708.6 147.66 720.81 105.81 731.48C103.44 732.09 101.04 732.7 98.66 733.3C101.7 731.84 103.92 730.14 105.04 728.28C105.61 727.36 105.92 726.38 105.91 725.37C105.92 723.26 103.81 721.18 100.43 719.25C110.42 716.2 120.49 713.29 130.64 710.57C156.62 703.62 183.5 698.15 208.69 689.57C210.29 689.03 211.89 688.42 213.47 687.75C216.22 686.64 218.93 685.38 221.66 684.06C236.21 687.61 246.51 694.11 247.78 701.4Z" fill="#CCCCCC"/>
<path d="M51.39 686.05C46.84 687.15 0.829961 698.79 0.459961 698.89L0.410034 696.41C0.500034 696.37 0.609961 696.33 0.709961 696.3C9.92996 693.14 34.5299 685.02 37.5699 684.05C41.8299 684.93 46.48 685.61 51.39 686.05Z" fill="#CCCCCC"/>
<path d="M146.81 660.05C142.73 661.42 138.62 662.75 134.46 664.02C114.84 670.14 94.58 675.42 74.14 680.47C70.09 678.88 67.03 677.14 65.2 675.29C72.59 672.98 115.23 659.88 121.46 658.07C122.38 658.1 125.99 658.23 126.84 658.27C133.89 658.59 140.6 659.19 146.81 660.05Z" fill="#CCCCCC"/>
<path d="M143.45 676.34C144.67 677.85 146.99 679.35 149.91 680.78C148.24 681.54 146.56 682.28 144.87 683.01C136.11 686.78 127.06 690.19 117.79 693.33C114.02 694.65 110.27 695.88 106.44 697.09C91.1499 701.97 75.51 706.25 59.99 710.53C56.75 711.42 51.24 713.38 44.59 715.76C32.63 715.06 21.85 712.48 13.96 708.8C31.39 702.95 159.86 662.39 160.11 662.33C160.43 662.38 160.73 662.46 161.05 662.52C149.77 664.92 142.49 669.12 142.48 674.09C142.48 674.86 142.83 675.6 143.45 676.34Z" fill="#CCCCCC"/>
<path d="M138.52 699.13C138.52 702.05 131.28 704.16 122.35 703.85C113.42 703.54 106.19 700.92 106.19 698C106.19 695.08 113.44 692.97 122.37 693.28C131.3 693.59 138.52 696.21 138.52 699.13Z" fill="#242424"/>
<path d="M138.36 699.79C135.55 698.14 130.39 696.93 124.48 696.72C116.27 696.44 109.46 698.21 108.45 700.76C107.01 699.94 106.19 698.99 106.19 698C106.18 695.07 113.42 692.96 122.36 693.27C131.28 693.57 138.52 696.2 138.51 699.12C138.51 699.35 138.47 699.57 138.36 699.79Z" fill="#999999"/>
</svg>
