<svg width="731" height="706" viewBox="0 0 731 706" fill="none" xmlns="http://www.w3.org/2000/svg">
<path d="M252.27 453.45C247.86 451.08 239.47 443.39 236.73 436.32C236.92 436.08 237.11 435.83 237.31 435.6C238.11 434.59 239.03 433.51 240.3 433.29C241.48 433.08 242.63 433.66 243.68 434.22C249.2 437.18 255.47 441.77 254.64 447.99C254.37 449.97 253.37 451.76 252.27 453.45Z" fill="#333333"/>
<path d="M206.46 495.45C204.03 492.56 203.57 488.38 204.43 484.7C205.27 481.01 207.25 477.69 209.26 474.49C217.59 461.21 226.99 448.62 236.73 436.32C236.92 436.08 237.11 435.83 237.31 435.6C238.11 434.59 239.03 433.51 240.3 433.29C241.48 433.08 242.63 433.66 243.68 434.22C249.2 437.18 255.47 441.77 254.64 447.99C254.38 449.97 253.38 451.76 252.27 453.45C252.09 453.74 251.89 454.02 251.7 454.31C246.63 461.8 241.04 468.93 235.45 476.06C231.72 480.82 227.99 485.58 224.26 490.33C220.23 495.45 212.62 502.77 206.46 495.45Z" fill="#1A1A1A"/>
<path d="M218.248 520.492C228.55 514.544 230.835 499.215 223.352 486.254C215.868 473.292 201.45 467.607 191.148 473.555C180.846 479.503 178.561 494.832 186.044 507.794C193.528 520.755 207.946 526.441 218.248 520.492Z" fill="#242424"/>
<path d="M215.197 523.284C225.499 517.336 227.784 502.007 220.301 489.045C212.817 476.084 198.399 470.399 188.097 476.347C177.795 482.295 175.51 497.624 182.993 510.585C190.477 523.547 204.895 529.232 215.197 523.284Z" fill="#242424"/>
<path d="M209.43 506.81C209.43 506.81 188.25 539.84 155.92 581.27C153.68 584.13 151.4 587.04 149.05 589.97C141.16 599.89 132.68 610.18 123.77 620.52C116.17 629.33 108.24 638.19 100.09 646.87C98.69 648.36 90.19 657.23 87.51 659.92C76.82 670.75 65.79 681.16 54.58 690.73C49.7 694.93 44.79 698.94 39.86 702.78C39.86 702.78 17.6199 708.34 0.939941 702.78C0.939941 702.78 23 683.31 53.23 653.42C64.22 642.55 76.29 630.31 88.77 617.11C89.7 616.14 102.07 602.88 104.68 600.01C113.13 590.78 121.62 581.22 129.99 571.45C138.29 561.78 146.43 551.89 154.26 541.93C157.55 537.75 160.78 533.56 163.93 529.36C174.51 515.29 186.47 503.62 195.87 490.98L209.43 506.81Z" fill="#B3B3B3"/>
<path d="M163.93 529.38C162.21 546.81 159.52 564.13 155.91 581.27C153.67 584.13 151.39 587.04 149.04 589.97C149.89 573.85 151.26 557.77 154.25 541.95C157.55 537.76 160.78 533.58 163.93 529.38Z" fill="#CCCCCC"/>
<path d="M104.68 600.03C104.3 610.39 102.12 621.67 101.73 628.95C101.42 634.65 100.77 640.68 100.08 646.87C98.68 648.36 95.59 651.61 95.45 651.75C95.12 637.36 95.63 622.84 96.84 608.54C99.44 605.73 102.07 602.89 104.68 600.03Z" fill="#CCCCCC"/>
<path d="M87.5 659.92C76.81 670.75 65.7799 681.16 54.5699 690.73C56.3099 678.35 55.88 665.66 53.22 653.42C64.21 642.55 76.28 630.31 88.76 617.11C90.78 630.01 89.63 645.51 87.5 659.92Z" fill="#CCCCCC"/>
<path d="M479.57 443.87C483.98 441.5 492.37 433.81 495.11 426.74C494.92 426.5 494.73 426.25 494.53 426.02C493.73 425.01 492.81 423.93 491.54 423.71C490.36 423.5 489.21 424.08 488.16 424.64C482.64 427.6 476.37 432.19 477.2 438.41C477.47 440.39 478.46 442.18 479.57 443.87Z" fill="#333333"/>
<path d="M525.38 485.87C527.81 482.98 528.27 478.8 527.41 475.12C526.57 471.43 524.59 468.11 522.58 464.91C514.25 451.63 504.85 439.04 495.11 426.74C494.92 426.5 494.73 426.25 494.53 426.02C493.73 425.01 492.81 423.93 491.54 423.71C490.36 423.5 489.21 424.08 488.16 424.64C482.64 427.6 476.37 432.19 477.2 438.41C477.46 440.39 478.46 442.18 479.56 443.87C479.74 444.16 479.94 444.44 480.13 444.73C485.2 452.23 490.79 459.35 496.38 466.48C500.11 471.24 503.84 476 507.58 480.75C511.61 485.87 519.22 493.19 525.38 485.87Z" fill="#1A1A1A"/>
<path d="M545.736 498.319C553.22 485.357 550.935 470.028 540.632 464.08C530.33 458.132 515.912 463.817 508.429 476.779C500.945 489.74 503.23 505.069 513.532 511.017C523.835 516.965 538.253 511.28 545.736 498.319Z" fill="#242424"/>
<path d="M548.778 501.066C556.261 488.104 553.976 472.775 543.674 466.827C533.372 460.879 518.954 466.564 511.47 479.526C503.987 492.487 506.272 507.816 516.574 513.764C526.876 519.712 541.294 514.027 548.778 501.066Z" fill="#242424"/>
<path d="M522.41 497.23C522.41 497.23 543.59 530.25 575.92 571.69C578.16 574.55 580.44 577.46 582.79 580.39C590.69 590.31 599.16 600.6 608.07 610.94C615.67 619.75 623.6 628.61 631.75 637.29C633.15 638.78 641.65 647.65 644.33 650.34C655.02 661.17 666.05 671.58 677.26 681.15C682.14 685.35 687.05 689.36 691.98 693.2C691.98 693.2 714.22 698.76 730.9 693.2C730.9 693.2 708.84 673.73 678.61 643.84C667.62 632.97 655.55 620.73 643.07 607.53C642.14 606.56 629.77 593.3 627.16 590.43C618.71 581.2 610.22 571.64 601.85 561.87C593.55 552.2 585.41 542.31 577.58 532.35C574.29 528.17 571.06 523.98 567.91 519.78C557.33 505.71 545.37 494.04 535.97 481.4L522.41 497.23Z" fill="#B3B3B3"/>
<path d="M567.91 519.8C569.63 537.23 572.32 554.55 575.93 571.69C578.17 574.55 580.45 577.46 582.8 580.39C581.95 564.27 580.58 548.19 577.59 532.37C574.29 528.18 571.06 524 567.91 519.8Z" fill="#CCCCCC"/>
<path d="M627.16 590.45C627.54 600.81 629.72 612.09 630.11 619.37C630.42 625.07 631.07 631.1 631.76 637.29C633.16 638.78 636.25 642.03 636.39 642.17C636.72 627.78 636.21 613.26 635 598.96C632.4 596.15 629.77 593.32 627.16 590.45Z" fill="#CCCCCC"/>
<path d="M644.34 650.35C655.03 661.18 666.06 671.59 677.27 681.16C675.53 668.78 675.96 656.09 678.62 643.85C667.63 632.98 655.56 620.74 643.08 607.54C641.06 620.43 642.21 635.93 644.34 650.35Z" fill="#CCCCCC"/>
<path d="M430.18 451.79C431.82 463.23 423.85 474.37 410.13 479.23C407.9 480.02 359.1 496.76 358.66 496.91C357.79 496.61 322.98 484.82 307.17 479.23C292.16 473.92 284.05 461.09 287.83 448.58C289.03 444.61 294.17 427.08 294.61 425.56C294.63 425.49 294.29 423.56 293.7 420.48C292.99 416.71 291.92 411.2 290.74 405.21C287.71 389.72 283.95 371 283.77 370.8C283.4 362.95 283.5 355.09 284.28 347.22C286.14 328.58 291.9 310.44 298.48 292.64C300.61 289.79 302.9 287.07 305.35 284.54C306.01 283.84 306.69 283.17 307.38 282.5C311.09 278.95 315.18 275.87 319.75 273.47C319.86 273.41 319.99 273.35 320.1 273.3C320.54 273.06 320.96 272.85 321.41 272.64C330.84 268.15 342.25 266.5 356.5 269.54C356.99 269.64 357.49 269.75 357.97 269.88C358.19 269.92 358.42 269.98 358.64 270.03C359.34 269.86 360.06 269.69 360.77 269.54C377.27 266.02 389.98 268.77 400.2 274.97C403 276.67 405.62 278.64 408.06 280.8C408.31 281.01 408.55 281.22 408.78 281.46C410.23 282.77 411.61 284.16 412.95 285.59C415.56 288.4 417.97 291.43 420.23 294.59C427.55 313.35 432.1 333.09 434.03 352.68C434.55 358.05 434.9 363.52 435.02 369.01C434.67 369.43 431.67 383.77 428.78 398.1C427.92 402.39 425.5 414.6 425.13 416.4C423.91 422.65 423.1 427 423.13 427.15C423.06 427.29 423.84 430.02 424.89 433.53C426.5 438.94 428.74 446.19 429.45 448.57C429.79 449.64 430.03 450.72 430.18 451.79Z" fill="#242424"/>
<path d="M425.49 661.78C425.58 665.02 425.76 668.48 427.97 671.1C430.5 674.11 435.02 675.21 439.2 676.13C449.53 678.39 459.86 680.65 470.19 682.92C474.64 683.9 479.66 684.81 483.59 682.75C472.31 678.34 461.67 672.73 451.99 666.07C449.2 664.15 446.45 662.12 444.38 659.6C441.62 656.25 440.22 652.21 439.17 648.2C437.92 643.45 437.11 638.61 436.74 633.75C436.52 630.93 436.44 628.04 435.23 625.42C434.02 622.8 431.37 620.45 428.11 620.26C421.08 632.52 425.49 648.34 425.49 661.78Z" fill="#1A1A1A"/>
<path d="M420.42 636.17C421.63 637.21 423.37 637.64 425.05 637.93C430.07 638.81 435.28 638.87 440.32 638.1C443.38 637.64 446.81 636.55 447.84 634.02C448.28 632.94 448.2 631.76 448.12 630.62C447.89 627.5 447.66 624.37 447.43 621.25C447.21 618.22 446.85 614.9 444.39 612.72C442.11 610.7 438.53 610.19 435.28 610.49C429.74 611 420.75 611.75 418.5 616.86C416.67 621.01 416.79 633.05 420.42 636.17Z" fill="#333333"/>
<path d="M474.24 612.68C473.57 613.68 472.3 614.27 471.09 614.78C463.59 618 455.66 620.46 447.49 622.12C443.19 622.98 438.82 623.63 434.43 624.06C431.67 624.33 428.9 624.51 426.13 624.58C423.2 624.68 420.26 624.67 417.34 624.54C416.25 624.5 415.18 624.45 414.11 624.38C402.3 623.61 389.91 620.81 381.85 613.31C374.1 606.11 371.66 595.86 370.05 586.12C365.16 556.42 364.94 526.07 360 496.46C359.41 492.88 358.74 489.31 357.99 485.74C356.75 479.88 355.28 474.07 353.5 468.3C351.08 460.43 348.48 452.16 351.28 444.43C351.77 443.09 352.4 441.77 353.24 440.47C354.66 438.26 356.11 436.05 357.66 433.88C361.24 428.81 365.29 423.99 370.42 420.06C373.57 417.64 377.1 415.62 380.87 414.02C384.78 412.36 388.96 411.16 393.24 410.5C399.86 409.46 407.29 409.88 412.55 413.41C412.66 413.49 412.78 413.56 412.89 413.65C413.03 413.74 413.18 413.84 413.31 413.95C417.58 417.21 419.47 422.15 421.16 426.86C422.13 429.56 430.52 452.78 430.7 453.27C437.95 473.37 445.23 493.51 450.06 514.15C452.36 523.99 454.11 533.91 456.78 543.68C462.76 565.4 473.37 586.4 474.78 608.68C474.81 608.89 474.82 609.09 474.83 609.3C474.91 610.43 474.92 611.67 474.24 612.68Z" fill="#242424"/>
<path d="M290.33 662.5C290.24 665.74 290.06 669.2 287.85 671.82C285.32 674.83 280.8 675.93 276.62 676.85C266.29 679.11 255.96 681.37 245.63 683.64C241.18 684.62 236.16 685.53 232.23 683.47C243.51 679.06 254.15 673.45 263.83 666.79C266.62 664.87 269.37 662.84 271.44 660.32C274.2 656.97 275.6 652.93 276.65 648.92C277.9 644.17 278.71 639.33 279.08 634.47C279.3 631.65 279.38 628.76 280.59 626.14C281.8 623.52 284.45 621.17 287.71 620.98C294.73 633.24 290.33 649.06 290.33 662.5Z" fill="#1A1A1A"/>
<path d="M295.4 636.89C294.19 637.93 292.45 638.36 290.77 638.65C285.75 639.53 280.54 639.59 275.5 638.82C272.44 638.36 269.01 637.27 267.98 634.74C267.54 633.66 267.62 632.48 267.7 631.34C267.93 628.22 268.16 625.09 268.39 621.97C268.61 618.93 268.97 615.62 271.43 613.44C273.71 611.42 277.29 610.91 280.54 611.21C286.08 611.72 295.07 612.47 297.32 617.58C299.14 621.73 299.03 633.77 295.4 636.89Z" fill="#333333"/>
<path d="M362.32 469.01C350.52 507.29 352.23 547.62 345.76 586.84C344.15 596.58 341.72 606.82 333.97 614.03C325.91 621.53 313.52 624.33 301.7 625.1C282.17 626.38 262.26 623.03 244.72 615.5C243.51 614.98 242.26 614.4 241.57 613.39C240.88 612.38 240.9 611.14 240.97 609.98C242.23 587.47 253 566.28 259.02 544.35C261.7 534.59 263.44 524.66 265.74 514.83C270.57 494.19 277.84 474.05 285.1 453.95C288.28 445.15 291.46 436.35 294.64 427.55C296.34 422.85 298.22 417.9 302.5 414.64C307.8 410.61 315.62 410.11 322.57 411.19C331 412.5 338.99 415.85 345.39 420.76C352.71 426.37 357.8 433.79 362.56 441.17C368.24 449.98 365.17 459.78 362.32 469.01Z" fill="#242424"/>
<path d="M339.76 402.81C338.58 408.13 337.38 413.75 333.31 417.87C329.24 422 321.24 423.77 316.69 420.04C312.54 416.64 313.27 410.85 314.51 406.03C322.58 374.68 339 345.48 355.27 316.6C358.44 310.98 375.22 272.18 383.54 273.31C395.03 274.87 400.44 273.86 389.27 296.26C373.43 328.03 347.28 368.84 339.76 402.81Z" fill="#333333"/>
<path d="M520.82 461.77C520.72 461.73 520.61 461.71 520.51 461.67C512 459.05 505.45 460.72 500.52 471.75C500.36 472.11 500.2 472.49 500.03 472.87C499.18 472.82 494.04 472.73 493.25 472.58C484.42 470.89 478.17 462.31 477.44 453.45C477.15 450.08 477.68 446.66 479.18 443.57L479.62 447.45C479.93 446.78 480.28 446.13 480.68 445.5C484.1 439.99 490.38 436.29 496.86 436.12C497.41 436.09 497.97 436.11 498.53 436.15C499.93 436.25 501.53 436.62 503.24 437.22C506.25 438.26 509.57 439.98 512.6 442.06C513.31 442.55 514.01 443.06 514.67 443.58C518.57 446.61 521.64 450.16 522.41 453.43C523.11 456.43 522.41 459.24 520.82 461.77Z" fill="#D6A99A"/>
<path d="M512.6 442.08C512.06 442.58 511.51 443.07 510.95 443.53C510.34 444.05 509.7 444.55 509.05 445.04C502.55 449.96 494.71 453.19 486.6 453.8C485.49 453.89 484.37 453.92 483.24 453.91C481.28 453.88 479.34 453.72 477.43 453.45C456.63 450.43 438.94 433.14 432.3 412.9C430.71 408.07 429.65 403.11 428.78 398.11C427.49 390.84 426.6 383.48 425.01 376.27C422.66 365.7 418.79 355.46 413.57 345.97C411.42 342.05 409.05 338.27 406.45 334.63C402.54 329.15 397.25 322.33 393.65 315.19C389.41 306.74 387.55 297.82 393.16 290.1C394.11 288.78 395.29 287.49 396.72 286.24C398.67 284.54 400.59 283.36 402.49 282.58C402.5 282.57 402.53 282.57 402.54 282.55C403.41 282.2 404.3 281.94 405.17 281.75C406.38 281.5 407.59 281.4 408.79 281.45C411.87 281.56 414.9 282.57 417.85 284.11C424.09 287.36 430.06 292.89 435.69 297.03C438.47 299.08 441.23 301.15 443.94 303.26C476.14 328.15 502.84 356.59 520.1 394.55C522.25 399.29 524.26 404.16 525.12 409.31C527.22 421.6 521.73 433.62 512.6 442.08Z" fill="#242424"/>
<path d="M250.77 446.99L250.53 450.9C246.86 444.01 238.78 439.68 231.03 440.64C223.28 441.6 210.79 451.16 209.42 458.84C208.87 461.88 209.64 464.7 211.29 467.17C220.56 467.07 227.99 471.03 233.44 477.3C235.13 477.28 236.76 477.09 238.28 476.71C250.33 473.73 256.76 457.86 250.77 446.99Z" fill="#D6A99A"/>
<path d="M207.23 400.27C205.34 405.12 203.6 410.09 203.01 415.27C200.39 438.39 224.05 459.13 247.26 457.54C270.47 455.95 289.86 436.29 295.92 413.83C299.16 401.8 299.19 389.16 301.22 376.86C303.71 361.77 309.28 347.19 317.48 334.28C326.09 320.73 342.14 299.2 324.58 285.44C309.76 273.83 297.45 289.1 286.24 298.33C251.84 326.63 223.68 358.17 207.23 400.27Z" fill="#242424"/>
<path d="M351.46 344.44C355.14 344.49 353.01 333.28 353.79 330.18C354.89 325.77 351.01 321.76 348.37 317.88C340.61 306.48 338.6 292.78 330.65 281.21C325.46 273.66 320.94 267.74 317.18 278.34C314.04 287.2 318.51 297.27 322.63 305.16C326.54 312.63 339.31 344.26 351.46 344.44Z" fill="#333333"/>
<path d="M439.18 76.94C437.7 67.03 437.94 55.72 444.94 48.55C453.42 39.86 467.79 41.22 479.18 45.42C509.16 56.47 533.51 82.44 565.24 86.17C560.55 75.23 555.86 64.29 551.18 53.35C557.86 61.53 562.93 71.02 565.99 81.13C568.02 87.82 568.24 96.84 561.96 99.93C557.68 102.04 552.56 100.11 548.33 97.89C528.82 87.66 511.86 71.1001 490.11 67.5901C487.38 67.1501 484.55 66.93 481.88 67.65C473.94 69.78 470.29 79.27 470.63 87.48C470.98 95.69 474.05 103.62 474.28 111.84C474.52 120.29 471.42 129.05 465 134.55C458.58 140.05 448.69 141.64 441.4 137.36C428.49 129.78 435.35 121.47 439.14 112.89C444.49 100.76 441.17 90.27 439.18 76.94Z" fill="#333333"/>
<path d="M540.27 153.89C543.83 155.85 547.43 157.91 551.41 158.7C555.4 159.48 559.93 158.75 562.72 155.8C566.32 151.99 565.94 146.02 565.16 140.84C563.64 130.82 561.43 120.9 558.57 111.17C561.76 116.67 563.21 123.17 562.67 129.5C562.25 134.49 559.92 140.05 555.1 141.38C551.68 142.32 548.1 140.82 544.94 139.23C530.95 132.19 518.15 122.54 503.25 117.72C491.94 114.06 477.81 113.53 467.33 119.95C457.58 125.92 451.93 140.3 466.48 144.17C477.8 147.18 486.14 133.97 497.47 134.75C511.26 135.7 528.42 147.35 540.27 153.89Z" fill="#333333"/>
<path d="M489.34 141.6C489.33 145.57 489.14 149.49 488.75 153.37C488.51 156 488.17 158.6 487.76 161.18C484.33 182.85 475.41 202.71 462.46 219.25C458.03 224.94 453.1 230.25 447.76 235.1C440.63 241.59 432.75 247.26 424.28 252.01C405.87 262.31 384.63 268.15 362.03 268.08C340.33 268.01 319.91 262.5 302.09 252.83C285.14 243.65 270.53 230.73 259.37 215.16C257.1 212.04 255 208.8 253.04 205.46C245.76 193.11 240.52 179.42 237.77 164.85C236.93 160.47 236.33 156 235.98 151.48C235.69 147.94 235.55 144.38 235.56 140.76C235.58 135.54 235.91 130.4 236.54 125.36C244.34 62.5699 298.01 14.07 362.87 14.28C422.38 14.47 472.2 55.6099 485.72 110.94C488.12 120.78 489.38 131.03 489.34 141.6Z" fill="#242424"/>
<path d="M316.79 20.9C329.74 10.87 344.73 0.349971 362.35 0.839971C374.35 1.17997 385.24 6.68992 394.87 12.7299C418.47 27.5199 438.3 46.5199 452.66 68.0999C457.94 76.0399 462.62 85.02 460.65 93.96C458.72 102.73 450.51 109.84 440.96 113.74C431.41 117.64 420.61 118.78 410.01 119.34C375.67 121.16 341.28 117.48 307.14 113.8C283.53 111.26 243.73 106.67 257.55 79.9399C269.55 56.7199 295.1 37.7 316.79 20.9Z" fill="#242424"/>
<path d="M285.9 231.36C274.58 219.24 264.28 205.72 258.5 190.24C258.28 189.67 258.07 189.08 257.88 188.5C257.63 187.81 257.4 187.12 257.18 186.43C256.66 184.78 256.19 182.27 255.73 179.22C254.01 167.82 265.33 151.81 260.86 140.85C260.75 140.58 240.89 129.62 240.78 129.37C229.33 152.3 227.41 184.59 221.7 209.84C225.84 219.91 234.09 228.28 242.86 235.41C244.04 236.36 245.21 237.29 246.39 238.2C247 238.67 247.62 239.15 248.25 239.6C262.6 250.43 279.14 259.98 296.34 263.46C304.89 265.2 313.63 265.44 322.34 263.58C309.21 254.03 297 243.21 285.9 231.36Z" fill="#242424"/>
<path d="M498.53 196.59C495.67 180.53 494.16 157.14 489.34 141.6C487.06 136.35 482.21 138.74 479.45 133.67C479.04 132.91 478.77 132.16 478.62 131.42C471.58 136.66 468.84 157.29 466.75 172.43C465.87 178.82 465.11 184.24 464.18 187.1C463.51 189.12 462.79 191.12 461.97 193.07C461.79 193.53 461.59 194 461.4 194.45C455.35 208.42 445.69 220.73 435.16 231.85C424 243.63 411.71 254.37 398.52 263.82C409.14 266.15 419.82 265.38 430.18 262.56C437.93 260.44 445.51 257.19 452.79 253.24C460.17 249.24 467.23 244.52 473.82 239.56C474.09 239.35 474.36 239.16 474.63 238.95C485.51 230.67 496.4 220.63 500.58 207.91C499.89 204.13 499.2 200.36 498.53 196.59Z" fill="#242424"/>
<path d="M479.56 237.51C479.49 258.85 425.08 292.92 362.32 292.71C299.56 292.5 248.77 264.17 248.84 242.83C248.91 221.49 299.81 215.22 362.57 215.42C425.33 215.63 479.63 216.17 479.56 237.51Z" fill="#1A1A1A"/>
<path d="M471.99 226.69C469.88 215.03 466.48 203.73 461.97 193.08C459.53 187.31 456.75 181.71 453.66 176.36C448.89 168.06 443.37 160.34 437.22 153.35C383.58 162.62 328.66 154.81 274.37 157.86C269.34 164.74 264.9 172.31 261.18 180.52C259.99 183.11 258.88 185.78 257.87 188.51C253.93 198.92 251.09 210.19 249.55 222.21C248.83 227.85 248.39 233.66 248.25 239.6C262.6 250.43 279.14 259.98 296.34 263.46C315.87 274.05 338.23 280.08 361.99 280.16C386.74 280.24 410 273.85 430.17 262.56C437.92 260.44 445.5 257.19 452.78 253.24C460.16 249.24 467.22 244.52 473.81 239.56C473.37 235.23 472.77 230.94 471.99 226.69Z" fill="#1A1A1A"/>
<path d="M442.37 203.77C427.88 165.77 397.04 190.59 373.44 199.13C369.44 200.57 360.78 200.9 360.58 200.89C360.58 200.89 352.89 200.52 348.9 199.05C325.35 190.35 294.67 165.34 279.94 203.24C274.81 216.46 273.18 232.36 281.17 244.07C291.84 259.7 316.46 260.73 331.77 249.58C334.75 247.41 338.96 245.15 343.27 243.09C354.52 237.73 367.57 237.77 378.78 243.21C383.07 245.29 387.27 247.58 390.24 249.77C405.47 261.02 430.1 260.15 440.87 244.59C448.93 232.94 447.41 217.02 442.37 203.77Z" fill="#D6A99A"/>
<path d="M304.79 221.73C305.05 230.04 309.7 236.64 315.18 236.46C320.66 236.29 324.88 229.41 324.62 221.1C324.36 212.79 319.71 206.19 314.23 206.37C308.75 206.55 304.53 213.42 304.79 221.73Z" fill="#1A1A1A"/>
<path d="M404.6 222.77C404.86 231.08 409.51 237.68 414.99 237.5C420.47 237.33 424.69 230.45 424.43 222.14C424.17 213.83 419.52 207.23 414.04 207.41C408.57 207.59 404.34 214.46 404.6 222.77Z" fill="#1A1A1A"/>
<path d="M344.15 153.04C394.61 155.8 421.23 148.96 465.71 124.96C483.66 115.27 482.7 100.56 482.7 100.56C486.28 102.15 492.03 106.62 492.71 110.48C494.03 118.03 495.35 125.58 496.66 133.13C496.97 134.91 497.28 136.78 496.69 138.49C495.94 140.68 493.92 142.14 492.01 143.44C479.22 152.2 466.25 161.05 451.7 166.4C433.66 173.04 414.1 173.99 394.9 174.81C366.22 176.04 337.26 177.14 309.02 172C280.78 166.86 252.93 154.9 233.62 133.67C231.06 128.85 232.14 122.38 236.13 118.66C239.57 115.45 226.13 106.54 240.63 108.34C248.03 109.25 261.07 126.64 268.45 130.73C297.2 146.69 323.45 151.9 344.15 153.04Z" fill="#333333"/>
<path d="M427.49 410.14C427.24 412.79 426.02 425.92 425.65 429.84C425.54 431.08 425.39 432.39 424.9 433.54C424.7 434.04 424.44 434.5 424.08 434.91C423.97 435.03 423.87 435.15 423.74 435.26C422.34 436.58 420.19 437 418.2 437.33C411.79 438.42 405.39 439.49 398.97 440.48C387.43 442.24 375.84 443.69 364.18 444.23C362.02 444.33 359.86 444.39 357.7 444.43C355.56 444.47 353.42 444.45 351.27 444.42C332.99 444.07 314.65 440.92 298.59 433.25C296.89 432.44 295.16 431.5 293.63 430.4C293.51 430.33 293.38 430.24 293.27 430.15C292.18 429.35 291.2 428.45 290.44 427.45C289.62 426.43 289 425.29 288.7 424.03C288.19 421.91 287.98 407.43 289.49 406.04C289.86 405.7 290.29 405.43 290.74 405.22C292.64 404.31 295.13 404.45 297.77 405.06C302.33 406.1 307.26 408.53 309.96 409.28C311.2 409.62 312.44 409.94 313.69 410.23C314.4 410.4 315.11 410.57 315.82 410.73C320.58 411.75 325.41 412.49 330.28 413.01C332.33 413.22 334.37 413.41 336.42 413.56C347.11 414.33 357.92 414.25 368.53 414.13C372.65 414.09 394.07 413.88 400.68 413.81C404.61 413.77 408.61 413.71 412.55 413.4C413.46 413.33 414.37 413.24 415.28 413.13C415.63 413.09 415.98 413.04 416.33 412.99C419.75 412.54 423.11 411.8 426.29 410.62C426.69 410.47 427.09 410.3 427.49 410.14Z" fill="#333333"/>
<path opacity="0.06" d="M367.52 65.06C367.47 67.24 367.56 69.57 368.81 71.35C370.91 74.35 375.17 74.51 378.72 75.41C384.69 76.91 389.55 81.12 394.17 85.19C415.95 104.38 437.91 123.76 455.25 147.05C472.59 170.34 485.19 198.14 485.6 227.17C503.54 207.4 497.92 176.56 491.19 150.72C482.71 118.15 473.72 84.55 452.83 58.17C440.51 42.61 419.84 23.98 399.73 19.66C374.78 14.28 368.02 41.81 367.52 65.06Z" fill="#FFF8FF"/>
<path opacity="0.06" d="M406.79 245.17C419.73 245.9 432.88 241.94 443.27 234.18C449.52 241.81 447.37 253.77 441.12 261.4C434.86 269.02 425.55 273.34 416.57 277.42C399.88 284.99 364.46 294.9 357.55 268.38C349.5 237.53 390.37 244.24 406.79 245.17Z" fill="#FFF8FF"/>
<path opacity="0.06" d="M485.85 425.98C485.87 425.99 485.9 426.02 485.93 426.04C486.6 428 487.29 429.95 487.96 431.91C487.15 429.99 485.29 425.62 485.18 425.34C485.4 425.56 485.62 425.77 485.85 425.98Z" fill="#FFF8FF"/>
<path opacity="0.06" d="M512.6 442.08C513.31 442.57 514.01 443.08 514.67 443.6C513.73 443.7 512.79 443.7 511.84 443.63C511.54 443.6 511.25 443.58 510.95 443.53C509.69 443.37 508.48 443.07 507.29 442.66C503.48 441.32 500.05 438.88 496.85 436.14C495.48 434.97 494.14 433.73 492.84 432.52C492.64 432.33 492.43 432.15 492.23 431.95C490.12 429.99 488.02 428.02 485.91 426.06C485.9 426.03 485.9 426 485.88 425.97C476.48 398.83 467.07 371.69 457.66 344.54C453.75 333.25 445.64 317.27 443.95 303.28C476.15 328.17 502.85 356.61 520.11 394.57C522.26 399.31 524.27 404.18 525.13 409.33C527.22 421.6 521.73 433.62 512.6 442.08Z" fill="#FFF8FF"/>
<path opacity="0.06" d="M405.01 303.97C397.01 310.98 390.12 319.3 382.76 327.17C382.24 327.97 381.73 328.77 381.21 329.57C378.46 333.84 375.65 338.29 374.94 343.32C373.34 354.65 382.56 364.33 391.02 372.04C393.13 373.97 395.49 376 398.34 376.14C402.39 376.34 405.55 372.7 407.51 369.15C418.28 349.59 412.75 325.46 406.95 303.9C406.3 303.9 405.66 303.92 405.01 303.97Z" fill="#FFF8FF"/>
<path opacity="0.06" d="M474.79 608.63C470.27 614.96 463.29 619.02 455.88 617.13C451.81 616.09 448.35 613.48 445.01 610.94C431.16 600.39 416.2 587.96 414.09 570.61C413.2 563.31 414.76 555.98 415.54 548.66C416.65 538.05 408.61 509.68 403.33 481.62C400.57 466.96 398.56 452.41 399 440.47C399.5 426.67 403.26 416.41 412.91 413.62C413.67 413.4 414.47 413.22 415.31 413.11C415.66 413.07 416.01 413.02 416.36 412.97C416.61 412.95 416.86 412.92 417.11 412.91C419.94 412.74 422.63 413.98 425.18 416.41C425.72 416.92 426.25 417.48 426.79 418.1C426.42 422.02 426.05 425.93 425.69 429.85C425.58 431.09 425.43 432.4 424.94 433.55C426.55 438.96 428.79 446.21 429.5 448.59C429.82 449.65 430.06 450.72 430.21 451.8C430.38 452.29 430.56 452.76 430.73 453.25C437.98 473.35 445.26 493.49 450.09 514.13C452.39 523.97 454.14 533.89 456.81 543.66C462.76 565.36 473.37 586.36 474.79 608.63Z" fill="#FFF8FF"/>
</svg>
