<svg width="410" height="702" viewBox="0 0 410 702" fill="none" xmlns="http://www.w3.org/2000/svg">
<path d="M385.13 385.56C391.75 391.82 398.46 398.18 403.23 405.94C405.58 409.76 407.43 413.91 408.42 418.28C410.51 427.57 408.41 437.71 402.81 445.4C394.14 457.31 377.75 462.32 363.36 459.14C348.97 455.96 336.81 445.49 329.64 432.62C322.96 420.64 320.29 406.9 317.71 393.42C314.73 377.85 311.76 362.29 308.78 346.72C306.9 336.9 298.71 317.51 313.98 319.52C323.73 320.81 340.86 343.71 348.13 350.58C360.46 362.24 372.79 373.9 385.13 385.56Z" fill="#1A1A1A"/>
<path d="M206.22 335.07C226.79 359.23 242.06 387.36 257.18 415.26C249.71 409.83 225.95 392.54 221.54 389.33C199.94 373.62 178.33 357.91 157.42 341.29C143.02 329.85 102.69 306.02 104.67 285.09C109.71 231.53 196.31 323.44 206.22 335.07Z" fill="#1A1A1A"/>
<path d="M71.08 299.61C73.33 303.25 78.1999 304.12 82.4799 304.24C104.42 304.86 126.41 294.62 140.05 277.43C143.4 273.21 146.33 268.42 146.99 263.08C147.65 257.74 145.55 251.78 140.85 249.17C137.45 247.28 133.32 247.38 129.44 247.69C113.32 248.96 54.1299 272.1 71.08 299.61Z" fill="#333333"/>
<path d="M114.03 276.6C107.91 279.98 100.18 279.31 93.8 276.44C87.41 273.59 82.09 268.81 77.01 264.02C55.89 244.16 36.43 222.59 17.6 200.53C17.24 200.09 16.86 199.66 16.49 199.22C14.95 197.4 13.31 195.35 13.37 192.97C13.41 190.75 14.88 188.88 16.27 187.18C23.62 178.23 34.19 168.5 45.17 172.22C48.67 173.4 51.56 175.85 54.23 178.47C54.68 178.91 55.14 179.36 55.59 179.81C67.37 191.68 78.3 204.39 89.23 217.08C96.53 225.56 103.83 234.02 111.11 242.5C118.97 251.62 129.52 268.05 114.03 276.6Z" fill="#1A1A1A"/>
<path d="M54.25 178.47C48.37 185.62 31.41 198.1 17.61 200.53C17.25 200.09 16.87 199.66 16.5 199.22C14.96 197.4 13.32 195.35 13.38 192.97C13.42 190.75 14.89 188.88 16.28 187.18C23.63 178.23 34.2 168.5 45.18 172.22C48.69 173.4 51.58 175.85 54.25 178.47Z" fill="#333333"/>
<path d="M353.49 451.31C355.32 445.09 360.85 440.11 367.24 438.96C373.62 437.81 380.55 440.53 384.44 445.72C388.68 451.39 389.11 459.27 386.91 466C384.54 473.23 378.81 479.76 371.34 481.2C363.85 482.64 355.74 478.33 352.42 471.46C349.1 464.59 350.63 455.79 355.79 450.18C356.42 449.49 357.25 448.8 358.17 448.95C359.09 449.1 359.53 450.65 358.63 450.92L353.49 451.31Z" fill="#D6A99A"/>
<path d="M305.72 633.02C307.15 641.65 308.58 650.28 310.02 658.9C310.67 662.81 311.36 666.83 313.48 670.17C317.17 675.98 324.24 678.44 330.66 680.9C338.94 684.07 346.98 687.85 354.69 692.22C358.74 694.51 362.96 697.27 364.6 701.62C346.96 698.35 329.33 695.08 311.69 691.82C308.85 691.29 305.76 690.62 303.96 688.37C302.76 686.87 302.34 684.91 301.95 683.02C299.13 669.2 296.31 655.38 293.49 641.55C292.54 636.89 291.8 631.41 295.04 627.92L305.72 633.02Z" fill="#1A1A1A"/>
<path d="M290.72 662.25C291.56 663.59 293.36 663.84 294.94 663.96C298.04 664.19 301.13 664.43 304.23 664.66C307.74 664.92 311.84 664.95 314.05 662.21C315.59 660.31 315.68 657.66 315.71 655.22C315.75 651.65 315.79 648.08 315.83 644.51C315.84 643.92 315.84 643.3 315.56 642.77C315.32 642.32 314.91 641.99 314.5 641.7C311.22 639.34 307.2 638.01 303.15 637.94C297.23 637.85 289.2 635.53 287.29 641.52C286.41 644.26 289.46 660.23 290.72 662.25Z" fill="#333333"/>
<path d="M361.99 605.35C359.95 614.82 357.44 624.32 352.64 632.8C347.84 641.27 340.5 648.71 331.17 652.04C317.35 656.97 302.06 652.28 288.18 647.52C280.38 644.84 271.93 641.63 267.88 634.61C263.26 626.61 265.99 616.66 268.83 607.9C284.67 558.96 286.71 507.15 302.55 458.22C305.6 448.79 322.42 425.28 334.71 423.66C348.64 421.83 355.32 445.93 357.86 455.29C366.42 486.83 370.08 519.62 368.74 552.21C367.98 570.07 365.75 587.86 361.99 605.35Z" fill="#1A1A1A"/>
<path d="M347.63 368.78C345.34 387.37 342.2 405.85 338.21 424.16C336.79 430.62 334.98 437.54 329.8 441.66C326.64 444.17 322.61 445.29 318.63 446.07C286.62 452.35 253.21 439.9 227.31 420.07C201.4 400.26 181.67 373.63 162.31 347.37C157.26 340.54 152.02 333.12 151.85 324.64C151.7 317.72 154.99 311.26 158.48 305.3C163.2 297.24 170.23 284.55 177.62 274.04C181.23 268.88 184.94 264.27 188.5 260.99C189.26 260.28 190.03 259.63 190.77 259.07C203.93 248.99 235.74 257.78 252.28 260.52C260.67 261.92 269.18 263.61 276.57 267.8C284.76 272.45 290.97 279.82 297 287.05C310.2 302.85 323.4 318.64 336.6 334.44C341.19 339.96 345.95 345.73 347.62 352.72C348.86 357.96 348.3 363.44 347.63 368.78Z" fill="#242424"/>
<path d="M270.76 324.4C253.8 309.64 226.73 306.21 207.94 293.77C203.47 290.81 185.63 281.9 177.62 274.03C181.23 268.87 184.94 264.26 188.5 260.98C194.6 260.96 200.66 263.03 206.37 265.41C225.34 273.36 271.3 303.28 270.97 305.26C268.83 317.9 272.86 311.79 270.76 324.4Z" fill="#333333"/>
<path d="M222.43 476.66C223.35 478.38 225.09 479.48 226.76 480.5C235.5 485.84 244.25 491.19 252.99 496.53C263.56 502.99 274.37 509.66 281.99 519.43C286.49 525.2 290.72 532.56 297.96 533.53C301.71 534.04 305.44 532.61 308.81 530.91C332.91 518.7 346.42 491.44 349.29 464.58C352.16 437.72 346.08 410.8 340.04 384.47C339.31 381.27 338.36 377.75 335.61 375.94C333.73 374.71 331.37 374.54 329.12 374.43C294.77 372.76 260.18 371.03 236.37 399.42C229.64 407.44 226.81 414.72 225.31 425.05C223.62 436.61 217.09 466.63 222.43 476.66Z" fill="#242424"/>
<path d="M228.02 414.93C236.45 413.94 244.88 412.94 253.3 411.95C260.12 369.15 272.76 327.29 290.78 287.87C296.65 275.04 287.97 264.41 277.64 275.02C269.38 283.5 266.08 306.17 262.17 317.1C250.54 349.62 239.16 382.23 228.02 414.93Z" fill="#333333"/>
<path d="M346.38 388.33C339.67 382.92 329.82 381.17 320.87 380.73C295.33 379.49 269.54 384.05 245.95 393.89C232.4 399.55 219.75 403.89 215.63 412.01C220.96 416.75 223.49 424.77 223.62 432.77C241.66 425.66 259.16 421.04 278.65 418.1C288.82 416.57 299.06 415.03 309.33 415.53C317.59 415.93 325.73 417.64 333.83 419.34C338.11 420.24 342.39 421.14 346.67 422.04C346.64 410.82 346.43 399.57 346.38 388.33Z" fill="#333333"/>
<path d="M192.54 616.79C189.32 627.42 186.11 638.05 182.89 648.68C181.43 653.49 179.9 658.45 176.68 662.3C171.08 669.01 161.78 670.95 153.29 672.99C142.35 675.62 131.6 679.07 121.17 683.31C115.7 685.53 109.93 688.31 107.15 693.52C129.89 692.29 152.64 691.07 175.38 689.84C179.04 689.64 183.04 689.31 185.68 686.77C187.44 685.08 188.29 682.67 189.08 680.36C194.9 663.42 200.71 646.48 206.53 629.53C208.49 623.81 210.33 617.04 206.81 612.12L192.54 616.79Z" fill="#1A1A1A"/>
<path d="M180.87 648.47C181.45 649.94 183.18 650.51 184.71 650.91C187.71 651.7 190.72 652.48 193.72 653.27C197.12 654.16 201.15 654.93 203.82 652.64C205.67 651.05 206.25 648.46 206.71 646.07C207.39 642.57 208.07 639.06 208.75 635.56C208.86 634.98 208.98 634.37 208.8 633.8C208.65 633.32 208.3 632.92 207.95 632.55C205.15 629.63 201.43 627.6 197.47 626.81C191.66 625.65 184.18 621.93 181.23 627.47C179.88 630 179.99 646.26 180.87 648.47Z" fill="#333333"/>
<path d="M185.65 563.1C177.78 575.91 167.56 588.7 167.7 603.73C167.79 613.8 172.85 623.49 180.33 630.24C190.63 639.55 205.58 643.44 219.11 640.33C235.42 636.59 248.35 623.56 256.03 608.7C263.72 593.84 325.52 523.22 328.65 506.78C334.1 478.16 314.89 495.33 320.33 466.71C321.03 463.05 287.8 467.44 287.27 463.75C286.39 457.71 282.32 452.61 277.84 448.47C266.27 437.81 232.75 419.11 224.27 441.44C215.01 465.84 213.01 493.76 205.09 518.81C200.23 534.22 194.13 549.31 185.65 563.1Z" fill="#242424"/>
<path d="M191.35 457.25C185.29 461.09 178.78 464.22 171.99 466.56C171.38 466.75 170.86 467.09 170.58 467.68L168.08 465.9C160.74 466.26 153.49 468.42 147.14 472.14C140.87 475.82 135.06 482.13 135.8 489.36C136.41 495.31 141.32 499.97 146.62 502.74C158.57 508.99 173.98 507.93 184.96 500.11C188.42 497.65 191.53 494.44 192.89 490.42C194.45 485.81 193.43 480.61 190.79 476.5C196.96 471.91 198.17 460.8 191.35 457.25Z" fill="#D6A99A"/>
<path d="M110.25 363.67C92.23 395.78 81.1 432.7 84.55 469.36C84.99 474.02 85.69 478.75 87.77 482.94C90.72 488.87 96.21 493.2 102.1 496.22C129.61 510.33 167.99 494.42 177.45 464.99C184.61 442.7 176.62 418.5 178.27 395.14C179.95 371.32 218.7 299.82 189.41 282.76C165.45 268.81 119.88 346.51 110.25 363.67Z" fill="#242424"/>
<path d="M394.23 144.24C394.23 145.1 394.22 145.96 394.21 146.81C394.17 148.86 394.09 150.89 393.95 152.92C393.89 153.92 393.81 154.9 393.73 155.89C393.64 156.88 393.54 157.86 393.43 158.84C393.32 159.83 393.21 160.8 393.07 161.77C392.95 162.74 392.81 163.71 392.65 164.68C392.5 165.64 392.34 166.6 392.16 167.56C391.65 170.44 391.04 173.28 390.32 176.09C390.16 176.73 390 177.36 389.83 178C389.49 179.27 389.13 180.53 388.76 181.8C388.39 183.05 387.99 184.3 387.57 185.55C387.38 186.11 387.2 186.69 387 187.25C386.49 188.7 385.96 190.15 385.4 191.57C385 192.62 384.58 193.64 384.15 194.67C383.9 195.27 383.65 195.87 383.39 196.47C383.13 197.06 381.83 199.92 381.79 199.99C381.44 200.73 381.08 201.46 380.72 202.2C380.23 203.2 379.72 204.19 379.19 205.17C378.25 206.93 377.43 208.73 376.73 210.56C376.37 211.48 376.04 212.41 375.74 213.34C375.4 214.39 375.1 215.45 374.84 216.51C374.65 217.25 374.49 217.98 374.35 218.73C374.3 218.9 374.27 219.09 374.24 219.28C373.9 221.08 373.68 222.89 373.57 224.7C373.56 224.76 373.56 224.82 373.56 224.89C373.4 227.39 373.44 229.9 373.71 232.39C373.76 232.91 373.82 233.43 373.9 233.95C374.19 236.01 374.62 238.07 375.21 240.09C375.29 240.34 375.35 240.6 375.41 240.85C375.47 241.11 375.53 241.36 375.58 241.62C375.63 241.87 375.68 242.13 375.72 242.38C375.76 242.64 375.8 242.89 375.82 243.15C375.84 243.32 375.87 243.51 375.89 243.7C375.93 244.06 375.95 244.44 375.95 244.81C375.96 244.99 375.96 245.17 375.96 245.36C375.96 245.57 375.96 245.77 375.95 245.98C375.94 246.62 375.88 247.24 375.79 247.87C373.14 267.22 340.03 283.06 296.72 286.71C294.87 286.87 293 287.01 291.11 287.11C286.7 287.37 282.2 287.51 277.63 287.51C275.31 287.51 273.04 287.47 270.79 287.39C259.38 287.02 248.98 285.68 239.5 283.61C225.8 280.61 214.04 276.07 203.97 270.62C198.43 267.65 193.42 264.4 188.88 260.98C188.81 260.94 188.74 260.89 188.67 260.82C177.87 252.71 169.76 243.65 163.79 235.18C162.22 232.95 160.79 230.76 159.51 228.63C155.23 221.51 152.49 215.12 150.96 210.44C148.68 206.54 146.58 202.54 144.71 198.4C143.29 195.3 141.99 192.15 140.83 188.92C140.44 187.86 140.07 186.77 139.71 185.69C139.35 184.6 139 183.52 138.66 182.42C137.97 180.22 137.36 178.01 136.82 175.77C136.53 174.66 136.27 173.52 136.02 172.4C135.77 171.26 135.55 170.13 135.32 168.98C135.11 167.84 134.9 166.7 134.71 165.53C134.32 163.22 134 160.9 133.76 158.55C133.05 152.08 132.81 145.49 133.09 138.77C133.71 123.26 137.1 108.43 142.75 94.7501C143.31 93.3601 143.9 92.0001 144.52 90.6401C145.56 88.3401 146.67 86.0701 147.84 83.8501C150.35 79.0701 153.15 74.4701 156.22 70.0701C156.71 69.3501 157.21 68.6501 157.72 67.9601C160.93 63.5201 164.41 59.2801 168.16 55.2901C169.45 53.9001 170.76 52.5601 172.11 51.2501C184.59 38.9701 199.53 29.1501 216.07 22.6401C217.53 22.0701 219 21.5001 220.49 20.9801C221.46 20.6401 222.42 20.3201 223.4 19.9901C226.32 19.0401 229.28 18.1901 232.29 17.4401C236.28 16.4401 240.37 15.6301 244.5 15.0201C247.6 14.5601 250.73 14.2001 253.9 13.9701C256.01 13.8201 258.13 13.7101 260.27 13.6601C262.52 13.6101 264.75 13.6101 266.97 13.6601C268.09 13.7001 269.2 13.7401 270.32 13.8001C272.55 13.9101 274.76 14.0701 276.96 14.3001C278.06 14.4101 279.14 14.5401 280.24 14.6701C281.33 14.8101 282.41 14.9601 283.5 15.1301C284.52 15.2801 285.55 15.4501 286.56 15.6301C286.67 15.6401 286.78 15.6601 286.91 15.6901C288.99 16.0601 291.05 16.4901 293.1 16.9601C294.02 17.1701 294.95 17.4001 295.86 17.6201C296.1 17.6701 296.35 17.7301 296.58 17.8101C297.52 18.0601 298.44 18.3101 299.36 18.5701C300.35 18.8401 301.32 19.1401 302.31 19.4401C302.47 19.4801 302.65 19.5401 302.81 19.5901C303.71 19.8801 304.61 20.1801 305.49 20.4801C306.5 20.8201 307.51 21.1801 308.51 21.5401C309.51 21.9001 310.51 22.2801 311.49 22.6801C312.48 23.0701 313.46 23.4701 314.44 23.8801C314.45 23.8801 314.46 23.8801 314.48 23.8901C315.44 24.3001 316.4 24.7301 317.35 25.1501C318.32 25.5901 319.27 26.0401 320.23 26.5001C323.08 27.8701 325.89 29.3501 328.62 30.9201C330.44 31.9701 332.24 33.0701 334 34.1901C334.77 34.6901 335.54 35.1901 336.3 35.7001C336.55 35.8501 336.79 36.0201 337.04 36.2001C337.64 36.6001 338.24 37.0101 338.83 37.4401C339.02 37.5601 339.19 37.6901 339.38 37.8301C340.18 38.4001 340.98 38.9801 341.76 39.5701C342.57 40.1801 343.38 40.8101 344.18 41.4201C344.21 41.4401 344.23 41.4601 344.26 41.4801C345.36 42.3501 346.44 43.2401 347.52 44.1501C348.04 44.5701 348.57 45.0201 349.09 45.4701C349.88 46.1601 350.66 46.8401 351.42 47.5401C352.22 48.2601 352.98 48.9801 353.73 49.6901C354.44 50.3801 355.98 51.8701 356.03 51.9201C356.74 52.6401 357.47 53.3801 358.16 54.1201C358.88 54.8801 359.6 55.6401 360.3 56.4201C360.97 57.1601 361.65 57.9101 362.3 58.6701C362.36 58.7301 362.42 58.7901 362.46 58.8701C363.07 59.5601 363.66 60.2601 364.25 60.9601C364.34 61.0601 364.41 61.1601 364.49 61.2601C365.14 62.0301 365.76 62.8201 366.39 63.6101C366.44 63.6701 367.73 65.3301 368.3 66.1101C368.91 66.9301 369.52 67.7701 370.12 68.6101C370.14 68.6501 370.18 68.6801 370.2 68.7201C370.71 69.4301 371.21 70.1601 371.71 70.8801C372.43 71.9501 373.15 73.0301 373.84 74.1301C374.14 74.6001 375.29 76.4501 375.56 76.9101C376.03 77.6801 376.48 78.4601 376.93 79.2401C377.44 80.1101 377.93 81.0001 378.42 81.8901C378.83 82.6501 379.24 83.4301 379.64 84.2001C379.94 84.7701 380.24 85.3501 380.51 85.9401C380.86 86.6101 381.2 87.2901 381.52 87.9701C381.92 88.8101 382.32 89.6601 382.69 90.5001C382.9 90.9501 383.1 91.4001 383.29 91.8601C383.9 93.2301 384.48 94.6201 385.04 96.0201C385.36 96.8601 385.69 97.6901 386 98.5301C386.26 99.2001 386.5 99.8801 386.74 100.57C386.86 100.88 386.96 101.21 387.08 101.52C387.29 102.12 387.49 102.73 387.69 103.34C387.77 103.56 387.84 103.79 387.91 104.01C388.15 104.73 388.37 105.47 388.6 106.21C389.14 107.95 389.63 109.68 390.08 111.44C390.18 111.84 390.29 112.24 390.38 112.65C390.57 113.31 390.73 113.99 390.88 114.66C390.9 114.75 390.92 114.83 390.94 114.92C391.17 115.92 391.39 116.92 391.59 117.93C391.78 118.84 391.96 119.77 392.13 120.69C392.19 120.98 392.24 121.28 392.29 121.58C392.45 122.5 392.6 123.44 392.74 124.36C393.05 126.41 393.33 128.46 393.54 130.53C393.56 130.77 393.59 131 393.6 131.24C393.68 131.93 393.74 132.63 393.79 133.32C394.08 136.91 394.23 140.56 394.23 144.24Z" fill="#1A1A1A"/>
<path d="M393.78 133.31C382.23 128.79 369.43 135.98 357.05 134.43C313.26 129 266.98 123.86 229.27 146.78C221.23 151.66 213.67 157.33 206.74 163.68C192.45 176.79 180.69 193.09 175.13 211.68C171.79 222.83 171.95 231.9 178.24 241.65C183.64 250.02 200.12 263.89 203.97 270.61C193.42 267.52 162.75 255.18 156.61 246.05C149.38 235.28 141.87 223.57 142.34 210.63C142.49 206.44 143.47 202.39 144.7 198.37C136.46 180.34 132.21 160.1 133.08 138.76C135.86 70.4599 191.92 15.3498 260.24 13.6298C322.52 12.0898 375.24 54.1199 390.05 111.4C391.91 118.5 393.16 125.81 393.78 133.31Z" fill="#242424"/>
<path d="M396.91 144.48C396.02 145.3 395.11 146.08 394.2 146.81C369.26 167.17 335.01 161.43 274.67 151.4C272.68 151.08 265.86 149.95 264.46 149.71C257.93 148.64 251.49 147.44 245.21 146.13C241.6 145.39 238.03 144.61 234.52 143.78C186.12 132.44 148.41 114.52 142.73 94.77C141.96 92.1 141.78 89.4299 142.22 86.7299C142.44 85.3899 143.19 83.4099 144.32 81.2199C144.32 81.2099 144.33 81.1899 144.34 81.1799C145.9 78.1199 148.17 74.6499 150.67 72.0399C152.32 70.2999 154.07 68.9299 155.78 68.3199C156.43 68.0799 157.08 67.95 157.7 67.95C168.75 88.35 204.78 108.13 253.37 118.59C258.48 119.69 263.72 120.69 269.09 121.57C324.52 130.71 370.87 129.17 390.35 112.62C390.71 112.31 391.06 112 391.41 111.68C397.63 115.39 390.89 121.69 394.23 126.75C398.73 133.56 402.05 139.75 396.91 144.48Z" fill="#333333"/>
<path d="M0.929932 96.7998C3.30993 98.1698 5.78993 99.3998 8.32993 100.43C5.69993 99.8598 3.18993 98.6998 0.929932 96.7998Z" fill="#333333"/>
<path d="M157.54 87.8599C153.94 87.5999 150.81 85.9499 147.84 83.8499C146.65 83.0299 145.51 82.1298 144.37 81.2198C144.11 81.0098 143.86 80.8199 143.62 80.6199C142.46 79.6999 141.31 78.7599 140.14 77.8999C130.98 71.1199 119.34 68.0199 107.99 68.7599C100.8 69.2199 93.7198 71.2199 87.4698 74.7999C76.7998 80.8999 68.8098 90.8699 58.3698 97.3699C43.2498 106.78 24.4398 107.05 8.33984 100.43C17.1698 102.35 27.2498 97.5299 33.3198 91.0399C41.2098 82.5899 45.3698 71.3899 51.5898 61.6299C60.9498 46.9099 75.6098 35.2499 92.5598 31.1499C109.53 27.0599 128.7 31.0499 141.36 43.0599C148.33 49.6599 153.08 58.3799 155.6 67.6199C155.66 67.8599 155.72 68.0899 155.78 68.3299C155.94 68.8999 156.08 69.4799 156.2 70.0499C157.57 75.9899 158.02 82.0399 157.54 87.8599Z" fill="#333333"/>
<path d="M90.3198 101.12C88.2098 111.64 87.9098 122.74 82.5698 132.25C77.2198 141.77 64.3698 149.07 53.7398 144.52C48.3398 142.21 44.7198 137.41 39.6398 134.57C34.5598 131.73 26.1098 132.17 24.5698 137.42C29.8698 135.81 35.5598 138.61 39.7198 142C43.8798 145.39 47.4998 149.57 52.6298 151.59C62.8298 155.61 74.2598 149.68 83.0698 143.51C90.1498 138.56 97.3098 132.83 99.8698 125.04C101.42 120.31 101.11 115.24 102.14 110.39C104.84 97.61 116.74 88.36 129.72 84.17C139.4 81.05 156.73 83.16 149.41 69.09C142.65 56.08 122.1 59.34 111.58 66.12C99.2898 74.06 92.9398 88.04 90.3198 101.12Z" fill="#333333"/>
<path d="M379.18 205.16C373.48 215.93 371.81 228.42 375.2 240.09C375.49 241.11 375.71 242.12 375.81 243.16C371.14 248.23 363.03 249.57 356.44 247.24C349.32 244.73 343.88 238.74 340.26 232.12C338.79 229.43 337.5 226.51 335.14 224.57C331.22 221.36 325.34 221.77 320.76 223.93C316.17 226.11 312.48 229.72 308.47 232.83C298.5 240.53 286.17 245.12 273.59 245.85C264.82 246.36 255.27 244.65 249.15 238.32C244.7 233.71 242.69 227.28 241.27 221C238.06 206.71 237.51 184.09 249.39 172.87C261.14 161.76 285.81 163.79 298.08 172.31C303.11 175.78 307.14 180.57 312.31 183.8C322.17 189.99 334.84 189.65 346.15 186.83C357.44 184.02 368.1 178.97 379.41 176.21C382.99 175.34 386.96 174.78 390.29 176.1C387.74 186.31 383.99 196.06 379.18 205.16Z" fill="#D6A99A"/>
<path d="M348.08 43.9199C347.89 43.9899 347.71 44.0699 347.51 44.1299C322.34 53.7599 292.45 60.2599 265.86 68.4999C258.96 70.6299 251.9 72.6099 244.77 74.2299C222 79.4399 198.48 81.1999 176.53 73.9799C174.44 73.2899 172.27 72.46 170.84 70.78C169.02 68.65 168.77 65.6099 168.59 62.7999C168.44 60.2999 167.03 36.57 166.48 27.21C166.12 21.25 165.86 14.8999 168.85 9.72992C172.68 3.12992 180.15 0.769922 188.08 0.169922C192 -0.120078 196.03 0.0199168 199.79 0.289917C229.39 2.43992 259.14 4.59991 288.03 11.3499C310.55 16.6199 332.6 26.4899 348.08 43.9199Z" fill="#242424"/>
<path d="M292.69 225.38C298.572 225.38 303.34 217.706 303.34 208.24C303.34 198.774 298.572 191.1 292.69 191.1C286.808 191.1 282.04 198.774 282.04 208.24C282.04 217.706 286.808 225.38 292.69 225.38Z" fill="#1A1A1A"/>
<path d="M366.9 213.26C365.9 222.01 360.68 228.6 355.24 227.98C349.8 227.36 346.2 219.76 347.2 211.01C348.2 202.26 353.42 195.67 358.86 196.29C364.3 196.91 367.9 204.5 366.9 213.26Z" fill="#1A1A1A"/>
<path opacity="0.06" d="M304.72 235.04C297.6 230.4 288.58 230.14 280.08 230.04C269 229.9 257.92 229.76 246.84 229.63C240.62 229.55 233.78 229.24 229.21 225.03C224.92 221.08 223.84 214.73 223.88 208.89C223.92 203.67 224.64 198.58 225.81 193.59C213.23 201.34 201.69 210.72 190.31 220.9C189.61 225.75 187.6 230.45 187.53 235.37C187.26 252.97 209.17 260.83 226.54 263.64C251.87 267.74 278.74 271.68 302.46 261.89C305.32 260.71 308.19 259.27 310.18 256.91C315.67 250.41 311.84 239.68 304.72 235.04Z" fill="#FFF8FF"/>
<path opacity="0.06" d="M253.41 118.09C253.4 118.26 253.39 118.44 253.37 118.6C253.28 119.67 253.15 120.7 252.97 121.65C252.08 126.79 250.67 131.8 248.9 136.74C248.8 137.03 248.7 137.31 248.59 137.6C247.63 140.31 246.56 142.99 245.41 145.67C245.35 145.83 245.29 145.98 245.21 146.14C245 146.66 244.77 147.19 244.55 147.7C240.69 149.72 236.95 151.98 233.43 154.53C231.07 155.89 228.84 157.45 226.71 159.2C217.67 163.28 209.04 168.25 200.98 173.79C197.48 176.21 193.98 178.77 190.57 181.53C189.88 182.09 189.2 182.65 188.51 183.23C175.13 194.39 163.57 208.34 159.7 225.43C159.45 226.57 159.39 227.65 159.51 228.63C159.51 228.66 159.52 228.68 159.52 228.71C159.84 231.56 161.56 233.82 163.79 235.19C164.29 235.51 170.78 241.26 171.32 241.47C171.32 241.67 181.82 250.93 190.91 258.97C191.87 259.81 192.81 260.64 193.72 261.45C199.19 266.28 203.6 270.19 203.96 270.59C203.97 270.61 203.98 270.63 203.98 270.63C202.22 270.82 194.39 267.95 185.57 263.96C182.11 262.39 178.5 260.66 175.03 258.85C174.77 258.73 174.51 258.59 174.24 258.45C169.95 256.2 165.93 253.89 162.75 251.72C162.51 251.56 162.28 251.4 162.04 251.22C159.01 249.08 156.88 247.11 156.26 245.54C156.25 245.51 156.24 245.49 156.2 245.45C156.11 245.33 156.03 245.19 155.95 245.06C155.59 244.54 155.24 244.01 154.89 243.47C154.8 243.35 154.72 243.22 154.64 243.08C147.92 232.97 141.49 222.02 141.92 210.02C142.07 205.83 143.06 201.77 144.29 197.76C143.82 196.75 143.35 195.71 142.9 194.68C142.46 193.61 141.41 190.97 141.3 190.72C140.99 189.92 140.7 189.1 140.39 188.3C139.95 187.1 139.54 185.9 139.14 184.69C138.85 183.8 138.55 182.9 138.29 182.02C137.93 180.85 137.58 179.67 137.25 178.49C136.94 177.38 136.65 176.27 136.38 175.14C136.13 174.15 135.91 173.18 135.69 172.19C135.59 171.85 135.53 171.5 135.45 171.15C135.25 170.23 135.06 169.29 134.89 168.34C134.73 167.49 134.57 166.63 134.42 165.77C134.17 164.33 133.95 162.87 133.75 161.43C133.6 160.27 133.46 159.08 133.34 157.92C133.2 156.88 133.12 155.87 133.03 154.84C133 154.57 132.98 154.28 132.98 154C132.88 152.95 132.81 151.88 132.76 150.83C132.69 149.63 132.64 148.43 132.61 147.23C132.59 146.03 132.56 144.83 132.56 143.63C132.56 141.81 132.6 139.97 132.67 138.15C133.31 122.64 136.68 107.81 142.32 94.1299C141.56 91.4799 141.38 88.7999 141.82 86.0899C141.94 85.2799 142.29 84.2199 142.79 83.0099C142.5 83.0799 142.22 83.1599 141.92 83.2099C142.29 82.6399 143.43 80.9099 143.63 80.5999C143.67 80.5399 143.72 80.4799 143.75 80.4099C144.11 79.8899 144.49 79.3599 144.85 78.8399C144.86 78.8099 144.86 78.7999 144.89 78.7799C146.5 76.4599 148.22 74.2099 150.11 72.0899C150.26 71.9199 150.4 71.7499 150.55 71.5899C151.35 70.6799 152.19 69.7999 153.07 68.9399C153.74 68.2699 154.46 67.6299 155.18 66.9899C155.27 67.2299 155.33 67.4499 155.37 67.6899C155.46 67.6599 155.53 67.6299 155.62 67.5999C155.68 67.8399 155.74 68.0699 155.8 68.3099C156.45 68.0699 157.1 67.9399 157.72 67.9399C160.93 63.4999 164.41 59.2599 168.16 55.2699C167.61 45.9199 167.05 36.5599 166.5 27.1899C166.14 21.2299 165.88 14.8799 168.87 9.7099C172.7 3.1099 180.17 0.749902 188.1 0.149902C197.94 4.1999 207.25 12.0599 215.59 22.0199C215.75 22.2199 215.91 22.4099 216.06 22.6099C226.83 35.6299 235.97 52.0999 242.52 68.3199C243.32 70.2899 244.07 72.2499 244.79 74.2099C250.94 91.0599 254.17 107.09 253.41 118.09Z" fill="#FFF8FF"/>
<path opacity="0.06" d="M119.55 287.79C115.05 289.93 110.42 291.78 105.75 293.51C103.26 294.45 100.78 295.34 98.2898 296.25C91.1498 298.83 83.8898 301.41 76.4798 302.88C74.0798 302.24 71.9398 301.06 70.6498 298.99C63.4398 287.28 70.0098 276.37 81.1998 267.6C79.6198 266.26 78.0998 264.82 76.5898 263.41C55.4698 243.55 36.0098 221.98 17.1798 199.92C16.8198 199.48 16.4398 199.05 16.0698 198.61C14.5298 196.79 12.8898 194.74 12.9498 192.36C12.9898 190.15 14.4598 188.27 15.8498 186.57C20.8098 180.52 27.2498 174.11 34.2798 171.75C33.5698 178.45 30.9198 186.31 32.4498 194.19C33.4298 199.18 36.0998 204.19 42.0498 208.93C49.6798 214.99 58.4298 219.68 65.2398 226.65C73.7698 235.4 78.5998 247.08 85.8998 256.88C87.1198 258.51 88.4598 260.11 89.9098 261.64C94.9798 266.94 101.31 271.21 108.07 272.5C110.96 273.06 113.92 273.1 116.89 272.43C117.47 272.3 118.05 272.14 118.65 271.99C121.17 271.32 123.75 270.66 126 271.81C132.4 275.1 126.03 284.69 119.55 287.79Z" fill="#FFF8FF"/>
<path opacity="0.06" d="M281.72 382.7C281.72 382.68 281.72 382.66 281.7 382.65C281.15 380.29 280.39 377.69 279.41 374.88C276.78 367.2 272.58 358.05 267.34 348.37C264.18 342.54 260.62 336.57 256.75 330.6C253.61 325.71 250.25 320.86 246.76 316.12C234.55 312.84 222.37 309.43 210.21 305.98C208.46 305.75 206.71 305.51 204.97 305.24C194.17 303.61 183.48 301.17 173.15 297.63C168.84 297.69 164.54 297.63 160.24 297.34C151.23 305.92 142.29 314.59 134.26 324.03C134.27 324.04 134.29 324.05 134.3 324.06C122.92 340.26 113.6 356.32 109.83 363.06C91.8199 395.18 80.6899 432.11 84.1199 468.76C84.5599 473.41 85.2599 478.15 87.3499 482.34C90.2899 488.28 95.7699 492.6 101.67 495.61C113.54 501.69 127.43 502.2 140.14 498.42C140.18 498.24 140.21 498.06 140.23 497.88C141.36 492.02 139.78 486.59 136.82 481.38C131.39 471.79 121.35 462.97 114.83 453.62C101.12 433.96 102.97 406.67 113.27 385.03C122.17 366.35 136.36 350.95 151.07 336.28C151.94 335.41 156.66 330.76 158.13 329.31C163.49 324.06 170.06 318.38 177.47 319.58C182.83 320.43 186.91 324.72 190.43 328.86C192.08 330.78 193.7 332.75 195.3 334.72C209.3 352.19 221.06 371.85 227.13 393.11C227.82 395.51 228.44 397.92 228.96 400.35C229.43 402.47 229.83 404.58 230.19 406.74C230.19 406.87 230.21 406.96 230.23 407.07C230.52 408.87 230.76 410.68 230.96 412.52C231.01 412.99 231.05 413.46 231.09 413.92C231.4 416.95 231.56 419.95 231.6 422.94C231.64 424.99 231.62 427.03 231.55 429.06C231.51 430.06 231.46 431.06 231.4 432.06C230.53 446.98 226.97 461.53 221.92 475.87C217.64 488.05 212.24 500.09 206.49 512.07C206.49 512.09 206.47 512.09 206.47 512.11C205.91 514.16 205.31 516.21 204.67 518.23C199.8 533.63 193.7 548.71 185.22 562.51C182.13 567.54 178.68 572.57 175.63 577.72C175.61 577.76 175.61 577.76 175.61 577.77C170.87 591.22 168.28 606.51 171.58 619.13C171.66 619.46 171.76 619.77 171.85 620.09C176.02 623.19 179.81 627.12 183.24 630.32C183.81 630.85 184.37 631.39 184.93 631.92C185.8 629.27 186.72 626.63 187.7 624.02C202.35 585.06 228.15 550.87 249.47 514.83C252.45 509.78 255.35 504.63 258.15 499.4C266.65 483.37 274 466.46 278.76 449.2C279.18 447.73 279.56 446.26 279.92 444.79C282.26 435.48 283.81 426.05 284.35 416.61C285.04 405.3 284.28 393.95 281.72 382.7Z" fill="#FFF8FF"/>
</svg>
